<?xml version="1.0" encoding="utf-8"?>
<!-- Generator: Adobe Illustrator 24.0.0, SVG Export Plug-In . SVG Version: 6.00 Build 0)  -->
<svg version="1.1" id="Capa_1" xmlns="http://www.w3.org/2000/svg" xmlns:xlink="http://www.w3.org/1999/xlink" x="0px" y="0px"
	 viewBox="0 0 500 480" style="enable-background:new 0 0 500 480;" xml:space="preserve">
<style type="text/css">
	.st0{opacity:5.000000e-02;fill:#1C0736;enable-background:new    ;}
	.st1{fill:#1C0736;}
	.st2{fill:#FFFFFF;}
	.st3{fill:#151A3E;}
	.st4{opacity:0.35;fill:#1C0736;enable-background:new    ;}
	.st5{opacity:0.1;fill:#FFFFFF;enable-background:new    ;}
	.st6{opacity:8.000000e-02;fill:#FFFFFF;enable-background:new    ;}
	.st7{opacity:0.2;fill:#FFFFFF;enable-background:new    ;}
	.st8{opacity:0.2;fill:#1C0736;enable-background:new    ;}
	.st9{fill:url(#SVGID_1_);}
	.st10{fill:none;stroke:url(#SVGID_2_);stroke-linecap:round;stroke-linejoin:round;stroke-dasharray:2,2;}
	.st11{fill:#0C133E;fill-opacity:0.6;}
	.st12{fill:#36A269;}
	.st13{fill:url(#SVGID_3_);}
	.st14{fill:none;stroke:url(#SVGID_4_);stroke-linecap:round;stroke-linejoin:round;stroke-dasharray:2,2;}
	.st15{fill:url(#SVGID_5_);}
	.st16{fill:#FFFFFF;fill-opacity:0.15;}
	.st17{fill:none;stroke:#FFFFFF;stroke-width:0.2;stroke-opacity:0.19;}
	.st18{clip-path:url(#SVGID_7_);}
	.st19{opacity:8.000000e-02;}
	.st20{opacity:0.5;fill:#282C4D;stroke:#FFFFFF;stroke-width:0.5;enable-background:new    ;}
	.st21{fill:none;stroke:url(#SVGID_8_);stroke-width:0.5;}
</style>
<path class="st0" d="M332,310h166c1.1,0,2,0.9,2,2v166c0,1.1-0.9,2-2,2H332c-1.1,0-2-0.9-2-2V312C330,310.9,330.9,310,332,310z"/>
<path class="st1" d="M363.9,365.4l74.5-18.5c1.1-0.3,2.2,0.4,2.4,1.5l18.5,74.5c0.3,1.1-0.4,2.2-1.5,2.4l-74.5,18.5
	c-1.1,0.3-2.2-0.4-2.4-1.5l-18.5-74.5C362.2,366.7,362.9,365.6,363.9,365.4z"/>
<path class="st2" d="M412.6,402c-1.3,0.3-2.8,0.1-3.9-0.6c-1.2-0.7-2-1.9-2.4-3.2c-0.5-1.9,0.2-3.8,1.4-5l14-13.5l-5.3,18.4
	C416,400,414.5,401.6,412.6,402z M407.2,380.2c3-0.8,6.1-0.6,8.9,0.1l-3,2.9c-1.6-0.2-3.4-0.1-5,0.3c-3.6,0.9-6.6,3.1-8.5,6.3
	c-1.9,3.1-2.5,6.9-1.6,10.5c0.9,3.7,3.2,6.7,6.3,8.5l0,0c0.8,0.5,1.1,1.6,0.6,2.4c-0.5,0.8-1.6,1.1-2.4,0.6c-3.8-2.3-6.7-6-7.9-10.7
	c-1.1-4.5-0.4-9.2,2-13.1C398.9,384.1,402.7,381.3,407.2,380.2L407.2,380.2z M428.1,392.8c1.1,4.6,0.3,9.3-2,13.1
	c-0.5,0.8-1.6,1.1-2.4,0.6c-0.8-0.5-1.1-1.6-0.6-2.4c1.8-3,2.5-6.8,1.6-10.5c-0.4-1.7-1.2-3.3-2.1-4.6l1.2-4
	C425.8,387.2,427.4,389.8,428.1,392.8z"/>
<path class="st3" d="M2,0h296c1.1,0,2,0.9,2,2v476c0,1.1-0.9,2-2,2H2c-1.1,0-2-0.9-2-2V2C0,0.9,0.9,0,2,0z"/>
<path class="st4" d="M37,35h226c1.1,0,2,0.9,2,2v130c0,1.1-0.9,2-2,2H37c-1.1,0-2-0.9-2-2V37C35,35.9,35.9,35,37,35z"/>
<path class="st5" d="M37,194h226c1.1,0,2,0.9,2,2v23c0,1.1-0.9,2-2,2H37c-1.1,0-2-0.9-2-2v-23C35,194.9,35.9,194,37,194z"/>
<path class="st5" d="M37,246h133c1.1,0,2,0.9,2,2v195c0,1.1-0.9,2-2,2H37c-1.1,0-2-0.9-2-2V248C35,246.9,35.9,246,37,246z"/>
<path class="st6" d="M189,246h74c1.1,0,2,0.9,2,2v60c0,1.1-0.9,2-2,2h-74c-1.1,0-2-0.9-2-2v-60C187,246.9,187.9,246,189,246z"/>
<path class="st7" d="M189,322h74c1.1,0,2,0.9,2,2v51c0,1.1-0.9,2-2,2h-74c-1.1,0-2-0.9-2-2v-51C187,322.9,187.9,322,189,322z"/>
<path class="st8" d="M189,389h74c1.1,0,2,0.9,2,2v52c0,1.1-0.9,2-2,2h-74c-1.1,0-2-0.9-2-2v-52C187,389.9,187.9,389,189,389z"/>
<linearGradient id="SVGID_1_" gradientUnits="userSpaceOnUse" x1="374.3004" y1="247.025" x2="361.8974" y2="112.167" gradientTransform="matrix(1 0 0 -1 0 482)">
	<stop  offset="0" style="stop-color:#FFFFFF;stop-opacity:0.48"/>
	<stop  offset="1" style="stop-color:#FFFFFF;stop-opacity:0"/>
</linearGradient>
<path class="st9" d="M377.4,371.6c0.2,0.2,0.5,0.2,0.7,0c0.2-0.2,0.2-0.5,0-0.7L377.4,371.6z M378.8,235.7c0.2-0.2,0.1-0.5-0.1-0.7
	c-0.2-0.2-0.5-0.1-0.7,0.1L378.8,235.7z M377.4,235.8c-0.2,0.2-0.1,0.5,0.1,0.7c0.2,0.2,0.5,0.1,0.7-0.1L377.4,235.8z M376.9,238
	c0.2-0.2,0.1-0.5-0.1-0.7c-0.2-0.2-0.5-0.1-0.7,0.1L376.9,238z M374.9,239c-0.2,0.2-0.1,0.5,0.1,0.7c0.2,0.2,0.5,0.1,0.7-0.1
	L374.9,239z M374.5,241.2c0.2-0.2,0.1-0.5-0.1-0.7c-0.2-0.2-0.5-0.1-0.7,0.1L374.5,241.2z M372.5,242.2c-0.2,0.2-0.1,0.5,0.1,0.7
	c0.2,0.2,0.5,0.1,0.7-0.1L372.5,242.2z M372.2,244.5c0.2-0.2,0.1-0.5-0.1-0.7c-0.2-0.2-0.5-0.1-0.7,0.1L372.2,244.5z M370.3,245.5
	c-0.2,0.2-0.1,0.5,0.1,0.7c0.2,0.2,0.5,0.1,0.7-0.1L370.3,245.5z M370,247.8c0.1-0.2,0.1-0.5-0.1-0.7c-0.2-0.1-0.5-0.1-0.7,0.1
	L370,247.8z M368.1,248.9c-0.1,0.2-0.1,0.5,0.2,0.7c0.2,0.1,0.5,0.1,0.7-0.2L368.1,248.9z M367.9,251.1c0.1-0.2,0.1-0.5-0.2-0.7
	c-0.2-0.1-0.5-0.1-0.7,0.2L367.9,251.1z M366,252.4c-0.1,0.2-0.1,0.5,0.2,0.7s0.5,0.1,0.7-0.2L366,252.4z M365.9,254.6
	c0.1-0.2,0-0.5-0.2-0.7c-0.2-0.1-0.5,0-0.7,0.2L365.9,254.6z M364,255.9c-0.1,0.2,0,0.5,0.2,0.7c0.2,0.1,0.5,0,0.7-0.2L364,255.9z
	 M364,258.1c0.1-0.2,0-0.5-0.2-0.7c-0.2-0.1-0.5,0-0.7,0.2L364,258.1z M362.2,259.5c-0.1,0.2,0,0.5,0.2,0.7c0.2,0.1,0.5,0,0.7-0.2
	L362.2,259.5z M362.2,261.7c0.1-0.3,0-0.5-0.2-0.7c-0.2-0.1-0.5,0-0.7,0.2L362.2,261.7z M360.5,263.1c-0.1,0.3,0,0.5,0.3,0.7
	c0.3,0.1,0.5,0,0.7-0.3L360.5,263.1z M360.6,265.4c0.1-0.3,0-0.5-0.3-0.7c-0.3-0.1-0.5,0-0.7,0.3L360.6,265.4z M359,266.8
	c-0.1,0.3,0,0.5,0.3,0.7c0.3,0.1,0.5,0,0.6-0.3L359,266.8z M359.2,269.1c0.1-0.3,0-0.5-0.3-0.6c-0.3-0.1-0.5,0-0.6,0.3L359.2,269.1z
	 M357.5,270.6c-0.1,0.3,0,0.5,0.3,0.6c0.3,0.1,0.5,0,0.6-0.3L357.5,270.6z M357.8,272.8c0.1-0.3-0.1-0.5-0.3-0.6
	c-0.3-0.1-0.5,0.1-0.6,0.3L357.8,272.8z M356.3,274.5c-0.1,0.3,0.1,0.5,0.3,0.6c0.3,0.1,0.5-0.1,0.6-0.3L356.3,274.5z M356.7,276.7
	c0.1-0.3-0.1-0.5-0.3-0.6c-0.3-0.1-0.5,0.1-0.6,0.3L356.7,276.7z M355.2,278.3c-0.1,0.3,0.1,0.5,0.4,0.6c0.3,0.1,0.5-0.1,0.6-0.4
	L355.2,278.3z M355.6,280.5c0.1-0.3-0.1-0.5-0.4-0.6c-0.3-0.1-0.5,0.1-0.6,0.4L355.6,280.5z M354.2,282.2c-0.1,0.3,0.1,0.5,0.4,0.6
	c0.3,0.1,0.5-0.1,0.6-0.4L354.2,282.2z M354.8,284.4c0.1-0.3-0.1-0.5-0.4-0.6c-0.3-0.1-0.5,0.1-0.6,0.4L354.8,284.4z M353.4,286.2
	c0,0.3,0.1,0.5,0.4,0.6c0.3,0,0.5-0.1,0.6-0.4L353.4,286.2z M354.1,288.3c0-0.3-0.1-0.5-0.4-0.6c-0.3,0-0.5,0.1-0.6,0.4L354.1,288.3
	z M352.8,290.2c0,0.3,0.2,0.5,0.4,0.6c0.3,0,0.5-0.2,0.6-0.4L352.8,290.2z M353.5,292.3c0-0.3-0.2-0.5-0.4-0.6
	c-0.3,0-0.5,0.2-0.6,0.4L353.5,292.3z M352.3,294.2c0,0.3,0.2,0.5,0.5,0.5c0.3,0,0.5-0.2,0.5-0.5L352.3,294.2z M353.2,296.3
	c0-0.3-0.2-0.5-0.5-0.5c-0.3,0-0.5,0.2-0.5,0.5L353.2,296.3z M352,298.2c0,0.3,0.2,0.5,0.5,0.5c0.3,0,0.5-0.2,0.5-0.5L352,298.2z
	 M352.9,300.2c0-0.3-0.2-0.5-0.5-0.5c-0.3,0-0.5,0.2-0.5,0.5L352.9,300.2z M351.9,302.2c0,0.3,0.2,0.5,0.5,0.5
	c0.3,0,0.5-0.2,0.5-0.5L351.9,302.2z M352.9,304.2c0-0.3-0.2-0.5-0.5-0.5s-0.5,0.2-0.5,0.5L352.9,304.2z M351.9,306.3
	c0,0.3,0.2,0.5,0.5,0.5s0.5-0.2,0.5-0.5L351.9,306.3z M353,308.2c0-0.3-0.2-0.5-0.5-0.5c-0.3,0-0.5,0.2-0.5,0.5L353,308.2z
	 M352.1,310.3c0,0.3,0.3,0.5,0.5,0.5c0.3,0,0.5-0.3,0.5-0.5L352.1,310.3z M353.3,312.2c0-0.3-0.3-0.5-0.5-0.5
	c-0.3,0-0.5,0.3-0.5,0.5L353.3,312.2z M352.5,314.3c0,0.3,0.3,0.5,0.6,0.4c0.3,0,0.5-0.3,0.4-0.6L352.5,314.3z M353.7,316.2
	c0-0.3-0.3-0.5-0.6-0.4c-0.3,0-0.5,0.3-0.4,0.6L353.7,316.2z M353,318.3c0,0.3,0.3,0.5,0.6,0.4c0.3,0,0.5-0.3,0.4-0.6L353,318.3z
	 M354.3,320.1c0-0.3-0.3-0.5-0.6-0.4s-0.5,0.3-0.4,0.6L354.3,320.1z M353.7,322.3c0.1,0.3,0.3,0.4,0.6,0.4c0.3-0.1,0.4-0.3,0.4-0.6
	L353.7,322.3z M355.1,324c-0.1-0.3-0.3-0.4-0.6-0.4c-0.3,0.1-0.4,0.3-0.4,0.6L355.1,324z M354.5,326.2c0.1,0.3,0.3,0.4,0.6,0.4
	c0.3-0.1,0.4-0.3,0.4-0.6L354.5,326.2z M356,327.9c-0.1-0.3-0.3-0.4-0.6-0.4c-0.3,0.1-0.4,0.3-0.4,0.6L356,327.9z M355.5,330.1
	c0.1,0.3,0.3,0.4,0.6,0.4c0.3-0.1,0.4-0.3,0.4-0.6L355.5,330.1z M357,331.8c-0.1-0.3-0.4-0.4-0.6-0.3c-0.3,0.1-0.4,0.4-0.3,0.6
	L357,331.8z M356.7,334c0.1,0.3,0.4,0.4,0.6,0.3c0.3-0.1,0.4-0.4,0.3-0.6L356.7,334z M358.2,335.6c-0.1-0.3-0.4-0.4-0.6-0.3
	s-0.4,0.4-0.3,0.6L358.2,335.6z M357.9,337.8c0.1,0.3,0.4,0.4,0.6,0.3c0.3-0.1,0.4-0.4,0.3-0.6L357.9,337.8z M359.6,339.3
	c-0.1-0.3-0.4-0.4-0.6-0.3c-0.3,0.1-0.4,0.4-0.3,0.6L359.6,339.3z M359.3,341.6c0.1,0.3,0.4,0.4,0.6,0.3c0.3-0.1,0.4-0.4,0.3-0.6
	L359.3,341.6z M361,343.1c-0.1-0.3-0.4-0.4-0.7-0.3c-0.3,0.1-0.4,0.4-0.3,0.7L361,343.1z M360.9,345.3c0.1,0.3,0.4,0.4,0.7,0.3
	c0.3-0.1,0.4-0.4,0.3-0.7L360.9,345.3z M362.6,346.7c-0.1-0.3-0.4-0.4-0.7-0.2c-0.2,0.1-0.4,0.4-0.2,0.7L362.6,346.7z M362.6,348.9
	c0.1,0.2,0.4,0.4,0.7,0.2c0.2-0.1,0.4-0.4,0.2-0.7L362.6,348.9z M364.4,350.3c-0.1-0.2-0.4-0.3-0.7-0.2c-0.2,0.1-0.3,0.4-0.2,0.7
	L364.4,350.3z M364.4,352.5c0.1,0.2,0.4,0.3,0.7,0.2c0.2-0.1,0.3-0.4,0.2-0.7L364.4,352.5z M366.2,353.8c-0.1-0.2-0.4-0.3-0.7-0.2
	c-0.2,0.1-0.3,0.4-0.2,0.7L366.2,353.8z M366.3,356.1c0.1,0.2,0.4,0.3,0.7,0.2c0.2-0.1,0.3-0.4,0.2-0.7L366.3,356.1z M368.2,357.3
	c-0.1-0.2-0.4-0.3-0.7-0.2c-0.2,0.1-0.3,0.5-0.2,0.7L368.2,357.3z M368.4,359.5c0.1,0.2,0.5,0.3,0.7,0.2c0.2-0.1,0.3-0.5,0.2-0.7
	L368.4,359.5z M370.3,360.7c-0.2-0.2-0.5-0.3-0.7-0.1c-0.2,0.2-0.3,0.5-0.1,0.7L370.3,360.7z M370.6,362.9c0.2,0.2,0.5,0.3,0.7,0.1
	s0.3-0.5,0.1-0.7L370.6,362.9z M372.6,364c-0.2-0.2-0.5-0.3-0.7-0.1c-0.2,0.2-0.3,0.5-0.1,0.7L372.6,364z M373,366.2
	c0.2,0.2,0.5,0.3,0.7,0.1c0.2-0.2,0.3-0.5,0.1-0.7L373,366.2z M375,367.2c-0.2-0.2-0.5-0.3-0.7-0.1c-0.2,0.2-0.3,0.5-0.1,0.7
	L375,367.2z M375.5,369.3c0.2,0.2,0.5,0.2,0.7,0.1c0.2-0.2,0.2-0.5,0.1-0.7L375.5,369.3z M377.5,370.2c-0.2-0.2-0.5-0.2-0.7,0
	c-0.2,0.2-0.2,0.5,0,0.7L377.5,370.2z M378.1,235c-0.2,0.3-0.4,0.5-0.6,0.8l0.8,0.6c0.2-0.3,0.4-0.5,0.6-0.8L378.1,235z
	 M376.2,237.4c-0.4,0.5-0.8,1.1-1.2,1.6l0.8,0.6c0.4-0.5,0.8-1.1,1.2-1.6L376.2,237.4z M373.7,240.6c-0.4,0.5-0.8,1.1-1.2,1.6
	l0.8,0.6c0.4-0.5,0.8-1.1,1.2-1.6L373.7,240.6z M371.4,243.9c-0.4,0.5-0.8,1.1-1.1,1.6l0.8,0.6c0.4-0.5,0.7-1.1,1.1-1.6L371.4,243.9
	z M369.1,247.2c-0.4,0.6-0.7,1.1-1.1,1.7l0.8,0.5c0.4-0.6,0.7-1.1,1.1-1.7L369.1,247.2z M367,250.6c-0.3,0.6-0.7,1.2-1,1.7l0.9,0.5
	c0.3-0.6,0.7-1.2,1-1.7L367,250.6z M365,254.1c-0.3,0.6-0.6,1.2-1,1.8l0.9,0.5c0.3-0.6,0.6-1.2,0.9-1.7L365,254.1z M363.1,257.7
	c-0.3,0.6-0.6,1.2-0.9,1.8l0.9,0.4c0.3-0.6,0.6-1.2,0.9-1.8L363.1,257.7z M361.3,261.3c-0.3,0.6-0.6,1.2-0.8,1.8l0.9,0.4
	c0.3-0.6,0.5-1.2,0.8-1.8L361.3,261.3z M359.7,265c-0.3,0.6-0.5,1.2-0.8,1.8l0.9,0.4c0.2-0.6,0.5-1.2,0.7-1.8L359.7,265z
	 M358.2,268.7c-0.2,0.6-0.5,1.3-0.7,1.9l0.9,0.3c0.2-0.6,0.4-1.2,0.7-1.9L358.2,268.7z M356.9,272.5c-0.2,0.6-0.4,1.3-0.6,1.9l1,0.3
	c0.2-0.6,0.4-1.3,0.6-1.9L356.9,272.5z M355.7,276.4c-0.2,0.6-0.4,1.3-0.5,1.9l1,0.3c0.2-0.6,0.3-1.3,0.5-1.9L355.7,276.4z
	 M354.7,280.3c-0.2,0.7-0.3,1.3-0.5,2l1,0.2c0.1-0.6,0.3-1.3,0.5-1.9L354.7,280.3z M353.8,284.2c-0.1,0.7-0.3,1.3-0.4,2l1,0.2
	c0.1-0.7,0.2-1.3,0.4-2L353.8,284.2z M353.1,288.2c-0.1,0.7-0.2,1.3-0.3,2l1,0.1c0.1-0.7,0.2-1.3,0.3-2L353.1,288.2z M352.5,292.2
	c-0.1,0.7-0.1,1.3-0.2,2l1,0.1c0.1-0.7,0.1-1.3,0.2-2L352.5,292.2z M352.2,296.2c0,0.7-0.1,1.3-0.1,2l1,0.1c0-0.7,0.1-1.3,0.1-2
	L352.2,296.2z M351.9,300.2c0,0.7,0,1.3,0,2l1,0c0-0.7,0-1.3,0-2L351.9,300.2z M351.9,304.2c0,0.7,0,1.3,0,2l1,0c0-0.7,0-1.3,0-2
	L351.9,304.2z M352,308.3c0,0.7,0.1,1.3,0.1,2l1-0.1c0-0.7-0.1-1.3-0.1-2L352,308.3z M352.3,312.3c0.1,0.7,0.1,1.3,0.2,2l1-0.1
	c-0.1-0.7-0.1-1.3-0.2-2L352.3,312.3z M352.7,316.3c0.1,0.7,0.2,1.3,0.3,2l1-0.2c-0.1-0.7-0.2-1.3-0.3-2L352.7,316.3z M353.4,320.3
	c0.1,0.7,0.2,1.3,0.4,2l1-0.2c-0.1-0.7-0.2-1.3-0.4-2L353.4,320.3z M354.1,324.2c0.1,0.7,0.3,1.3,0.4,2l1-0.2
	c-0.1-0.6-0.3-1.3-0.4-1.9L354.1,324.2z M355,328.2c0.2,0.7,0.3,1.3,0.5,1.9l1-0.3c-0.2-0.6-0.3-1.3-0.5-1.9L355,328.2z M356.1,332
	c0.2,0.6,0.4,1.3,0.6,1.9l1-0.3c-0.2-0.6-0.4-1.3-0.6-1.9L356.1,332z M357.3,335.9c0.2,0.6,0.4,1.3,0.7,1.9l0.9-0.3
	c-0.2-0.6-0.4-1.2-0.6-1.9L357.3,335.9z M358.6,339.7c0.2,0.6,0.5,1.3,0.7,1.9l0.9-0.4c-0.2-0.6-0.5-1.2-0.7-1.9L358.6,339.7z
	 M360.1,343.4c0.3,0.6,0.5,1.2,0.8,1.8l0.9-0.4c-0.3-0.6-0.5-1.2-0.8-1.8L360.1,343.4z M361.7,347.1c0.3,0.6,0.6,1.2,0.9,1.8
	l0.9-0.4c-0.3-0.6-0.6-1.2-0.8-1.8L361.7,347.1z M363.5,350.8c0.3,0.6,0.6,1.2,0.9,1.8l0.9-0.5c-0.3-0.6-0.6-1.2-0.9-1.8
	L363.5,350.8z M365.3,354.3c0.3,0.6,0.7,1.2,1,1.7l0.9-0.5c-0.3-0.6-0.7-1.1-1-1.7L365.3,354.3z M367.4,357.8
	c0.3,0.6,0.7,1.2,1.1,1.7l0.8-0.5c-0.3-0.6-0.7-1.1-1-1.7L367.4,357.8z M369.5,361.2c0.4,0.6,0.7,1.1,1.1,1.7l0.8-0.6
	c-0.4-0.5-0.7-1.1-1.1-1.7L369.5,361.2z M371.8,364.5c0.4,0.6,0.8,1.1,1.2,1.6l0.8-0.6c-0.4-0.5-0.8-1.1-1.2-1.6L371.8,364.5z
	 M374.2,367.8c0.4,0.5,0.8,1.1,1.3,1.6l0.8-0.6c-0.4-0.5-0.8-1-1.2-1.5L374.2,367.8z M376.8,370.9c0.2,0.3,0.4,0.5,0.7,0.7l0.7-0.7
	c-0.2-0.2-0.4-0.5-0.6-0.7L376.8,370.9z"/>
<linearGradient id="SVGID_2_" gradientUnits="userSpaceOnUse" x1="378.318" y1="249" x2="378.318" y2="244.383" gradientTransform="matrix(1 0 0 -1 0 482)">
	<stop  offset="0" style="stop-color:#FFFFFF;stop-opacity:0.55"/>
	<stop  offset="1" style="stop-color:#FFFFFF;stop-opacity:0.62"/>
</linearGradient>
<path class="st10" d="M375.8,233.5l5.1-0.5v4.6"/>
<path class="st11" d="M332,0h166c1.1,0,2,0.9,2,2v276c0,1.1-0.9,2-2,2H332c-1.1,0-2-0.9-2-2V2C330,0.9,330.9,0,332,0z"/>
<path class="st12" d="M393.8,213h49.5c5.4,0,9.8,4.4,9.8,9.8v0c0,5.4-4.4,9.8-9.8,9.8h-49.5c-5.4,0-9.8-4.4-9.8-9.8v0
	C384,217.4,388.4,213,393.8,213z"/>
<path class="st2" d="M399.4,219.5v3.7c0,0.8-0.5,1.3-1.4,1.3c-0.9,0-1.4-0.6-1.4-1.3v-3.7h-0.9v3.7c0,1.2,0.9,2,2.3,2
	c1.4,0,2.3-0.8,2.3-2v-3.7H399.4z"/>
<path class="st2" d="M401.4,226.8h0.8v-2.3h0c0.1,0.3,0.5,0.7,1.2,0.7c1,0,1.8-0.8,1.8-2.2c0-1.4-0.8-2.2-1.8-2.2
	c-0.8,0-1.1,0.5-1.2,0.7h-0.1v-0.7h-0.8V226.8z M402.2,223.1c0-0.9,0.4-1.5,1.1-1.5c0.8,0,1.1,0.6,1.1,1.5c0,0.9-0.4,1.5-1.1,1.5
	C402.6,224.6,402.2,224,402.2,223.1z"/>
<path class="st2" d="M407.8,225.3c0.8,0,1.1-0.5,1.2-0.7h0.1v0.7h0.8v-5.7h-0.8v2.1h0c-0.1-0.3-0.4-0.7-1.2-0.7
	c-1,0-1.8,0.8-1.8,2.2C406,224.4,406.8,225.3,407.8,225.3z M408,224.6c-0.7,0-1.1-0.7-1.1-1.5c0-0.8,0.4-1.5,1.1-1.5
	c0.7,0,1.1,0.6,1.1,1.5C409.1,224,408.7,224.6,408,224.6z"/>
<path class="st2" d="M412.4,225.3c0.7,0,1.1-0.4,1.3-0.7h0v0.6h0.8v-2.8c0-1.2-1-1.5-1.7-1.5c-0.8,0-1.5,0.3-1.8,1.1l0.8,0.2
	c0.1-0.3,0.4-0.6,1-0.6c0.5,0,0.8,0.3,0.8,0.8v0c0,0.3-0.3,0.3-1.1,0.4c-0.8,0.1-1.6,0.3-1.6,1.3
	C410.9,224.8,411.5,225.3,412.4,225.3z M412.5,224.6c-0.5,0-0.8-0.2-0.8-0.6c0-0.4,0.4-0.6,0.9-0.7c0.3,0,0.9-0.1,1-0.2v0.6
	C413.6,224.2,413.2,224.6,412.5,224.6z"/>
<path class="st2" d="M417.6,220.9h-0.9v-1h-0.8v1h-0.6v0.7h0.6v2.5c0,0.8,0.6,1.1,1.2,1.1c0.3,0,0.4-0.1,0.5-0.1l-0.1-0.7
	c-0.1,0-0.2,0-0.3,0c-0.3,0-0.5-0.1-0.5-0.6v-2.3h0.9V220.9z"/>
<path class="st2" d="M420.3,225.3c0.9,0,1.6-0.5,1.8-1.2l-0.8-0.1c-0.1,0.4-0.5,0.6-1,0.6c-0.7,0-1.2-0.5-1.2-1.3h3V223
	c0-1.5-0.9-2.1-1.9-2.1c-1.2,0-2,0.9-2,2.2C418.2,224.4,419,225.3,420.3,225.3z M419.1,222.7c0-0.6,0.5-1.1,1.1-1.1
	c0.6,0,1.1,0.5,1.1,1.1H419.1z"/>
<path class="st2" d="M429.7,219.5h-0.8v4.2h-0.1l-2.9-4.2h-0.8v5.7h0.9V221h0.1l2.9,4.2h0.8V219.5z"/>
<path class="st2" d="M432.7,225.3c1.2,0,2-0.9,2-2.2c0-1.3-0.8-2.2-2-2.2c-1.2,0-2,0.9-2,2.2C430.7,224.4,431.5,225.3,432.7,225.3z
	 M432.7,224.6c-0.8,0-1.2-0.7-1.2-1.5c0-0.8,0.4-1.5,1.2-1.5c0.8,0,1.1,0.7,1.1,1.5C433.9,223.9,433.5,224.6,432.7,224.6z"/>
<path class="st2" d="M436.4,225.2h0.8l0.9-3.1h0.1l0.9,3.1h0.8l1.3-4.3h-0.9l-0.8,3.1h0l-0.8-3.1h-0.9l-0.8,3.1h0l-0.8-3.1h-0.9
	L436.4,225.2z"/>
<linearGradient id="SVGID_3_" gradientUnits="userSpaceOnUse" x1="432.2197" y1="386.3577" x2="442.5327" y2="274.216" gradientTransform="matrix(1 0 0 -1 0 482)">
	<stop  offset="0" style="stop-color:#FFFFFF;stop-opacity:0.48"/>
	<stop  offset="1" style="stop-color:#FFFFFF;stop-opacity:0"/>
</linearGradient>
<path class="st13" d="M429.7,209.3c-0.2,0.2-0.5,0.2-0.7,0c-0.2-0.2-0.2-0.5,0-0.7L429.7,209.3z M428.4,96.3
	c-0.2-0.2-0.1-0.5,0.1-0.7c0.2-0.2,0.5-0.1,0.7,0.1L428.4,96.3z M429.8,96.4c0.2,0.2,0.1,0.5-0.1,0.7c-0.2,0.2-0.5,0.1-0.7-0.1
	L429.8,96.4z M430.3,98.6c-0.2-0.2-0.1-0.5,0.1-0.7c0.2-0.2,0.5-0.1,0.7,0.1L430.3,98.6z M432.2,99.6c0.2,0.2,0.1,0.5-0.1,0.7
	s-0.5,0.1-0.7-0.1L432.2,99.6z M432.6,101.8c-0.2-0.2-0.1-0.5,0.1-0.7c0.2-0.2,0.5-0.1,0.7,0.1L432.6,101.8z M434.6,102.8
	c0.2,0.2,0.1,0.5-0.1,0.7c-0.2,0.2-0.5,0.1-0.7-0.1L434.6,102.8z M434.9,105c-0.2-0.2-0.1-0.5,0.1-0.7c0.2-0.2,0.5-0.1,0.7,0.1
	L434.9,105z M436.8,106.2c0.1,0.2,0.1,0.5-0.2,0.7c-0.2,0.1-0.5,0.1-0.7-0.2L436.8,106.2z M437,108.4c-0.1-0.2-0.1-0.5,0.2-0.7
	c0.2-0.1,0.5-0.1,0.7,0.2L437,108.4z M438.9,109.6c0.1,0.2,0.1,0.5-0.2,0.7c-0.2,0.1-0.5,0.1-0.7-0.2L438.9,109.6z M439,111.8
	c-0.1-0.2,0-0.5,0.2-0.7c0.2-0.1,0.5,0,0.7,0.2L439,111.8z M440.9,113c0.1,0.2,0,0.5-0.2,0.7c-0.2,0.1-0.5,0-0.7-0.2L440.9,113z
	 M440.9,115.3c-0.1-0.2,0-0.5,0.2-0.7c0.2-0.1,0.5,0,0.7,0.2L440.9,115.3z M442.7,116.6c0.1,0.2,0,0.5-0.2,0.7
	c-0.2,0.1-0.5,0-0.7-0.2L442.7,116.6z M442.6,118.8c-0.1-0.3,0-0.5,0.3-0.7c0.3-0.1,0.5,0,0.7,0.3L442.6,118.8z M444.3,120.3
	c0.1,0.3,0,0.5-0.3,0.7c-0.3,0.1-0.5,0-0.7-0.3L444.3,120.3z M444.1,122.5c-0.1-0.3,0-0.5,0.3-0.6s0.5,0,0.6,0.3L444.1,122.5z
	 M445.8,124c0.1,0.3,0,0.5-0.3,0.6c-0.3,0.1-0.5,0-0.6-0.3L445.8,124z M445.5,126.2c-0.1-0.3,0-0.5,0.3-0.6c0.3-0.1,0.5,0,0.6,0.3
	L445.5,126.2z M447.1,127.8c0.1,0.3-0.1,0.5-0.3,0.6c-0.3,0.1-0.5-0.1-0.6-0.3L447.1,127.8z M446.7,130c-0.1-0.3,0.1-0.5,0.3-0.6
	c0.3-0.1,0.5,0.1,0.6,0.3L446.7,130z M448.2,131.6c0.1,0.3-0.1,0.5-0.4,0.6c-0.3,0.1-0.5-0.1-0.6-0.4L448.2,131.6z M447.7,133.8
	c-0.1-0.3,0.1-0.5,0.4-0.6c0.3-0.1,0.5,0.1,0.6,0.4L447.7,133.8z M449.1,135.5c0.1,0.3-0.1,0.5-0.4,0.6s-0.5-0.1-0.6-0.4
	L449.1,135.5z M448.6,137.7c-0.1-0.3,0.1-0.5,0.4-0.6c0.3-0.1,0.5,0.1,0.6,0.4L448.6,137.7z M449.9,139.4c0,0.3-0.1,0.5-0.4,0.6
	c-0.3,0-0.5-0.1-0.6-0.4L449.9,139.4z M449.2,141.6c0-0.3,0.2-0.5,0.4-0.6c0.3,0,0.5,0.2,0.6,0.4L449.2,141.6z M450.4,143.4
	c0,0.3-0.2,0.5-0.4,0.6c-0.3,0-0.5-0.2-0.6-0.4L450.4,143.4z M449.6,145.5c0-0.3,0.2-0.5,0.5-0.5s0.5,0.2,0.5,0.5L449.6,145.5z
	 M450.8,147.4c0,0.3-0.2,0.5-0.5,0.5c-0.3,0-0.5-0.2-0.5-0.5L450.8,147.4z M449.9,149.4c0-0.3,0.2-0.5,0.5-0.5
	c0.3,0,0.5,0.2,0.5,0.5L449.9,149.4z M450.9,151.4c0,0.3-0.2,0.5-0.5,0.5c-0.3,0-0.5-0.2-0.5-0.5L450.9,151.4z M449.9,153.4
	c0-0.3,0.2-0.5,0.5-0.5c0.3,0,0.5,0.2,0.5,0.5L449.9,153.4z M450.9,155.4c0,0.3-0.2,0.5-0.5,0.5c-0.3,0-0.5-0.2-0.5-0.5L450.9,155.4
	z M449.8,157.3c0-0.3,0.3-0.5,0.5-0.5c0.3,0,0.5,0.3,0.5,0.5L449.8,157.3z M450.6,159.4c0,0.3-0.3,0.5-0.5,0.5s-0.5-0.3-0.5-0.5
	L450.6,159.4z M449.5,161.3c0-0.3,0.3-0.5,0.6-0.4c0.3,0,0.5,0.3,0.4,0.6L449.5,161.3z M450.2,163.4c0,0.3-0.3,0.5-0.6,0.4
	c-0.3,0-0.5-0.3-0.4-0.6L450.2,163.4z M448.9,165.2c0-0.3,0.3-0.5,0.6-0.4c0.3,0,0.5,0.3,0.4,0.6L448.9,165.2z M449.6,167.3
	c0,0.3-0.3,0.5-0.6,0.4c-0.3,0-0.5-0.3-0.4-0.6L449.6,167.3z M448.2,169.1c0.1-0.3,0.3-0.4,0.6-0.4c0.3,0.1,0.4,0.3,0.4,0.6
	L448.2,169.1z M448.8,171.2c-0.1,0.3-0.3,0.4-0.6,0.4c-0.3-0.1-0.4-0.3-0.4-0.6L448.8,171.2z M447.4,173c0.1-0.3,0.3-0.4,0.6-0.4
	c0.3,0.1,0.4,0.3,0.4,0.6L447.4,173z M447.8,175.1c-0.1,0.3-0.3,0.4-0.6,0.3c-0.3-0.1-0.4-0.3-0.3-0.6L447.8,175.1z M446.3,176.8
	c0.1-0.3,0.4-0.4,0.6-0.3c0.3,0.1,0.4,0.4,0.3,0.6L446.3,176.8z M446.7,179c-0.1,0.3-0.4,0.4-0.6,0.3c-0.3-0.1-0.4-0.4-0.3-0.6
	L446.7,179z M445.1,180.5c0.1-0.3,0.4-0.4,0.6-0.3s0.4,0.4,0.3,0.6L445.1,180.5z M445.3,182.7c-0.1,0.3-0.4,0.4-0.6,0.3
	c-0.3-0.1-0.4-0.4-0.3-0.6L445.3,182.7z M443.7,184.2c0.1-0.3,0.4-0.4,0.6-0.3c0.3,0.1,0.4,0.4,0.3,0.7L443.7,184.2z M443.9,186.5
	c-0.1,0.3-0.4,0.4-0.7,0.3c-0.3-0.1-0.4-0.4-0.3-0.7L443.9,186.5z M442.1,187.9c0.1-0.3,0.4-0.4,0.7-0.3c0.3,0.1,0.4,0.4,0.2,0.7
	L442.1,187.9z M442.2,190.1c-0.1,0.2-0.4,0.4-0.7,0.2s-0.4-0.4-0.2-0.7L442.2,190.1z M440.4,191.5c0.1-0.2,0.4-0.3,0.7-0.2
	c0.2,0.1,0.3,0.4,0.2,0.7L440.4,191.5z M440.4,193.7c-0.1,0.2-0.4,0.3-0.7,0.2c-0.2-0.1-0.3-0.4-0.2-0.7L440.4,193.7z M438.6,195
	c0.1-0.2,0.4-0.3,0.7-0.2c0.2,0.1,0.3,0.4,0.2,0.7L438.6,195z M438.5,197.2c-0.1,0.2-0.4,0.3-0.7,0.2c-0.2-0.1-0.3-0.4-0.2-0.7
	L438.5,197.2z M436.6,198.4c0.1-0.2,0.5-0.3,0.7-0.2c0.2,0.1,0.3,0.5,0.2,0.7L436.6,198.4z M436.3,200.6c-0.2,0.2-0.5,0.3-0.7,0.1
	c-0.2-0.2-0.3-0.5-0.1-0.7L436.3,200.6z M434.4,201.7c0.2-0.2,0.5-0.3,0.7-0.1c0.2,0.2,0.3,0.5,0.1,0.7L434.4,201.7z M434.1,203.9
	c-0.2,0.2-0.5,0.3-0.7,0.1c-0.2-0.2-0.3-0.5-0.1-0.7L434.1,203.9z M432.1,204.9c0.2-0.2,0.5-0.3,0.7-0.1c0.2,0.2,0.3,0.5,0.1,0.7
	L432.1,204.9z M431.6,207.1c-0.2,0.2-0.5,0.2-0.7,0.1c-0.2-0.2-0.2-0.5-0.1-0.7L431.6,207.1z M429.6,207.9c0.2-0.2,0.5-0.2,0.7-0.1
	c0.2,0.2,0.2,0.5,0.1,0.7L429.6,207.9z M429.2,95.6c0.2,0.3,0.4,0.5,0.6,0.8l-0.8,0.6c-0.2-0.3-0.4-0.5-0.6-0.8L429.2,95.6z M431,98
	c0.4,0.5,0.8,1.1,1.2,1.6l-0.8,0.6c-0.4-0.5-0.8-1-1.2-1.6L431,98z M433.4,101.2c0.4,0.5,0.8,1.1,1.2,1.6l-0.8,0.6
	c-0.4-0.5-0.8-1.1-1.1-1.6L433.4,101.2z M435.7,104.5c0.4,0.6,0.7,1.1,1.1,1.7l-0.8,0.5c-0.4-0.6-0.7-1.1-1.1-1.7L435.7,104.5z
	 M437.9,107.8c0.3,0.6,0.7,1.1,1,1.7l-0.9,0.5c-0.3-0.6-0.7-1.1-1-1.7L437.9,107.8z M439.9,111.3c0.3,0.6,0.6,1.2,1,1.7l-0.9,0.5
	c-0.3-0.6-0.6-1.2-0.9-1.7L439.9,111.3z M441.8,114.8c0.3,0.6,0.6,1.2,0.9,1.8l-0.9,0.4c-0.3-0.6-0.6-1.2-0.9-1.8L441.8,114.8z
	 M443.5,118.4c0.3,0.6,0.5,1.2,0.8,1.8l-0.9,0.4c-0.3-0.6-0.5-1.2-0.8-1.8L443.5,118.4z M445.1,122.1c0.2,0.6,0.5,1.3,0.7,1.9
	l-0.9,0.3c-0.2-0.6-0.5-1.2-0.7-1.9L445.1,122.1z M446.5,125.9c0.2,0.6,0.4,1.3,0.6,1.9l-1,0.3c-0.2-0.6-0.4-1.3-0.6-1.9
	L446.5,125.9z M447.7,129.7c0.2,0.6,0.4,1.3,0.5,1.9l-1,0.3c-0.2-0.6-0.3-1.3-0.5-1.9L447.7,129.7z M448.7,133.6
	c0.2,0.6,0.3,1.3,0.4,1.9l-1,0.2c-0.1-0.6-0.3-1.3-0.4-1.9L448.7,133.6z M449.5,137.5c0.1,0.7,0.2,1.3,0.3,2l-1,0.2
	c-0.1-0.6-0.2-1.3-0.3-1.9L449.5,137.5z M450.2,141.4c0.1,0.7,0.2,1.3,0.2,2l-1,0.1c-0.1-0.6-0.2-1.3-0.2-2L450.2,141.4z
	 M450.6,145.4c0.1,0.7,0.1,1.3,0.1,2l-1,0.1c0-0.7-0.1-1.3-0.1-2L450.6,145.4z M450.9,149.4c0,0.7,0,1.3,0.1,2l-1,0c0-0.7,0-1.3,0-2
	L450.9,149.4z M450.9,153.4c0,0.7,0,1.3,0,2l-1,0c0-0.7,0-1.3,0-2L450.9,153.4z M450.8,157.4c0,0.7-0.1,1.3-0.1,2l-1-0.1
	c0.1-0.7,0.1-1.3,0.1-2L450.8,157.4z M450.5,161.4c-0.1,0.7-0.2,1.3-0.2,2l-1-0.1c0.1-0.6,0.2-1.3,0.2-2L450.5,161.4z M449.9,165.4
	c-0.1,0.7-0.2,1.3-0.3,2l-1-0.2c0.1-0.6,0.2-1.3,0.3-1.9L449.9,165.4z M449.2,169.3c-0.1,0.7-0.3,1.3-0.4,1.9l-1-0.2
	c0.1-0.6,0.3-1.3,0.4-1.9L449.2,169.3z M448.3,173.2c-0.2,0.6-0.3,1.3-0.5,1.9l-1-0.3c0.2-0.6,0.3-1.3,0.5-1.9L448.3,173.2z
	 M447.3,177.1c-0.2,0.6-0.4,1.3-0.6,1.9l-1-0.3c0.2-0.6,0.4-1.3,0.6-1.9L447.3,177.1z M446,180.9c-0.2,0.6-0.5,1.3-0.7,1.9l-0.9-0.4
	c0.2-0.6,0.5-1.2,0.7-1.9L446,180.9z M444.6,184.6c-0.2,0.6-0.5,1.2-0.8,1.9l-0.9-0.4c0.3-0.6,0.5-1.2,0.8-1.8L444.6,184.6z
	 M443.1,188.3c-0.3,0.6-0.6,1.2-0.8,1.8l-0.9-0.4c0.3-0.6,0.6-1.2,0.8-1.8L443.1,188.3z M441.3,191.9c-0.3,0.6-0.6,1.2-0.9,1.8
	l-0.9-0.5c0.3-0.6,0.6-1.2,0.9-1.8L441.3,191.9z M439.5,195.4c-0.3,0.6-0.7,1.2-1,1.7l-0.9-0.5c0.3-0.6,0.7-1.1,1-1.7L439.5,195.4z
	 M437.4,198.9c-0.4,0.6-0.7,1.1-1.1,1.7l-0.8-0.5c0.4-0.5,0.7-1.1,1.1-1.7L437.4,198.9z M435.2,202.2c-0.4,0.6-0.8,1.1-1.2,1.6
	l-0.8-0.6c0.4-0.5,0.8-1.1,1.1-1.6L435.2,202.2z M432.9,205.5c-0.4,0.5-0.8,1.1-1.2,1.6l-0.8-0.6c0.4-0.5,0.8-1,1.2-1.6L432.9,205.5
	z M430.3,208.6c-0.2,0.3-0.4,0.5-0.7,0.7l-0.7-0.7c0.2-0.2,0.4-0.5,0.6-0.7L430.3,208.6z"/>
<linearGradient id="SVGID_4_" gradientUnits="userSpaceOnUse" x1="428.8785" y1="388" x2="428.8785" y2="384.1608" gradientTransform="matrix(1 0 0 -1 0 482)">
	<stop  offset="0" style="stop-color:#FFFFFF;stop-opacity:0.55"/>
	<stop  offset="1" style="stop-color:#FFFFFF;stop-opacity:0.62"/>
</linearGradient>
<path class="st14" d="M431,94.4l-4.3-0.4v3.8"/>
<linearGradient id="SVGID_5_" gradientUnits="userSpaceOnUse" x1="418.4831" y1="306.118" x2="429.7321" y2="273.775" gradientTransform="matrix(1 0 0 -1 0 482)">
	<stop  offset="0" style="stop-color:#FFFFFF;stop-opacity:0.48"/>
	<stop  offset="1" style="stop-color:#FFFFFF;stop-opacity:0"/>
</linearGradient>
<path class="st15" d="M426.2,209.7c-0.1,0.2-0.3,0.2-0.5,0.1c-0.2-0.1-0.2-0.3-0.1-0.5L426.2,209.7z M417.3,176.5
	c-0.2-0.1-0.2-0.3-0.1-0.5c0.1-0.2,0.3-0.2,0.5-0.1L417.3,176.5z M418.5,176.6c0.2,0.1,0.2,0.3,0.1,0.5c-0.1,0.2-0.3,0.2-0.5,0.1
	L418.5,176.6z M419.7,178.5c-0.1-0.1-0.2-0.3,0-0.5c0.1-0.1,0.4-0.2,0.5,0L419.7,178.5z M421.7,179.4c0.1,0.1,0.1,0.4,0,0.5
	c-0.1,0.1-0.4,0.1-0.5,0L421.7,179.4z M422.5,181.4c-0.1-0.1-0.1-0.4,0-0.5c0.1-0.1,0.4-0.1,0.5,0L422.5,181.4z M424.4,182.6
	c0.1,0.2,0.1,0.4-0.1,0.5c-0.2,0.1-0.4,0.1-0.5-0.1L424.4,182.6z M424.9,184.8c-0.1-0.2,0-0.4,0.1-0.5c0.2-0.1,0.4,0,0.5,0.1
	L424.9,184.8z M426.5,186.3c0.1,0.2,0,0.4-0.2,0.5c-0.2,0.1-0.4,0-0.5-0.2L426.5,186.3z M426.7,188.5c-0.1-0.2,0-0.4,0.2-0.5
	c0.2-0.1,0.4,0,0.5,0.2L426.7,188.5z M428.1,190.2c0.1,0.2-0.1,0.4-0.2,0.4c-0.2,0.1-0.4-0.1-0.4-0.2L428.1,190.2z M427.9,192.4
	c0-0.2,0.1-0.4,0.3-0.4s0.4,0.1,0.4,0.3L427.9,192.4z M428.9,194.3c0,0.2-0.1,0.4-0.3,0.4c-0.2,0-0.4-0.1-0.4-0.3L428.9,194.3z
	 M428.4,196.5c0-0.2,0.1-0.4,0.3-0.4c0.2,0,0.4,0.1,0.4,0.3L428.4,196.5z M429.1,198.5c0,0.2-0.2,0.3-0.4,0.3
	c-0.2,0-0.3-0.2-0.3-0.4L429.1,198.5z M428.2,200.6c0-0.2,0.2-0.3,0.4-0.3c0.2,0,0.3,0.2,0.3,0.4L428.2,200.6z M428.6,202.7
	c0,0.2-0.2,0.3-0.4,0.3s-0.3-0.2-0.3-0.4L428.6,202.7z M427.5,204.6c0-0.2,0.2-0.3,0.4-0.2c0.2,0.1,0.3,0.2,0.2,0.4L427.5,204.6z
	 M427.5,206.8c-0.1,0.2-0.3,0.3-0.4,0.2s-0.3-0.3-0.2-0.4L427.5,206.8z M426.1,208.5c0.1-0.2,0.3-0.3,0.5-0.2
	c0.2,0.1,0.3,0.3,0.2,0.5L426.1,208.5z M417.7,175.9c0.3,0.2,0.6,0.4,0.8,0.6l-0.4,0.5c-0.3-0.2-0.5-0.4-0.8-0.6L417.7,175.9z
	 M420.1,177.9c0.5,0.5,1,1,1.5,1.5l-0.5,0.5c-0.5-0.5-1-1-1.5-1.4L420.1,177.9z M423.1,181c0.5,0.6,0.9,1.1,1.3,1.7l-0.6,0.4
	c-0.4-0.5-0.8-1.1-1.3-1.6L423.1,181z M425.5,184.4c0.4,0.6,0.7,1.2,1,1.9l-0.6,0.3c-0.3-0.6-0.6-1.2-1-1.8L425.5,184.4z
	 M427.4,188.2c0.3,0.7,0.5,1.3,0.7,2l-0.7,0.2c-0.2-0.6-0.4-1.3-0.7-1.9L427.4,188.2z M428.6,192.2c0.1,0.7,0.3,1.4,0.3,2.1
	l-0.7,0.1c-0.1-0.7-0.2-1.3-0.3-2L428.6,192.2z M429.1,196.4c0,0.7,0,1.4,0,2.1l-0.7,0c0-0.7,0-1.4,0-2.1L429.1,196.4z M428.9,200.7
	c-0.1,0.7-0.2,1.4-0.3,2.1l-0.7-0.1c0.1-0.7,0.2-1.3,0.3-2L428.9,200.7z M428.1,204.8c-0.2,0.7-0.4,1.4-0.6,2l-0.7-0.2
	c0.2-0.6,0.4-1.3,0.6-2L428.1,204.8z M426.7,208.8c-0.2,0.3-0.3,0.6-0.5,0.9l-0.6-0.3c0.2-0.3,0.3-0.6,0.5-0.9L426.7,208.8z"/>
<path class="st16" d="M349,72h74c0.6,0,1,0.4,1,1v17c0,0.6-0.4,1-1,1h-74c-0.6,0-1-0.4-1-1V73C348,72.4,348.4,72,349,72z"/>
<path class="st17" d="M349,72.1h74c0.5,0,0.9,0.4,0.9,0.9v17c0,0.5-0.4,0.9-0.9,0.9h-74c-0.5,0-0.9-0.4-0.9-0.9V73
	C348.1,72.5,348.5,72.1,349,72.1z"/>
<path class="st2" d="M371,83.5h0.7v-1.9h1.9v-0.6h-1.9v-1.3h2v-0.6H371V83.5z"/>
<path class="st2" d="M376.3,82.2c0,0.6-0.4,0.8-0.8,0.8c-0.4,0-0.7-0.3-0.7-0.7v-2h-0.6v2.1c0,0.8,0.4,1.2,1.1,1.2
	c0.5,0,0.8-0.3,1-0.6h0v0.6h0.6v-3.3h-0.6V82.2z"/>
<path class="st2" d="M378.5,79.2h-0.6v4.4h0.6V79.2z"/>
<path class="st2" d="M380,79.2h-0.6v4.4h0.6V79.2z"/>
<path class="st2" d="M381.2,84.8c0.5,0,0.9-0.3,1-0.8l1.4-3.7l-0.7,0l-0.8,2.5h0l-0.8-2.5h-0.7l1.2,3.3l-0.1,0.2
	c-0.2,0.4-0.4,0.5-0.7,0.4l-0.2,0.5C380.9,84.7,381,84.8,381.2,84.8z"/>
<path class="st2" d="M385.9,83.5h0.7v-1.7h0.9c0,0,0,0,0,0l0.9,1.7h0.8l-1-1.8c0.5-0.2,0.8-0.6,0.8-1.2c0-0.8-0.5-1.4-1.5-1.4h-1.6
	V83.5z M386.5,81.3v-1.6h0.8c0.6,0,0.9,0.3,0.9,0.8c0,0.5-0.3,0.8-0.9,0.8H386.5z"/>
<path class="st2" d="M391,83.6c0.7,0,1.2-0.4,1.4-0.9l-0.6-0.1c-0.1,0.3-0.4,0.5-0.8,0.5c-0.5,0-0.9-0.4-0.9-1h2.3v-0.2
	c0-1.2-0.7-1.6-1.4-1.6c-0.9,0-1.5,0.7-1.5,1.7C389.5,82.9,390.1,83.6,391,83.6z M390.1,81.6c0-0.5,0.4-0.9,0.9-0.9
	c0.5,0,0.8,0.4,0.8,0.9H390.1z"/>
<path class="st2" d="M395.6,81.1c-0.1-0.5-0.5-0.8-1.2-0.8c-0.7,0-1.3,0.4-1.3,1c0,0.5,0.3,0.8,0.9,0.9l0.6,0.1
	c0.3,0.1,0.5,0.2,0.5,0.4c0,0.3-0.3,0.5-0.7,0.5c-0.4,0-0.6-0.2-0.7-0.5l-0.6,0.1c0.1,0.6,0.6,0.9,1.3,0.9c0.8,0,1.3-0.4,1.3-1
	c0-0.5-0.3-0.7-0.9-0.9l-0.5-0.1c-0.4-0.1-0.5-0.2-0.5-0.4c0-0.3,0.3-0.4,0.6-0.4c0.4,0,0.6,0.2,0.7,0.4L395.6,81.1z"/>
<path class="st2" d="M396.4,84.8h0.6V83h0c0.1,0.2,0.4,0.6,0.9,0.6c0.8,0,1.4-0.6,1.4-1.7c0-1.1-0.6-1.7-1.4-1.7
	c-0.6,0-0.8,0.4-0.9,0.6H397v-0.5h-0.6V84.8z M397,81.9c0-0.7,0.3-1.1,0.9-1.1c0.6,0,0.9,0.5,0.9,1.1c0,0.7-0.3,1.2-0.9,1.2
	C397.3,83.1,397,82.6,397,81.9z"/>
<path class="st2" d="M401.5,83.6c0.9,0,1.5-0.7,1.5-1.7c0-1-0.6-1.7-1.5-1.7c-0.9,0-1.5,0.7-1.5,1.7
	C399.9,82.9,400.5,83.6,401.5,83.6z M401.5,83.1c-0.6,0-0.9-0.5-0.9-1.2c0-0.6,0.3-1.2,0.9-1.2c0.6,0,0.9,0.5,0.9,1.2
	C402.3,82.5,402.1,83.1,401.5,83.1z"/>
<path class="st2" d="M404.3,81.6c0-0.5,0.3-0.8,0.8-0.8c0.4,0,0.7,0.3,0.7,0.8v2h0.6v-2.1c0-0.8-0.4-1.2-1.1-1.2
	c-0.5,0-0.8,0.2-1,0.6h0v-0.5h-0.6v3.3h0.6V81.6z"/>
<path class="st2" d="M409.7,81.1c-0.1-0.5-0.5-0.8-1.2-0.8c-0.7,0-1.3,0.4-1.3,1c0,0.5,0.3,0.8,0.9,0.9l0.6,0.1
	c0.3,0.1,0.5,0.2,0.5,0.4c0,0.3-0.3,0.5-0.7,0.5c-0.4,0-0.6-0.2-0.7-0.5l-0.6,0.1c0.1,0.6,0.6,0.9,1.3,0.9c0.8,0,1.3-0.4,1.3-1
	c0-0.5-0.3-0.7-0.9-0.9l-0.5-0.1c-0.4-0.1-0.5-0.2-0.5-0.4c0-0.3,0.3-0.4,0.6-0.4c0.4,0,0.6,0.2,0.7,0.4L409.7,81.1z"/>
<path class="st2" d="M410.5,83.5h0.6v-3.3h-0.6V83.5z M410.8,79.8c0.2,0,0.4-0.2,0.4-0.4S411,79,410.8,79c-0.2,0-0.4,0.2-0.4,0.4
	S410.6,79.8,410.8,79.8z"/>
<path class="st2" d="M414.8,80.3h-0.7l-0.8,2.5h0l-0.8-2.5h-0.7l1.2,3.3h0.7L414.8,80.3z"/>
<path class="st2" d="M416.7,83.6c0.7,0,1.2-0.4,1.4-0.9l-0.6-0.1c-0.1,0.3-0.4,0.5-0.8,0.5c-0.5,0-0.9-0.4-0.9-1h2.3v-0.2
	c0-1.2-0.7-1.6-1.4-1.6c-0.9,0-1.5,0.7-1.5,1.7C415.1,82.9,415.7,83.6,416.7,83.6z M415.8,81.6c0-0.5,0.4-0.9,0.9-0.9
	c0.5,0,0.8,0.4,0.8,0.9H415.8z"/>
<circle class="st1" cx="359.5" cy="81.5" r="6.5"/>
<path class="st2" d="M357.2,79.8h4.7v2.9h-4.7V79.8z M361.8,83.2c0.2,0,0.3-0.1,0.4-0.2c0.1-0.1,0.2-0.3,0.2-0.4v-2.9
	c0-0.3-0.3-0.6-0.6-0.6h-4.7c-0.3,0-0.6,0.3-0.6,0.6v2.9c0,0.2,0.1,0.3,0.2,0.4c0.1,0.1,0.3,0.2,0.4,0.2H356v0.6h7v-0.6H361.8z"/>
<path class="st1" d="M374,148.2l31.2-7c0.5-0.1,1.1,0.2,1.2,0.8l7,31.2c0.1,0.5-0.2,1.1-0.8,1.2l-31.2,7c-0.5,0.1-1.1-0.2-1.2-0.8
	l-7-31.2C373.1,148.8,373.4,148.3,374,148.2z"/>
<circle class="st2" cx="393.3" cy="161.3" r="10"/>
<g>
	<defs>
		
			<rect id="SVGID_6_" x="387.3" y="155.3" transform="matrix(0.976 -0.2177 0.2177 0.976 -25.6771 89.4686)" width="12" height="12"/>
	</defs>
	<clipPath id="SVGID_7_">
		<use xlink:href="#SVGID_6_"  style="overflow:visible;"/>
	</clipPath>
	<g class="st18">
		<path class="st1" d="M398.3,159.9l-2-1.3c-0.2-0.1-0.2,0-0.2,0.1l0.4,1.7l-1.9,0.4c-0.2-0.6-0.8-1-1.4-0.9l-0.4-1.9l1.7-0.4
			c0.2,0,0.2-0.1,0-0.2l-2-1.3c-0.2-0.1-0.4-0.1-0.4,0.1l-1.3,2c-0.1,0.1,0,0.2,0.1,0.2l1.7-0.4l0.4,1.9c-0.6,0.2-1,0.8-0.9,1.4
			l-1.9,0.4l-0.4-1.7c0-0.2-0.1-0.2-0.2,0l-1.3,2c-0.1,0.1-0.1,0.3,0.1,0.4l2,1.3c0.2,0.1,0.2,0,0.2-0.1l-0.4-1.7l1.9-0.4
			c0.2,0.6,0.8,1,1.4,0.9l0.4,1.9l-1.7,0.4c-0.2,0-0.2,0.1,0,0.2l2,1.3c0.1,0.1,0.3,0.1,0.4-0.1l1.3-2c0.1-0.1,0-0.2-0.1-0.2
			l-1.7,0.4l-0.4-1.9c0.6-0.2,1-0.8,0.9-1.4l1.9-0.4l0.4,1.7c0,0.2,0.1,0.2,0.2,0l1.3-2C398.5,160.2,398.4,160,398.3,159.9z"/>
	</g>
</g>
<g class="st19">
	<path class="st2" d="M399,32h79c0.6,0,1,0.4,1,1v18c0,0.6-0.4,1-1,1h-79c-0.6,0-1-0.4-1-1V33C398,32.4,398.4,32,399,32z"/>
	<path class="st17" d="M399,32.1h79c0.5,0,0.9,0.4,0.9,0.9v18c0,0.5-0.4,0.9-0.9,0.9h-79c-0.5,0-0.9-0.4-0.9-0.9V33
		C398.1,32.5,398.5,32.1,399,32.1z"/>
</g>
<path class="st1" d="M463,35h12c0.6,0,1,0.4,1,1v12c0,0.6-0.4,1-1,1h-12c-0.6,0-1-0.4-1-1V36C462,35.4,462.4,35,463,35z"/>
<path class="st2" d="M469,38c-2.2,0-4,1.8-4,4c0,2.2,1.8,4,4,4c2.2,0,4-1.8,4-4C473,39.8,471.2,38,469,38z M469,45.5
	c-1.9,0-3.5-1.6-3.5-3.5s1.6-3.5,3.5-3.5s3.5,1.6,3.5,3.5S470.9,45.5,469,45.5z M469,38.9v6.1c1.7,0,3.1-1.4,3.1-3.1
	C472.1,40.3,470.7,38.9,469,38.9z"/>
<path class="st2" d="M405.7,43.4l0.4-1.2h1.7l0.4,1.2h0.7l-1.6-4.4h-0.8l-1.6,4.4H405.7z M406.3,41.7l0.6-1.9h0l0.6,1.9H406.3z"/>
<path class="st2" d="M410.1,39h-0.6v4.4h0.6V39z"/>
<path class="st2" d="M411.7,43.4h0.6L413,41h0l0.7,2.4h0.6l1-3.3h-0.7l-0.6,2.4h0l-0.6-2.4h-0.7l-0.6,2.4h0l-0.6-2.4h-0.7
	L411.7,43.4z"/>
<path class="st2" d="M416.9,43.4c0.5,0,0.8-0.3,1-0.5h0v0.4h0.6v-2.2c0-1-0.8-1.1-1.3-1.1c-0.6,0-1.1,0.2-1.4,0.8l0.6,0.1
	c0.1-0.2,0.3-0.5,0.8-0.5c0.4,0,0.6,0.2,0.6,0.6v0c0,0.2-0.2,0.2-0.8,0.3c-0.6,0.1-1.3,0.2-1.3,1C415.8,43.1,416.3,43.4,416.9,43.4z
	 M417,42.9c-0.4,0-0.6-0.2-0.6-0.5c0-0.3,0.3-0.5,0.7-0.5c0.2,0,0.7-0.1,0.8-0.2v0.4C417.9,42.6,417.5,42.9,417,42.9z"/>
<path class="st2" d="M419.6,44.6c0.5,0,0.9-0.3,1-0.8l1.4-3.7l-0.7,0l-0.8,2.5h0l-0.8-2.5H419l1.2,3.3l-0.1,0.2
	c-0.2,0.4-0.4,0.5-0.7,0.4l-0.2,0.5C419.3,44.6,419.4,44.6,419.6,44.6z"/>
<path class="st2" d="M425.1,40.9c-0.1-0.5-0.5-0.8-1.2-0.8c-0.7,0-1.3,0.4-1.3,1c0,0.5,0.3,0.8,0.9,0.9L424,42
	c0.3,0.1,0.5,0.2,0.5,0.4c0,0.3-0.3,0.5-0.7,0.5c-0.4,0-0.6-0.2-0.7-0.5l-0.6,0.1c0.1,0.6,0.6,0.9,1.3,0.9c0.8,0,1.3-0.4,1.3-1
	c0-0.5-0.3-0.7-0.9-0.9l-0.5-0.1c-0.4-0.1-0.5-0.2-0.5-0.4c0-0.3,0.3-0.4,0.6-0.4c0.4,0,0.6,0.2,0.7,0.4L425.1,40.9z"/>
<path class="st2" d="M429.5,42c0,0.6-0.4,0.8-0.8,0.8c-0.4,0-0.7-0.3-0.7-0.7v-2h-0.6v2.1c0,0.8,0.4,1.2,1.1,1.2
	c0.5,0,0.8-0.3,1-0.6h0v0.6h0.6v-3.3h-0.6V42z"/>
<path class="st2" d="M431,44.6h0.6v-1.7h0c0.1,0.2,0.4,0.6,0.9,0.6c0.8,0,1.4-0.6,1.4-1.7c0-1.1-0.6-1.7-1.4-1.7
	c-0.6,0-0.8,0.4-0.9,0.6h-0.1v-0.5H431V44.6z M431.6,41.7c0-0.7,0.3-1.1,0.9-1.1c0.6,0,0.9,0.5,0.9,1.1c0,0.7-0.3,1.2-0.9,1.2
	C431.9,42.9,431.6,42.4,431.6,41.7z"/>
<path class="st2" d="M437.8,40.1h-0.7v-0.8h-0.6v0.8H436v0.5h0.5v1.9c0,0.6,0.5,0.9,1,0.9c0.2,0,0.3,0,0.4-0.1l-0.1-0.5
	c0,0-0.1,0-0.2,0c-0.2,0-0.4-0.1-0.4-0.4v-1.8h0.7V40.1z"/>
<path class="st2" d="M439.9,43.4c0.9,0,1.5-0.7,1.5-1.7c0-1-0.6-1.7-1.5-1.7c-0.9,0-1.5,0.7-1.5,1.7
	C438.3,42.8,438.9,43.4,439.9,43.4z M439.9,42.9c-0.6,0-0.9-0.5-0.9-1.2c0-0.6,0.3-1.2,0.9-1.2c0.6,0,0.9,0.5,0.9,1.2
	C440.8,42.4,440.5,42.9,439.9,42.9z"/>
<path class="st2" d="M444.9,43.4c0.6,0,0.8-0.4,0.9-0.6h0.1v0.5h0.6V39h-0.6v1.6h0c-0.1-0.2-0.3-0.6-0.9-0.6c-0.8,0-1.4,0.6-1.4,1.7
	C443.5,42.8,444.1,43.4,444.9,43.4z M445.1,42.9c-0.6,0-0.9-0.5-0.9-1.2c0-0.6,0.3-1.1,0.9-1.1c0.6,0,0.9,0.5,0.9,1.1
	C445.9,42.4,445.6,42.9,445.1,42.9z"/>
<path class="st2" d="M448.4,43.4c0.5,0,0.8-0.3,1-0.5h0v0.4h0.6v-2.2c0-1-0.8-1.1-1.3-1.1c-0.6,0-1.1,0.2-1.4,0.8L448,41
	c0.1-0.2,0.3-0.5,0.8-0.5c0.4,0,0.6,0.2,0.6,0.6v0c0,0.2-0.2,0.2-0.8,0.3c-0.6,0.1-1.3,0.2-1.3,1C447.3,43.1,447.8,43.4,448.4,43.4z
	 M448.5,42.9c-0.4,0-0.6-0.2-0.6-0.5c0-0.3,0.3-0.5,0.7-0.5c0.2,0,0.7-0.1,0.8-0.2v0.4C449.4,42.6,449.1,42.9,448.5,42.9z"/>
<path class="st2" d="M452.4,40.1h-0.7v-0.8h-0.6v0.8h-0.5v0.5h0.5v1.9c0,0.6,0.5,0.9,1,0.9c0.2,0,0.3,0,0.4-0.1l-0.1-0.5
	c0,0-0.1,0-0.2,0c-0.2,0-0.4-0.1-0.4-0.4v-1.8h0.7V40.1z"/>
<path class="st2" d="M454.5,43.4c0.7,0,1.2-0.4,1.4-0.9l-0.6-0.1c-0.1,0.3-0.4,0.5-0.8,0.5c-0.5,0-0.9-0.4-0.9-1h2.3v-0.2
	c0-1.2-0.7-1.6-1.4-1.6c-0.9,0-1.5,0.7-1.5,1.7C452.9,42.8,453.5,43.4,454.5,43.4z M453.6,41.4c0-0.5,0.4-0.9,0.9-0.9
	c0.5,0,0.8,0.4,0.8,0.9H453.6z"/>
<circle class="st20" cx="398" cy="42" r="1.8"/>
<linearGradient id="SVGID_8_" gradientUnits="userSpaceOnUse" x1="396" y1="440.25" x2="359.25" y2="440.25" gradientTransform="matrix(1 0 0 -1 0 482)">
	<stop  offset="0" style="stop-color:#FFFFFF;stop-opacity:0.28"/>
	<stop  offset="1" style="stop-color:#FFFFFF;stop-opacity:0"/>
</linearGradient>
<line class="st21" x1="347" y1="41.8" x2="396" y2="41.8"/>
</svg>
