<svg id="Capa_3" data-name="Capa 3" xmlns="http://www.w3.org/2000/svg" viewBox="0 0 1920 675"><defs><style>.cls-1{fill:none;}.cls-2{fill:#9e5401;}.cls-3{fill:#ffc47f;}</style></defs><title>logo1</title><path class="cls-1" d="M206.6,312.49l0,.06C207.27,313.45,206.92,313,206.6,312.49Z"/><path class="cls-1" d="M301.86,380.78l-.15.07C301.17,381.19,301.34,381.4,301.86,380.78Z"/><path class="cls-1" d="M264,372.06l-1-.77h0Z"/><path class="cls-1" d="M262.92,371.28l0,0Z"/><path class="cls-1" d="M236.18,348.28q1.92,2,3.87,3.91l.21.21.11.1,1.84,1.76q3.6,3.39,7.34,6.62c4.29,3.69,8.8,7,13.33,10.37l.05,0c.42.3,1,.74,1.33.94l1.75,1.12c1.08.69,2.18,1.35,3.29,2,2.26,1.32,4.57,2.56,6.93,3.69.29.14.6.26.91.39-.82-.45-1.56-1,.6.28,1,.42,2,.82,3.07,1.18s2.08.71,3.13,1,4.51.72,1.16.37c1.95.2,3.84.69,5.81.8.69,0,1.38,0,2.07.05l.9,0a29.1,29.1,0,0,0,3.62-.45c.22,0,.75-.09,1.23-.19l.23-.11c.24-.12.5-.19.74-.3.7-.31,1.34-.82,2-1.18l.16-.08.13-.16a10.13,10.13,0,0,1,.62-.86,7.36,7.36,0,0,1,.26-1c0-.36-.07-.75-.07-1.12a.08.08,0,0,1,0,0c-.18-.54-.36-1.08-.53-1.62,0,0,0,0,0-.06l-.07-.12c-.33-.6-.64-1.21-1-1.8s-.62-1-.93-1.47l-.44-.58c-1.23-1.59-2.56-3.11-3.93-4.58-.59-.62-1.2-1.21-1.78-1.83l-.84-.78a142.83,142.83,0,0,0-12.05-9.91c-1.29-1-2.59-1.89-3.9-2.82l-1.87-1.3-.18-.13-.35-.23c-2.77-1.84-5.57-3.65-8.4-5.4-3.81-2.35-7.63-4.73-11.65-6.7-.58-.29-1.17-.56-1.76-.84h0c-1.27-.52-2.53-1-3.82-1.48-2.62-.94-5.3-1.74-8-2.42l-.79-.19c-1.22.05-1.51-.18-1.21-.22-.29-.08-.58-.16-.83-.21-1.35-.26-2.71-.48-4.08-.68-3-.45-6-.75-9.08-.94-1.46-.09-2.93-.14-4.39-.17l.54.66Q228.48,340.29,236.18,348.28Z"/><path class="cls-1" d="M277.55,379.64l.34.16-.15-.09-.14,0Z"/><path class="cls-1" d="M371.2,124.26a1.77,1.77,0,0,0,0-.2l.12.67C371.26,124.58,371.23,124.42,371.2,124.26Z"/><path class="cls-1" d="M302.1,380.66a1.23,1.23,0,0,0-.23.11h0C301.94,380.74,302,380.69,302.1,380.66Z"/><path class="cls-1" d="M371.28,124.73c0,.08,0,.16.05.24a.83.83,0,0,0,0,.15C371.33,125,371.31,124.86,371.28,124.73Z"/><path class="cls-1" d="M240.52,333.32h0Z"/><path class="cls-1" d="M239.79,333.16a1.81,1.81,0,0,0-.55-.06,4.67,4.67,0,0,0,1.17.21Z"/><path class="cls-1" d="M293.31,44.66l.77,0A3.2,3.2,0,0,0,293.31,44.66Z"/><path class="cls-1" d="M1739.84,323.73c-2.4-5.13-9.93-2.73-24.64,24.64C1728.89,350.08,1743.6,332.29,1739.84,323.73Z"/><path class="cls-1" d="M948,177.62c-21.9,35.24-41.4,82.47-57.48,128.66,25.66-36.95,55.43-83.15,75.28-122.84C994.2,127.66,979.14,128.34,948,177.62Z"/><path class="cls-2" d="M301.86,380.78h0l-.16.08Z"/><path class="cls-2" d="M371.16,124.06c-.1-.46-.27-.79.17.91,0-.08,0-.16-.05-.24Z"/><path class="cls-2" d="M312.06,46.53Z"/><path class="cls-2" d="M333.58,55.88c-.9-.6-2.31-1.38,0,0Z"/><path class="cls-2" d="M240.45,333.32h0a4.67,4.67,0,0,1-1.17-.21C238.94,333.14,239.23,333.37,240.45,333.32Z"/><path class="cls-2" d="M262.92,371.28h0l-.05,0Z"/><path class="cls-2" d="M415.05,465.35c-.37-1.18-.7-2.38-1-3.58h0a82.14,82.14,0,0,1-1.92-12.44,125,125,0,0,1,.11-23.34c-7.17,17.9-14.68,35.67-22.92,53.09-2.12,4.48-4.35,8.91-6.53,13.36-23.36,47.79-95.36,112.8-130.36,121.45-9.23,2.28-14.83,5.51-24,7.85a229.73,229.73,0,0,1-26.24,5.09c-8.71,1.18-17.47,1.9-26.25,2.26q-3.15.12-6.29.19l-2,0-3.71,0c-4.74,0-9.48,0-14.22-.27-5-.23-18.05-2.37-18.55-2.39l-1.08-.26L128.6,626q-4-1-8-2.37c-2.27-.76-4.51-1.6-6.72-2.5-.43-.17-1.95-.84-2.2-.94-1.14-.53-2.29-1.06-3.41-1.62-4.3-2.13-9.19-4.42-12.9-7.48,2.15,1.78-.91-.65-1.48-1.07-1-.73-2-1.47-3-2.23q-2.94-2.28-5.73-4.73c-.92-.82-1.84-1.66-2.74-2.5l-.33-.29c-.34-.3-.66-.66-1-1q-2.75-2.77-5.3-5.73c-1.43-1.65-5.31-6.65-6.45-8.17-.12-.17-.24-.33-.31-.44-.48-.72-1-1.44-1.45-2.17a117.66,117.66,0,0,1-7.37-13c-.22-.45-.43-.9-.64-1.36-.06-.12-.41-.9-.57-1.24q-.63-1.45-1.23-2.94-1.41-3.53-2.59-7.13t-2.13-7.34c-.32-1.24-.61-2.49-.89-3.74l-.33-1.51c0-.13-.21-1.09-.27-1.37-1.89-10.33-2.21-21-2-31.47q.12-7.44.76-14.86c.11-1.21.22-2.42.35-3.63,0-.08,0-.47.07-.64.07-.61.14-1.22.22-1.83q.45-3.54,1-7a191.74,191.74,0,0,1,6.43-27.08A185.9,185.9,0,0,1,68.22,432c.47-1,.94-1.92,1.42-2.87.19-.38.38-.76.58-1.14,0,.08.54-1,.58-1.12.59-1.09,2-3.57,2.84-5.11q3.12-5.41,6.6-10.6a187.94,187.94,0,0,1,32.15-36.57c1.47-1.29,3-2.54,4.46-3.79l.23-.2.89-.71,2.51-2q4.67-3.6,9.55-6.9a190.71,190.71,0,0,1,19.56-11.62,184.79,184.79,0,0,1,19.85-8.79c1.66-.62,3.32-1.21,5-1.78l1-.33.16-.06.09,0,2.49-.77q5.06-1.53,10.19-2.73a154.06,154.06,0,0,1,16.1-2.84c2.79,3.51,5.65,7,8.57,10.37,17.9,20.79,39.12,41.22,64.73,52.05,10.15,4.3,22.33,6.6,33,2.9,4.51-1.56,8.38-5,9.22-9.85,1.28-7.46-2.8-14.51-7-20.32-5.61-7.75-13.05-14.28-20.58-20.11a225.7,225.7,0,0,0-31.55-20.72,98,98,0,0,0-37.26-10.77,144.52,144.52,0,0,0-15.13-.51l-1.17-1.61c-.28-.4-.56-.81-.85-1.2-.49-.71-1-1.42-1.48-2.14q-1.78-2.58-3.52-5.2-3.41-5.16-6.64-10.43-6.37-10.43-12-21.28-2.81-5.46-5.41-11c-.77-1.63-1.51-3.27-2.25-4.92l-.86-2c-.44-1-.88-2.06-1.31-3.09a248.61,248.61,0,0,1-14.36-46.06c-.15-.72-.29-1.45-.43-2.17,0,.14-.32-1.82-.38-2.15-.34-2-.64-4-.92-6q-.8-5.81-1.21-11.66a151.17,151.17,0,0,1,.05-22.32q.1-1.36.24-2.73c0-.37.08-.73.11-1.09l0-.13c0-.07,0-.13,0-.22.25-1.8.48-3.6.79-5.39q.89-5.34,2.27-10.59A108.54,108.54,0,0,1,166.9,121c.16-.32.33-.64.49-1l.1-.21s0-.1.09-.16c.39-.72.78-1.44,1.18-2.15q1.43-2.51,3-4.94a107,107,0,0,1,6.52-9.06,109.38,109.38,0,0,1,7.68-8.58q2.09-2.1,4.28-4.09c.74-.68,1.5-1.34,2.26-2l.92-.79,1.21-1c2.74-2.21,7.51-7.54,11.16-10q6-4,12.21-7.81a247.94,247.94,0,0,1,23-12.46c3.64-1.72,33.18-9.84,39.74-10.87,3-.47,6-.82,9-1,1.45-.11,2.89-.15,4.34-.22h.52l2.3,0c2.77.07,5.54.26,8.29.6,1.17.14,2.34.31,3.5.5l1.91.34c.37.07,1.06.28,1.48.41l-1-.34c2.37.77,4.85,1.23,7.22,2,1.17.39,2.32.81,3.46,1.26l1.52.61.14.06c2.14,1,4.27,2.08,6.33,3.27q1.46.86,2.88,1.77c.5.32,1,.68,1.49,1l-.48-.28.33.22c1.92,1.39,3.77,2.87,5.55,4.42.82.72,1.63,1.46,2.43,2.21l1.09,1.1q2.47,2.58,4.75,5.36c.76.92,1.5,1.87,2.23,2.83.37.48.72,1,1.08,1.45l0,0a129.61,129.61,0,0,1,7.59,12.66c.54,1,1.06,2.11,1.57,3.17.25.51.49,1,.72,1.52.32.69,1.36,3.35.17.35.93,2.34,2,4.63,2.85,7q2.71,7.25,4.68,14.74c.67,2.54,1.27,5.1,1.82,7.67.24,1.13.47,2.26.69,3.4a.17.17,0,0,1,0,.07,1.77,1.77,0,0,1,0,.2c0,.16.06.32.08.47s.05.27.09.39a.83.83,0,0,1,0-.15l.27,1.57A180.12,180.12,0,0,1,374,157.22q-.06,7.32-.74,14.61l-.18,1.78,0,.16v.13c-.15,1.16-.3,2.32-.46,3.48q-.51,3.5-1.18,7a105.33,105.33,0,0,1-7.55,24.17c-.39.83-.81,1.64-1.21,2.46l0,0c-.22.4-.44.81-.67,1.21-.91,1.59-1.88,3.14-2.93,4.64a44.48,44.48,0,0,1-6.61,7.56c-.22.21-.45.4-.68.6-.54.39-1.05.79-1.6,1.16a28.69,28.69,0,0,1-3,1.79,25.13,25.13,0,0,0-3.07.78c-10.94,3.62-17.36,14-14.33,23.15S344.05,265.58,355,262a24.26,24.26,0,0,0,6.81-3.52c9.72-5.23,16.61-15.14,21.21-25.22,7.93-17.38,10.37-37.36,10.33-56.29-.06-21.67-5.77-59.66-13.84-79.82-8.6-21.48-22-40.7-41.31-53.76-20.05-13.55-35.9-23.86-68.39-20.93-15.3,1.38-34.86,6.52-48.65,13.21-17.11,8.3-30.23,18.06-44.72,30.43C164,76.67,155.35,91.75,148.55,106.62c-6.46,14.1-9.58,37.36-10.42,52.79-1.81,32.93,7.27,66.15,20.37,96.1a347.67,347.67,0,0,0,34,60.46c-22.86,2.2-47.26,8.18-64.54,16.71a194.73,194.73,0,0,0-73.83,63.67A167.93,167.93,0,0,0,25.67,505.89c1.71,18.28,5.09,44.23,14.46,64.85a130.7,130.7,0,0,0,41.35,50.63c18.41,13.45,43.89,20.76,66.63,23.14,10,1,20.22.87,30.29.65,9.26-.19,18.52-.75,27.73-1.81a220.56,220.56,0,0,0,105.3-40.68c19.05-13.91,36.11-30.37,51.48-48.23,9.31-10.81,18-22.11,26.28-33.74,2.44-3.44,8.49-14.83,8.94-15.7,2.36-4.55,4.63-9.15,6.85-13.77q5.61-11.73,10.84-23.64c-.25-.68-.49-1.36-.71-2.06ZM225.25,331.27c3,.19,6.07.49,9.08.94,1.37.2,2.73.42,4.08.68.25.05.54.13.83.21a1.81,1.81,0,0,1,.55.06l.62.15h0l.79.19c2.7.68,5.38,1.48,8,2.42,1.29.46,2.55,1,3.82,1.48h0c.59.28,1.18.55,1.76.84,4,2,7.84,4.35,11.65,6.7,2.83,1.75,5.63,3.56,8.4,5.4l.35.23.18.13,1.87,1.3c1.31.93,2.61,1.86,3.9,2.82a142.83,142.83,0,0,1,12.05,9.91l.84.78c.58.62,1.19,1.21,1.78,1.83,1.37,1.47,2.7,3,3.93,4.58l.44.58c.31.49.63,1,.93,1.47s.67,1.2,1,1.8l.07.12s0,0,0,.06c.17.54.35,1.08.53,1.62a.08.08,0,0,0,0,0c0,.37,0,.76.07,1.12a7.36,7.36,0,0,0-.26,1,10.13,10.13,0,0,0-.62.86l-.13.16a1.23,1.23,0,0,1,.23-.11c-.08,0-.16.08-.24.12-.52.62-.69.41-.15.07-.67.36-1.31.87-2,1.18-.24.11-.5.18-.74.3l-.23.11c-.48.1-1,.15-1.23.19a29.1,29.1,0,0,1-3.62.45l-.9,0c-.69,0-1.38,0-2.07-.05-2-.11-3.86-.6-5.81-.8,3.35.35-.07,0-1.16-.37s-2.09-.64-3.13-1-2.06-.76-3.07-1.18l.15.09-.34-.16.05,0,.14,0c-2.16-1.32-1.42-.73-.6-.28-.31-.13-.62-.25-.91-.39-2.36-1.13-4.67-2.37-6.93-3.69-1.11-.65-2.21-1.31-3.29-2l-1.75-1.12c-.31-.2-.91-.64-1.33-.94l1,.77-1.05-.78,0,0c-4.53-3.36-9-6.68-13.33-10.37q-3.75-3.22-7.34-6.62l-1.84-1.76-.11-.1-.21-.21q-2-1.95-3.87-3.91-7.71-8-14.78-16.52l-.54-.66C222.32,331.13,223.79,331.18,225.25,331.27Zm-18.61-18.72,0-.06C206.92,313,207.27,313.45,206.64,312.55ZM294.08,44.63l-.77,0A3.2,3.2,0,0,1,294.08,44.63Z"/><path class="cls-2" d="M477.47,324.41a65.34,65.34,0,0,0,18.92-19.93c3.16-5.35,5.32-11.46,5.15-17.73-.17-6.51-5-14.51-9.29-19.32-6.67-7.46-16.19-12.4-25.55-15.55-4.22-1.42-8.75-2.89-13.26-2.94-2,0-4.34.36-5.56,2.1-2.66,3.82.82,10.27,2.61,13.73,1.65,3.19,6.3,10.14,11.25,11.63.5.15,3.83,1,3.49.5-3.81-5.24-8.38-12-8.84-18.67-.31-4.44,2.87-6.12,7-5.75a20.05,20.05,0,0,1,3.61.71c.38.11.77.26,1.15.38,1.06.57,2.14,1.08,3.19,1.68a49.61,49.61,0,0,1,9.82,7.16c4.51,4.31,7.91,9.73,8.85,16a29.67,29.67,0,0,1-2.6,16.36,56.38,56.38,0,0,1-14.88,19.33A11.19,11.19,0,0,1,477.47,324.41Z"/><path class="cls-3" d="M418.8,473.61a27.59,27.59,0,0,1-1.62-2.87A27.59,27.59,0,0,0,418.8,473.61Z"/><path class="cls-3" d="M417.06,470.49c-.22-.46-.43-.92-.63-1.39C416.63,469.57,416.84,470,417.06,470.49Z"/><path class="cls-3" d="M419.81,475c-.28-.37-.55-.74-.81-1.13C419.26,474.3,419.53,474.67,419.81,475Z"/><path class="cls-3" d="M423.49,478.63a14.3,14.3,0,0,1-1.17-.92A14.3,14.3,0,0,0,423.49,478.63Z"/><path class="cls-3" d="M427.94,480.68q-.75-.19-1.44-.45Q427.19,480.48,427.94,480.68Z"/><path class="cls-3" d="M429.52,481a12.14,12.14,0,0,1-1.23-.22A12.14,12.14,0,0,0,429.52,481Z"/><path class="cls-3" d="M426.2,480.1c-.37-.15-.74-.32-1.09-.5C425.46,479.78,425.83,480,426.2,480.1Z"/><path class="cls-3" d="M424.75,479.41c-.41-.23-.81-.47-1.2-.74C423.94,478.94,424.34,479.18,424.75,479.41Z"/><path class="cls-3" d="M420.94,476.38c-.35-.38-.68-.77-1-1.17C420.26,475.61,420.59,476,420.94,476.38Z"/><path class="cls-3" d="M422,477.46c-.31-.27-.6-.56-.88-.85C421.44,476.9,421.73,477.19,422,477.46Z"/><path class="cls-3" d="M431.64,481.14A15.13,15.13,0,0,1,430,481,15.13,15.13,0,0,0,431.64,481.14Z"/><path class="cls-3" d="M415.82,467.59c.17.44.35.88.53,1.31-.18-.43-.35-.88-.52-1.32Z"/><path class="cls-3" d="M415.05,465.35c-.37-1.18-.7-2.38-1-3.58C414.35,463,414.68,464.17,415.05,465.35Z"/><path class="cls-3" d="M415.11,465.53c.22.7.46,1.38.71,2.06h0C415.58,466.91,415.33,466.23,415.11,465.53Z"/><path class="cls-1" d="M433.76,461.53h0a.74.74,0,0,0,.21,0H434l.19,0,.08,0,.19-.08.1-.05.2-.13.12-.08.2-.16a.69.69,0,0,0,.13-.11,1.51,1.51,0,0,0,.23-.21l.14-.13.26-.28a.8.8,0,0,0,.13-.13c.14-.16.28-.32.42-.5l-3.82.38C432.81,460.82,433.16,461.46,433.76,461.53Z"/><path class="cls-3" d="M434,461.52h0Z"/><path class="cls-3" d="M435.25,460.83a.69.69,0,0,1-.13.11A.69.69,0,0,0,435.25,460.83Z"/><path class="cls-3" d="M434.6,461.31l-.1.05Z"/><path class="cls-3" d="M434.31,461.44l-.08,0Z"/><path class="cls-3" d="M435.62,460.49l-.14.13Z"/><path class="cls-3" d="M436,460.08a.8.8,0,0,1-.13.13A.8.8,0,0,0,436,460.08Z"/><path class="cls-3" d="M433.78,461.53h0Z"/><path class="cls-3" d="M434.92,461.1l-.12.08Z"/><path class="cls-3" d="M419,473.91l-.2-.3Z"/><path class="cls-3" d="M417.18,470.74l-.12-.25Z"/><path class="cls-3" d="M416.43,469.1a1.67,1.67,0,0,1-.08-.2A1.67,1.67,0,0,0,416.43,469.1Z"/><path class="cls-3" d="M426.5,480.23l-.3-.13Z"/><path class="cls-3" d="M428.29,480.76l-.35-.08Z"/><path class="cls-3" d="M425.11,479.6l-.36-.19Z"/><path class="cls-3" d="M430,481l-.45-.06Z"/><path class="cls-3" d="M422.32,477.71l-.28-.25Z"/><path class="cls-3" d="M423.55,478.67l-.06,0Z"/><path class="cls-3" d="M421.16,476.61l-.22-.23Z"/><path class="cls-3" d="M419.94,475.21l-.13-.17Z"/><path class="cls-3" d="M435.12,460.94l-.2.16Z"/><path class="cls-3" d="M434.8,461.18l-.2.13Z"/><path class="cls-3" d="M434.5,461.36l-.19.08Z"/><path class="cls-3" d="M433.76,461.53c-.6-.07-.95-.71-1.15-1.57h0C432.81,460.82,433.16,461.47,433.76,461.53Z"/><path class="cls-3" d="M434,461.53a.74.74,0,0,1-.21,0A.74.74,0,0,0,434,461.53Z"/><path class="cls-3" d="M434.23,461.47l-.19,0Z"/><path class="cls-3" d="M435.88,460.21l-.26.28Z"/><path class="cls-3" d="M436.43,459.58c-.14.18-.28.34-.42.5C436.15,459.92,436.29,459.76,436.43,459.58Z"/><path class="cls-3" d="M435.48,460.62a1.51,1.51,0,0,1-.23.21A1.51,1.51,0,0,0,435.48,460.62Z"/><path class="cls-3" d="M415.11,465.53l-.06-.18Z"/><polygon class="cls-3" points="414.06 461.76 414.06 461.77 414.06 461.76 414.06 461.76"/><path class="cls-3" d="M414.06,461.77c.29,1.2.62,2.4,1,3.58l.06.18c.22.7.47,1.38.72,2.05.92-2.08,1.83-4.17,2.73-6.25l-4.5.43Z"/><path class="cls-3" d="M671.86,360.35l-.8,1a107.57,107.57,0,0,0-10.72,32.28c8.47-8.65,16.07-17.14,22.47-24.69C696.84,353.85,681.09,347.34,671.86,360.35Z"/><path class="cls-3" d="M862.12,368.56c14.37-15.4,0-21.22-10.27-8.21l-.09.11c-1.44,7.78-2.75,15.4-4,22.81A173.47,173.47,0,0,0,862.12,368.56Z"/><path class="cls-3" d="M1079.4,360.35l-.47.57a98.12,98.12,0,0,0-11.1,32.73c8.49-8.67,16.11-17.18,22.52-24.75C1104.38,353.85,1088.64,347.34,1079.4,360.35Z"/><path class="cls-3" d="M1349.73,368.9c14-15-1.71-21.56-11-8.55-.27.33-.56.66-.85,1-3,8.75-5.67,18.08-7.9,27.48A191,191,0,0,0,1349.73,368.9Z"/><path class="cls-3" d="M551.06,442.47c-41.74-9.58,5.48-72.54-9.24-94.1-6.84-9.58-16.42-8.21-27-.34-32.51,24.29-74.25,106.08-78.36,111.55-.14.18-.28.34-.42.5a.8.8,0,0,1-.13.13l-.26.28-.14.13a1.51,1.51,0,0,1-.23.21.69.69,0,0,1-.13.11l-.2.16-.12.08-.2.13-.1.05-.19.08-.08,0-.19,0H434a.74.74,0,0,1-.21,0h0c-.6-.06-.95-.71-1.16-1.57a21.15,21.15,0,0,1-.28-4.48c1.72-30.8,36.28-99.92,44.49-127.64a14.69,14.69,0,0,0,.66-3.43,11.19,11.19,0,0,0-5-10.33c-6.27-4.25-17.26-3.41-26.15,6.92-15.8,18.85-30.94,68.06-34.1,105a125,125,0,0,0-.11,23.34,82.14,82.14,0,0,0,1.92,12.44l4.5-.43c-.9,2.08-1.81,4.17-2.73,6.25.17.44.34.89.52,1.32a1.67,1.67,0,0,0,.08.2c.2.47.41.93.63,1.39l.12.25a27.59,27.59,0,0,0,1.62,2.87l.2.3c.26.39.53.76.81,1.13l.13.17c.32.4.65.79,1,1.17l.22.23c.28.29.57.58.88.85l.28.25a14.3,14.3,0,0,0,1.17.92l.06,0c.39.27.79.51,1.2.74l.36.19c.35.18.72.35,1.09.5l.3.13q.69.25,1.44.45l.35.08a12.14,12.14,0,0,0,1.23.22l.45.06a15.13,15.13,0,0,0,1.67.1c5.82,0,10.95-4.45,16.08-10.95,9.58-18.14,61.25-102.31,63.65-97.52,1,1,0,4.1-1,6.84-10.95,33.19-3.42,73.23,34.22,77,39.73,4.33,83.94-30.41,115.78-62.91a107.57,107.57,0,0,1,10.72-32.28C646.5,390.76,583.22,450.6,551.06,442.47Z"/><path class="cls-3" d="M712.58,428.1c-11-4.45-16.77-14.37-18.14-25-2.73-31.48,24-81.1,52.7-91.36,7.19-2.4,13.35,0,14.71,10.6-1,17.46,18.14,20.54,18.14,4.45-3.76-17.45-14-26.69-26.69-26.35-35.72,1.15-66.38,29.56-82.24,60.85l.8-1c9.23-13,25-6.5,10.95,8.55-6.4,7.55-14,16-22.47,24.69a70.69,70.69,0,0,0-.8,13.3c1,22.24,15.74,32.5,34.56,36.95,49.83,10.74,116.56-26.39,153.71-60.57,1.2-7.41,2.51-15,4-22.81C843.4,371.44,754.53,445.84,712.58,428.1Z"/><path class="cls-3" d="M958.61,442.47c-19.16-4.45-21.9-35.24-6.84-82.12,3.76-12-8.56-19.85-21.22-13.35-30.45,13.69-62.28,67.07-77,93.42,2.74-13.69,10.27-48.59,23.27-91,39-48.59,116-156.72,127.29-216.61,8.21-44.82-25-45.51-47.9-23.61-55.68,53.32-88,162.51-104.46,251.28l.09-.11c10.27-13,24.64-7.19,10.27,8.21a173.47,173.47,0,0,1-14.31,14.71c-7,43.18-10,79.3-10,98.21,0,21.9,14,16.77,14,9.58,1.37-5.47,3.08-10.6,4.79-15.74,9.24-25.66,33.19-78.7,55.78-98.55,9.24-8.55,7.18-2.73,5.47,2.74-10.95,33.19-3.42,73.23,34.22,77,39.71,4.32,83.89-30.37,115.72-62.85a98.12,98.12,0,0,1,11.1-32.73C1054.61,390.23,990.91,450.63,958.61,442.47ZM948,177.62c31.14-49.28,46.2-50,17.8,5.82-19.85,39.69-49.62,85.89-75.28,122.84C906.6,260.09,926.1,212.86,948,177.62Z"/><path class="cls-3" d="M1218,421.6c-19.16-4.45-28.4-24.3-13-70.83,4.79-15.06-14-22.25-30.46-6.85-6.84,6.85-64.33,70.49-69.8,62.28-4.79-6.5,2-24.64,4.79-30.8,12.66-31.14,45.51-63.3,73.57-60.56,11,1,20.87,6.84,27.37,18.82,6.51,16.42,26,12.66,18.82-2.74-7.87-16.43-24-24.3-41.4-26.69-44.27-6.36-88.32,18.9-109,56.69l.47-.57c9.24-13,25-6.5,10.95,8.55-6.41,7.57-14,16.08-22.52,24.75-.15,1-.28,2-.4,3-1.71,14,1,29.09,12,34.56,36.95,19.16,81.44-60.22,96.15-72.2-19.16,37.3-5.13,72.88,35.93,76.65,40.89,4.45,86.54-18.69,118.54-46.81,2.23-9.4,4.91-18.73,7.9-27.48C1312.72,390.65,1250.47,428.71,1218,421.6Z"/><path class="cls-3" d="M1653.6,224.5c49.62-6.5,103.68-12.66,143-8.9,24.64,2.74,43.12,9.58,49.62,24.3,9.24,20.53,33.88,1.71,21.9-8.21-16.08-12.67-40.38-19.17-69.12-22.93-43.12-4.45-94.1-1-140,2.74C1683.71,153,1711.77,103,1740.52,69.83c25-37.3-28.06-46.19-47.23-20.19-11,14-22.24,34.9-33.53,59.54C1645.05,142,1629,179,1611.51,216.29c-1.71,0-3.08.34-4.79.34l-62.28,6.16c-46.19,5.13-92,8.55-137.56,6.16-13.34-1-26.35-2.06-41.06-4.45-13.69-23.61-30.11-1-13.34,7.19,13.34,3.76,33.87,5.81,59.54,6.84,44.14,2.39,86.23,1,128.32-1.71l59.88-5.48c1.37,0,3.08-.34,4.79-.34-51.67,111.55-108.47,220.37-143.72,216.26-41.4-10.95,6.84-77.33-7.87-98.89-6.84-9.58-16.42-8.21-27-.34-32.51,24.29-74.26,106.08-78.36,111.55-4.45,5.48-4.11-2.05-4.11-4.1,1.71-30.8,36.27-99.92,44.49-127.64,4.79-15.06-15.75-23.95-30.46-6.84-7.16,8.54-14.18,23.31-20,40.34.29-.33.58-.66.85-1,9.24-13,25-6.5,11,8.55a191,191,0,0,1-19.7,19.92c-5.25,22.17-8,44.68-6.3,60.5,1,12.32,4.79,31.82,19.51,31.82,5.81,0,11-4.45,16.08-10.95,9.58-18.14,61.25-102.31,63.65-97.52,1,1,0,4.1-1,6.84-11,32.85-3.42,81.78,34.22,83.49,44.14,4.45,99.57-93.07,149.88-200.18-27.38,103.34-46.54,215.92-43.8,286.76,1,36.95,8.21,65.36,22.92,80.07,20.53,18.82,40.38.68,23.61-9.58-23.26-13.35-37-35.59-34.56-72.2C1580.71,448.63,1612.54,326.13,1653.6,224.5Z"/><path class="cls-3" d="M1857.21,360.35c-7.87,10.61-97.18,85.54-139.27,67.75-27.38-11-17.8-47.22-8.9-67.75,31.14,1,61.94-14.72,59.2-32.51-1-7.87-7.19-14.71-19.5-17.45-26-5.48-50.65,17.79-63.31,35.93-24,33.87-35.59,85.54,14,97.52,57.15,12.32,136.53-38.32,168-75.28C1881.85,353.16,1867.47,347.34,1857.21,360.35Zm-117.37-36.62c3.76,8.56-10.95,26.35-24.64,24.64C1729.91,321,1737.44,318.6,1739.84,323.73Z"/><path class="cls-3" d="M1783.3,269.33c8.21-10.27,10.26-29.09,0-32.85C1738.13,272.06,1731.28,326.81,1783.3,269.33Z"/></svg>