<?xml version="1.0" encoding="utf-8"?>
<!-- Generator: Adobe Illustrator 24.0.0, SVG Export Plug-In . SVG Version: 6.00 Build 0)  -->
<svg version="1.1" id="Capa_3" xmlns="http://www.w3.org/2000/svg" xmlns:xlink="http://www.w3.org/1999/xlink" x="0px" y="0px"
	 viewBox="0 0 1920 675" style="enable-background:new 0 0 1920 675;" xml:space="preserve">
<style type="text/css">
	.st0{fill:none;}
	.st1{fill:#9E5401;}
	.st2{fill:#FFC47F;}
	.st3{fill:#EB7463;}
	.st4{fill:#EA7363;}
</style>
<title>logo1</title>
<path class="st0" d="M206.6,312.5L206.6,312.5C207.3,313.5,206.9,313,206.6,312.5z"/>
<path class="st0" d="M301.9,380.8l-0.1,0.1C301.2,381.2,301.3,381.4,301.9,380.8z"/>
<path class="st0" d="M264,372.1l-1-0.8l0,0L264,372.1z"/>
<path class="st0" d="M262.9,371.3L262.9,371.3z"/>
<path class="st0" d="M236.2,348.3c1.3,1.3,2.6,2.6,3.9,3.9l0.2,0.2l0.1,0.1l1.8,1.8c2.4,2.3,4.8,4.5,7.3,6.6
	c4.3,3.7,8.8,7,13.3,10.4h0c0.4,0.3,1,0.7,1.3,0.9l1.8,1.1c1.1,0.7,2.2,1.4,3.3,2c2.3,1.3,4.6,2.6,6.9,3.7c0.3,0.1,0.6,0.3,0.9,0.4
	c-0.8-0.5-1.6-1,0.6,0.3c1,0.4,2,0.8,3.1,1.2s2.1,0.7,3.1,1s4.5,0.7,1.2,0.4c2,0.2,3.8,0.7,5.8,0.8c0.7,0,1.4,0,2.1,0h0.9
	c1.2-0.1,2.4-0.2,3.6-0.5c0.2,0,0.8-0.1,1.2-0.2l0.2-0.1c0.2-0.1,0.5-0.2,0.7-0.3c0.7-0.3,1.3-0.8,2-1.2l0.2-0.1l0.1-0.2
	c0.2-0.3,0.4-0.6,0.6-0.9c0.1-0.3,0.2-0.7,0.3-1c0-0.4-0.1-0.8-0.1-1.1l0,0c-0.2-0.5-0.4-1.1-0.5-1.6c0,0,0,0,0-0.1l-0.1-0.1
	c-0.3-0.6-0.6-1.2-1-1.8s-0.6-1-0.9-1.5l-0.4-0.6c-1.2-1.6-2.6-3.1-3.9-4.6c-0.6-0.6-1.2-1.2-1.8-1.8l-0.8-0.8
	c-3.8-3.5-7.9-6.8-12-9.9c-1.3-1-2.6-1.9-3.9-2.8l-1.9-1.3l-0.2-0.1l-0.4-0.2c-2.8-1.8-5.6-3.6-8.4-5.4c-3.8-2.4-7.6-4.7-11.6-6.7
	c-0.6-0.3-1.2-0.6-1.8-0.8l0,0c-1.3-0.5-2.5-1-3.8-1.5c-2.6-0.9-5.3-1.7-8-2.4l-0.8-0.2c-1.2,0-1.5-0.2-1.2-0.2
	c-0.3-0.1-0.6-0.2-0.8-0.2c-1.4-0.3-2.7-0.5-4.1-0.7c-3-0.5-6-0.8-9.1-0.9c-1.5-0.1-2.9-0.1-4.4-0.2l0.5,0.7
	C226.1,337.5,231,343,236.2,348.3z"/>
<path class="st0" d="M277.5,379.6l0.3,0.2l-0.1-0.1L277.5,379.6L277.5,379.6z"/>
<path class="st0" d="M371.2,124.3c0-0.1,0-0.1,0-0.2l0.1,0.7C371.3,124.6,371.2,124.4,371.2,124.3z"/>
<path class="st0" d="M302.1,380.7c-0.1,0-0.2,0.1-0.2,0.1l0,0C301.9,380.7,302,380.7,302.1,380.7z"/>
<path class="st0" d="M371.3,124.7c0,0.1,0,0.2,0,0.2c0,0,0,0.1,0,0.2C371.3,125,371.3,124.9,371.3,124.7z"/>
<path class="st0" d="M240.5,333.3L240.5,333.3z"/>
<path class="st0" d="M239.8,333.2c-0.2,0-0.4-0.1-0.6-0.1c0.4,0.1,0.8,0.2,1.2,0.2L239.8,333.2z"/>
<path class="st0" d="M293.3,44.7h0.8C293.8,44.6,293.6,44.6,293.3,44.7z"/>
<path class="st0" d="M1739.8,323.7c-2.4-5.1-9.9-2.7-24.6,24.6C1728.9,350.1,1743.6,332.3,1739.8,323.7z"/>
<path class="st1" d="M301.9,380.8L301.9,380.8l-0.2,0.1L301.9,380.8z"/>
<path class="st1" d="M371.2,124.1c-0.1-0.5-0.3-0.8,0.2,0.9c0-0.1,0-0.2,0-0.2L371.2,124.1z"/>
<path class="st1" d="M312.1,46.5"/>
<path class="st1" d="M333.6,55.9C332.7,55.3,331.3,54.5,333.6,55.9z"/>
<path class="st1" d="M240.4,333.3L240.4,333.3c-0.4,0-0.8-0.1-1.2-0.2C238.9,333.1,239.2,333.4,240.4,333.3z"/>
<path class="st1" d="M262.9,371.3L262.9,371.3L262.9,371.3L262.9,371.3z"/>
<path class="st2" d="M418.8,473.6c-0.6-0.9-1.1-1.9-1.6-2.9C417.7,471.7,418.2,472.7,418.8,473.6z"/>
<path class="st2" d="M417.1,470.5c-0.2-0.5-0.4-0.9-0.6-1.4C416.6,469.6,416.8,470,417.1,470.5z"/>
<path class="st2" d="M419.8,475c-0.3-0.4-0.5-0.7-0.8-1.1C419.3,474.3,419.5,474.7,419.8,475z"/>
<path class="st2" d="M423.5,478.6c-0.4-0.3-0.8-0.6-1.2-0.9C422.7,478,423.1,478.3,423.5,478.6z"/>
<path class="st2" d="M427.9,480.7c-0.5-0.1-1-0.3-1.4-0.5C427,480.4,427.4,480.5,427.9,480.7z"/>
<path class="st2" d="M429.5,481c-0.4-0.1-0.8-0.1-1.2-0.2C428.7,480.9,429.1,480.9,429.5,481z"/>
<path class="st2" d="M426.2,480.1c-0.4-0.1-0.7-0.3-1.1-0.5C425.5,479.8,425.8,480,426.2,480.1z"/>
<path class="st2" d="M424.8,479.4c-0.4-0.2-0.8-0.5-1.2-0.7C423.9,478.9,424.3,479.2,424.8,479.4z"/>
<path class="st2" d="M420.9,476.4c-0.4-0.4-0.7-0.8-1-1.2C420.3,475.6,420.6,476,420.9,476.4z"/>
<path class="st2" d="M422,477.5c-0.3-0.3-0.6-0.6-0.9-0.9C421.4,476.9,421.7,477.2,422,477.5z"/>
<path class="st2" d="M431.6,481.1c-0.5,0-1.1-0.1-1.6-0.1C430.5,481.1,431.1,481.1,431.6,481.1z"/>
<path class="st2" d="M415.8,467.6c0.2,0.4,0.4,0.9,0.5,1.3C416.2,468.5,416,468,415.8,467.6L415.8,467.6z"/>
<path class="st2" d="M415,465.4c-0.4-1.2-0.7-2.4-1-3.6C414.4,463,414.7,464.2,415,465.4z"/>
<path class="st2" d="M415.1,465.5c0.2,0.7,0.5,1.4,0.7,2.1l0,0C415.6,466.9,415.3,466.2,415.1,465.5z"/>
<path class="st0" d="M433.8,461.5L433.8,461.5c0.1,0,0.1,0,0.2,0h0h0.2h0.1l0.2-0.1l0.1,0l0.2-0.1l0.1-0.1l0.2-0.2
	c0,0,0.1-0.1,0.1-0.1c0.1-0.1,0.2-0.1,0.2-0.2l0.1-0.1l0.3-0.3c0,0,0.1-0.1,0.1-0.1c0.1-0.2,0.3-0.3,0.4-0.5l-3.8,0.4
	C432.8,460.8,433.2,461.5,433.8,461.5z"/>
<path class="st2" d="M434,461.5L434,461.5z"/>
<path class="st2" d="M435.2,460.8c0,0-0.1,0.1-0.1,0.1C435.2,460.9,435.2,460.9,435.2,460.8z"/>
<path class="st2" d="M434.6,461.3l-0.1,0L434.6,461.3z"/>
<path class="st2" d="M434.3,461.4L434.3,461.4L434.3,461.4z"/>
<path class="st2" d="M435.6,460.5l-0.1,0.1L435.6,460.5z"/>
<path class="st2" d="M436,460.1c0,0-0.1,0.1-0.1,0.1C435.9,460.2,436,460.1,436,460.1z"/>
<path class="st2" d="M433.8,461.5L433.8,461.5z"/>
<path class="st2" d="M434.9,461.1l-0.1,0.1L434.9,461.1z"/>
<path class="st2" d="M419,473.9l-0.2-0.3L419,473.9z"/>
<path class="st2" d="M417.2,470.7l-0.1-0.2L417.2,470.7z"/>
<path class="st2" d="M416.4,469.1c0-0.1-0.1-0.1-0.1-0.2C416.4,469,416.4,469,416.4,469.1z"/>
<path class="st2" d="M426.5,480.2l-0.3-0.1L426.5,480.2z"/>
<path class="st2" d="M428.3,480.8l-0.4-0.1L428.3,480.8z"/>
<path class="st2" d="M425.1,479.6l-0.4-0.2L425.1,479.6z"/>
<path class="st2" d="M430,481l-0.5-0.1L430,481z"/>
<path class="st2" d="M422.3,477.7l-0.3-0.2L422.3,477.7z"/>
<path class="st2" d="M423.5,478.7L423.5,478.7L423.5,478.7z"/>
<path class="st2" d="M421.2,476.6l-0.2-0.2L421.2,476.6z"/>
<path class="st2" d="M419.9,475.2l-0.1-0.2L419.9,475.2z"/>
<path class="st2" d="M435.1,460.9l-0.2,0.2L435.1,460.9z"/>
<path class="st2" d="M434.8,461.2l-0.2,0.1L434.8,461.2z"/>
<path class="st2" d="M434.5,461.4l-0.2,0.1L434.5,461.4z"/>
<path class="st2" d="M433.8,461.5c-0.6-0.1-1-0.7-1.1-1.6l0,0C432.8,460.8,433.2,461.5,433.8,461.5z"/>
<path class="st2" d="M434,461.5c-0.1,0-0.1,0-0.2,0C433.9,461.5,433.9,461.5,434,461.5z"/>
<path class="st2" d="M434.2,461.5H434H434.2z"/>
<path class="st2" d="M435.9,460.2l-0.3,0.3L435.9,460.2z"/>
<path class="st2" d="M436.4,459.6c-0.1,0.2-0.3,0.3-0.4,0.5C436.1,459.9,436.3,459.8,436.4,459.6z"/>
<path class="st2" d="M435.5,460.6c-0.1,0.1-0.1,0.1-0.2,0.2C435.3,460.8,435.4,460.7,435.5,460.6z"/>
<path class="st2" d="M415.1,465.5l-0.1-0.2L415.1,465.5z"/>
<polygon class="st2" points="414.1,461.8 414.1,461.8 414.1,461.8 "/>
<g>
	<path class="st1" d="M477.5,324.3c-0.1,1.2-0.3,2.3-0.7,3.4c-0.4,1.3-0.8,2.6-1.3,4l4.7-3.2c8.3-5.7,15.1-12.9,20.4-21.5
		c4.1-6.9,6-13.7,5.8-20.4c-0.2-8.1-5.8-17.2-10.6-22.5c-6.5-7.3-15.8-13-27.7-17c-3.9-1.3-9.3-3.1-14.9-3.2c-4.4,0-7.7,1.4-9.7,4.2
		c-4.3,6.2-0.1,14.3,2.1,18.6l0.2,0.3c0.6,1.2,6.3,11.7,14.3,14.1c2.5,0.7,6.6,2,9-1.2l2.1-2.9l-2-2.9l-0.1-0.1
		c-3.9-5.4-7.5-11-7.9-16.1c0-0.1,0-0.3,0-0.4c0.3-0.1,0.7-0.1,1.5-0.1c0.9,0.1,1.8,0.3,2.7,0.5c0.1,0,0.3,0.1,0.4,0.1
		c0,0,0.1,0,0.1,0c0.3,0.2,0.7,0.3,1,0.5c0.6,0.3,1.1,0.6,1.8,0.9c3.2,1.8,6.2,3.9,8.8,6.4c2.9,2.7,6.5,7.2,7.4,13.1
		c0.6,4.6-0.2,9.3-2.2,13.6c-3.2,6.7-7.8,12.8-13.6,17.6l-2,1.6c1.9,0.4,3.7,1.1,5.1,2.1C475.9,316.3,477.9,320.2,477.5,324.3z"/>
	<path class="st0" d="M948,177.6c-21.9,35.2-41.4,82.5-57.5,128.7c25.7-36.9,55.4-83.1,75.3-122.8
		C994.2,127.6,979.1,128.3,948,177.6z"/>
	<path class="st0" d="M243.4,348.5l2.1,2c2.3,2.2,4.7,4.4,7.1,6.4c4.2,3.6,8.7,6.9,13,10.1l0,0l0.4,0.3c0.3,0.2,0.6,0.4,0.8,0.5
		l1.7,1.1c0.9,0.6,1.9,1.2,3.1,1.9c1.9,1.1,3.7,2.1,5.5,3c1.1,0.3,2.1,0.9,3,1.4l0,0c0.8,0.3,1.4,0.6,2.1,0.8c0.5,0.2,1,0.3,1.4,0.5
		c0.5,0.2,1.1,0.3,1.7,0.5c0.1,0,0.5,0.1,1.5,0.3c0.3,0,0.6,0.1,0.9,0.2c0.2,0,0.4,0.1,0.6,0.1c1,0.2,1.9,0.3,2.8,0.4
		c0.6,0,1.2,0,1.8,0h0.7c1-0.1,1.9-0.2,2.9-0.4c0.2,0,0.4-0.1,0.6-0.1c0,0,0.1,0,0.1,0c0.1,0,0.1,0,0.2-0.1
		c-0.2-0.3-0.3-0.6-0.5-0.8l-1.1-1.7c-1-1.3-2.2-2.7-3.6-4.2c-0.2-0.2-0.5-0.5-0.7-0.7c-0.3-0.3-0.6-0.6-0.9-1l-0.7-0.7
		c-3.7-3.4-7.6-6.6-11.6-9.5c-1.3-1-2.6-1.9-3.8-2.8l-2.3-1.6c-3-2-5.7-3.7-8.3-5.3c-4-2.5-7.6-4.6-11.3-6.5
		c-0.4-0.2-0.8-0.4-1.1-0.5l-0.4-0.2c-0.5-0.2-1-0.4-1.5-0.6c-0.7-0.3-1.4-0.6-2.1-0.8c-2.4-0.9-4.9-1.6-7.5-2.3l-1-0.2l-0.3,0
		l-0.8-0.2c-0.2,0-0.3-0.1-0.5-0.1c-1.1-0.2-2.4-0.4-3.8-0.6c-0.4-0.1-0.7-0.1-1.1-0.2c2.3,2.6,4.7,5.2,7.1,7.7
		C240.9,346,242.2,347.2,243.4,348.5z"/>
	<path class="st1" d="M417.1,470.4c-0.2-0.5-0.4-0.9-0.6-1.4c0-0.1-0.1-0.1-0.1-0.2c-0.2-0.4-0.3-0.8-0.5-1.3c0,0,0,0,0,0
		c-0.2-0.7-0.5-1.3-0.7-2l-0.1-0.2c-0.4-1.2-0.7-2.4-1-3.6l0,0l0-0.1c-1-4.1-1.6-8.3-1.9-12.4c-0.7-7.8-0.7-15.6,0.1-23.3
		c0.5-6.4,1.5-13.1,2.7-20l-7.3,18.3c-8.2,20.6-15.5,37.3-22.8,52.8c-1.4,3.1-3,6.2-4.5,9.2c-0.7,1.4-1.4,2.8-2,4.1
		c-23.5,48-94.6,110.8-127.1,118.8c-5,1.2-8.9,2.7-12.8,4.2c-3.6,1.4-7,2.6-11.3,3.7c-8.4,2.1-17.1,3.8-25.7,5
		c-8.2,1.1-16.8,1.9-25.8,2.2c-2.1,0.1-4.1,0.1-6.2,0.2h-5.7c-4.6,0-9.3,0-14-0.3c-3.5-0.2-12-1.4-15.7-2c-1.2-0.2-1.8-0.3-2.2-0.3
		l-2.2-0.5c-2.5-0.6-5.1-1.4-7.6-2.3c-2.1-0.7-4.2-1.5-6.5-2.4c-0.2-0.1-0.8-0.3-1.2-0.5c-0.3-0.1-0.6-0.3-0.8-0.3l-0.2-0.1
		c-1-0.5-2-0.9-3-1.4l-1.2-0.6c-3.9-1.9-7.8-3.9-10.8-6.3c0,0,0,0,0,0c0,0,0,0,0,0l0,0c-0.2-0.1-0.3-0.3-0.5-0.4
		c-0.5-0.4-0.9-0.7-1.2-0.9c-1-0.7-1.9-1.4-2.9-2.1c-1.9-1.5-3.7-3-5.5-4.5c-0.9-0.8-1.8-1.6-2.7-2.4l-0.4-0.4
		c-0.1-0.1-0.2-0.2-0.4-0.4c-0.1-0.1-0.3-0.3-0.4-0.4c-1.7-1.8-3.4-3.6-5.1-5.5c-1.3-1.5-5-6.3-6.2-7.9l-0.2-0.3
		c-0.2-0.3-0.4-0.5-0.5-0.8c-0.3-0.4-0.6-0.8-0.8-1.2l-0.1-0.1c-2.6-4-5-8.2-7.1-12.5c-0.2-0.4-0.4-0.8-0.6-1.2l-0.2-0.5
		c-0.1-0.2-0.2-0.5-0.3-0.7c-0.4-0.9-0.8-1.8-1.1-2.7c-0.9-2.2-1.7-4.5-2.5-6.8c-0.7-2.3-1.4-4.6-2-7c-0.3-1.2-0.6-2.4-0.8-3.6
		l-0.3-1.3c-0.1-0.4-0.1-0.8-0.3-1.5c-1.5-8.5-2.2-18.1-1.9-30.4c0.1-4.8,0.3-9.7,0.7-14.6c0.1-1.2,0.2-2.3,0.3-3.5l0.1-0.6
		c0.1-0.6,0.1-1.2,0.2-1.8c0.3-2.3,0.6-4.6,1-6.8c1.4-8.9,3.5-17.8,6.3-26.4c2.6-8.2,5.8-16.2,9.6-24c0.4-0.8,0.8-1.6,1.2-2.4
		l0.2-0.4c0.1-0.2,0.2-0.4,0.3-0.7c0.3-0.5,0.7-1.1,0.9-1.8c0.3-0.5,0.7-1.2,1.1-1.9c0.5-1,1.1-2,1.6-2.8c2-3.5,4.2-6.9,6.4-10.3
		c8.8-13.2,19.4-25.1,31.3-35.6c0.9-0.8,1.7-1.5,2.6-2.2c0.6-0.5,1.2-1,1.8-1.5l3.4-2.7c3-2.3,6.1-4.6,9.3-6.7
		c6.1-4.1,12.5-7.9,19-11.3c6.2-3.2,12.7-6.1,19.3-8.6c1.6-0.6,3.2-1.2,4.8-1.7l3.6-1.1c3.3-1,6.6-1.9,9.9-2.6
		c4.2-1,8.5-1.8,12.8-2.4c2.5,3,4.7,5.8,6.9,8.3c14.7,17,37.5,41.1,66.6,53.4c1.1,0.5,2.3,0.9,3.4,1.4l-0.1,0.1l0.1-0.1
		c11.9,4.4,23.6,5,33.1,1.7c6.8-2.3,11.4-7.5,12.5-13.7c0.6-3.7,0.3-7.3-0.7-10.6l-0.7-2.2c-1.6-4.2-4.1-8.1-6.4-11.3
		c-6.5-8.9-14.9-16-21.5-21.1c-10.1-7.9-21-15.1-32.3-21.2c-12.2-6.4-25.4-10.2-39.1-11.3c-4.3-0.4-8.7-0.6-13-0.6v0l-9.4-14.2
		c-1.1-1.7-2-3.2-2.6-4c-4.2-6.8-8.1-13.9-11.8-21c-1.8-3.6-3.6-7.2-5.3-10.8c-0.8-1.6-1.5-3.2-2.2-4.8l-0.9-2
		c-0.4-0.9-0.8-1.8-1.1-2.7l-0.1-0.3c-6.1-14.5-10.9-29.7-14.1-45.1c-0.1-0.6-0.2-1.2-0.4-1.8l-0.1-0.3c0,0,0-0.2-0.1-0.4
		c0-0.3-0.1-0.6-0.2-1l-0.1-0.7c-0.3-1.8-0.6-3.7-0.9-5.8c-0.5-3.8-0.9-7.6-1.2-11.3c-0.5-7.2-0.5-14.4,0-21.6
		c0.1-0.9,0.1-1.7,0.2-2.6l0-0.5c0-0.2,0.1-0.4,0.1-0.7l0.1-1.2c0.2-1.4,0.4-2.8,0.6-4.2c0.6-3.4,1.3-6.8,2.2-10.1
		c1.8-6.8,4.3-13.5,7.4-19.8l0.1-0.2c0.2-0.3,0.3-0.6,0.5-0.9l0.1-0.2c0.4-0.7,0.7-1.3,1.1-2c0.9-1.6,1.9-3.2,2.9-4.7
		c1.9-3,4-5.9,6.2-8.6c2.3-2.8,4.8-5.6,7.3-8.2c1.3-1.3,2.7-2.7,4.1-3.9c0.7-0.6,1.4-1.2,2.1-1.9l2-1.7c1.3-1,2.7-2.5,4.3-4
		c2.2-2.1,4.7-4.5,6.5-5.8c3.9-2.6,8-5.2,12-7.7c7.3-4.4,14.8-8.6,22.5-12.2c3.1-1.4,31.9-9.4,38.4-10.5c3-0.5,5.8-0.8,8.6-1
		c1-0.1,1.9-0.1,2.9-0.2l1.2-0.1h2.6c2.7,0.1,5.3,0.3,7.8,0.6c1,0.1,2.1,0.3,3.2,0.5l1.8,0.3c0.3,0.1,0.7,0.2,1,0.3l0,0
		c1,0.3,1.9,0.5,2.8,0.8c1.2,0.3,2.3,0.6,3.3,0.9c1.1,0.4,2.1,0.7,3.2,1.2l1.5,0.6c2.2,1,4.1,2,5.8,3c0.9,0.5,1.8,1.1,2.7,1.7
		c0.2,0.1,0.5,0.3,0.7,0.5c0.1,0.1,0.2,0.1,0.2,0.2l0,0l0.2,0.2c1.7,1.2,3.4,2.6,5.1,4.1c0.8,0.7,1.5,1.3,2.2,2l1,1
		c1.5,1.6,3.1,3.3,4.5,5.1c0.6,0.8,1.3,1.6,2.1,2.7c0.1,0.2,0.3,0.4,0.4,0.5c0.2,0.3,0.4,0.6,0.6,0.8c2.6,3.9,5,7.9,7.2,12.1
		c0.4,0.7,0.8,1.6,1.2,2.4l0.3,0.6c0.2,0.4,0.4,0.9,0.7,1.4c0.2,0.4,0.6,1.4,0.6,1.5l0,0c0.2,0.5,0.4,1,0.6,1.4
		c0.6,1.4,1.1,2.7,1.6,4.1c1.7,4.7,3.3,9.5,4.5,14.3c0.6,2.3,1.2,4.8,1.8,7.4c0.2,0.9,0.4,1.9,0.6,2.9c0,0.5,0.1,0.9,0.1,1.1
		c0,0.3,0.1,0.6,0.2,0.9l0.1,0.9c1.6,9.8,2.4,19.9,2.3,29.9c0,4.7-0.3,9.5-0.7,14.1l-0.2,1.8l0,0.5c-0.1,1-0.3,2.1-0.4,3.1
		c-0.3,2.2-0.7,4.5-1.1,6.8c-1.5,7.9-3.9,15.7-7.2,22.9c-0.2,0.5-0.5,0.9-0.7,1.4c-0.1,0.3-0.3,0.6-0.4,0.9l-0.1,0.2
		c-0.1,0.3-0.3,0.5-0.4,0.8c-0.9,1.5-1.8,2.9-2.7,4.3c-1.7,2.4-3.7,4.7-5.9,6.7l-0.1,0.1c-0.1,0.1-0.2,0.2-0.3,0.3l0,0
		c-0.1,0.1-0.3,0.2-0.4,0.3c-0.3,0.2-0.6,0.4-0.9,0.6c-0.6,0.4-1.2,0.8-1.9,1.2c-1,0.2-2,0.5-2.9,0.8c-6.4,2.1-11.8,6.2-15.1,11.6
		c-3.5,5.7-4.4,12-2.4,17.9c3.9,11.7,18,17.7,31.5,13.3c2.8-0.9,5.5-2.3,7.9-4c9.2-5.1,17.2-14.5,23.1-27.4
		c7.2-15.8,10.8-35.4,10.8-58.4c-0.1-22-5.9-61-14.2-81.7c-9.8-24.4-24.3-43.3-43.2-56c-19.8-13.4-36.9-24.9-71.6-21.8
		c-16.3,1.5-36.5,7-50.4,13.7c-17.9,8.7-31.3,18.7-45.8,31.1c-14.5,12.3-23.6,30-29.2,42.2c-6.6,14.4-9.9,37.7-10.9,54.6
		c-1.6,30,5.3,63.1,20.8,98.4c8.3,18.9,18.3,37.2,29.8,54.4c-21.6,2.9-42.8,8.8-57.9,16.2c-30.3,15-56.5,37.5-75.7,65.3
		c-22.5,33-32.9,73-29.3,112.8c1.7,18.2,5.1,44.9,14.9,66.5c9.6,20.8,24.4,39,42.9,52.6c17.1,12.5,42.3,21.3,69.1,24.1
		c6.4,0.6,12.7,0.8,19.2,0.8c3.9,0,7.8-0.1,11.7-0.2c10-0.2,19.2-0.8,28.2-1.8c38.8-4.3,76.1-18.7,107.7-41.6
		c18.1-13.2,35.7-29.7,52.3-49c8.9-10.3,17.6-21.5,26.6-34.1c2.8-3.9,9.2-16.2,9.3-16.3c2.1-4.1,4.4-8.7,6.9-13.9
		c3.2-6.6,6.2-13.3,9.2-20c-0.6-0.9-1.1-1.8-1.5-2.7L417.1,470.4z M233.6,337.2c1.5,0.2,2.7,0.4,3.8,0.6c0.1,0,0.3,0.1,0.5,0.1
		l0.8,0.2l0.3,0l1,0.2c2.6,0.7,5.2,1.4,7.5,2.3c0.7,0.2,1.4,0.5,2.1,0.8c0.5,0.2,1,0.4,1.5,0.6l0.4,0.2c0.4,0.2,0.8,0.4,1.1,0.5
		c3.7,1.8,7.3,4,11.3,6.5c2.6,1.6,5.3,3.3,8.3,5.3l2.3,1.6c1.3,0.9,2.5,1.8,3.8,2.8c4,3,7.9,6.2,11.6,9.5l0.7,0.7
		c0.3,0.3,0.6,0.6,0.9,1c0.2,0.3,0.5,0.5,0.7,0.7c1.4,1.5,2.6,2.9,3.6,4.2l1.1,1.7c0.1,0.2,0.3,0.5,0.5,0.8c-0.1,0-0.1,0-0.2,0.1
		c0,0-0.1,0-0.1,0c-0.2,0-0.4,0.1-0.6,0.1c-0.9,0.2-1.9,0.3-2.9,0.4h-0.7c-0.6,0-1.2,0-1.8,0c-0.9,0-1.8-0.2-2.8-0.4
		c-0.2,0-0.4-0.1-0.6-0.1c-0.3-0.1-0.5-0.1-0.9-0.2c-1-0.2-1.4-0.2-1.5-0.3c-0.6-0.2-1.1-0.4-1.7-0.5c-0.5-0.1-1-0.3-1.4-0.5
		c-0.7-0.2-1.3-0.5-2.1-0.8l0,0c-0.9-0.6-1.9-1.2-3-1.4c-1.8-0.9-3.6-1.9-5.5-3c-1.2-0.7-2.2-1.3-3.1-1.9l-1.7-1.1
		c-0.2-0.1-0.5-0.3-0.8-0.5l-0.4-0.3l0,0c-4.3-3.2-8.8-6.5-13-10.1c-2.4-2.1-4.8-4.3-7.1-6.4l-2.1-2c-1.3-1.3-2.5-2.5-3.8-3.8
		c-2.4-2.5-4.8-5.1-7.1-7.7C232.9,337.1,233.3,337.1,233.6,337.2z"/>
	<path class="st3" d="M1867.1,231.7c-16.1-12.7-40.4-19.2-69.1-22.9c-43.1-4.5-94.1-1-140,2.7c24.7-58.5,52.8-108.5,81.5-141.7
		c25-37.3-28.1-46.2-47.2-20.2c-11,14-22.2,34.9-33.5,59.5c-14.7,32.8-30.8,69.8-48.2,107.1c-1.7,0-3.1,0.3-4.8,0.3l-62.3,6.2
		c-46.2,5.1-92,8.5-137.6,6.2c-13.3-1-26.3-2.1-41.1-4.5c-13.7-23.6-30.1-1-13.3,7.2c13.3,3.8,33.9,5.8,59.5,6.8
		c44.1,2.4,86.2,1,128.3-1.7l59.9-5.5c1.4,0,3.1-0.3,4.8-0.3c-51.7,111.5-108.5,220.4-143.7,216.3c-41.4-11,6.8-77.3-7.9-98.9
		c-6.8-9.6-16.4-8.2-27-0.3c-32.5,24.3-74.3,106.1-78.4,111.6c-4.4,5.5-4.1-2-4.1-4.1c1.7-30.8,36.3-99.9,44.5-127.6
		c4.8-15.1-15.8-24-30.5-6.8c-7.1,8.5-14.1,23.2-19.9,40.2c-0.1,0.1-0.1,0.1-0.2,0.2c0,0,0,0.1,0,0.1
		c-25.2,29.3-87.4,67.3-119.9,60.2c-19.2-4.5-28.4-24.3-13-70.8c4.8-15.1-14-22.2-30.5-6.9c-6.8,6.9-64.3,70.5-69.8,62.3
		c-4.8-6.5,2-24.6,4.8-30.8c12.7-31.1,45.5-63.3,73.6-60.6c11,1,20.9,6.8,27.4,18.8c6.5,16.4,26,12.7,18.8-2.7
		c-7.9-16.4-24-24.3-41.4-26.7c-44.3-6.4-88.3,18.9-109,56.7l0,0c-0.6,1-1.1,2-1.6,3c-25.9,30.2-86.5,86.4-117.7,78.5
		c-19.2-4.5-21.9-35.2-6.8-82.1c3.8-12-8.6-19.8-21.2-13.3c-30.5,13.7-62.3,67.1-77,93.4c2.7-13.7,10.3-48.6,23.3-91
		c39-48.6,116-156.7,127.3-216.6c8.2-44.8-25-45.5-47.9-23.6c-55.7,53.3-88,162.5-104.5,251.3c-8.7,11.3-97.3,85.3-139.2,67.6
		c-11-4.5-16.8-14.4-18.1-25c-2.7-31.5,24-81.1,52.7-91.4c7.2-2.4,13.3,0,14.7,10.6c-1,17.5,18.1,20.5,18.1,4.5
		c-3.8-17.5-14-26.7-26.7-26.3c-35.7,1.1-66.3,29.5-82.2,60.8c0,0,0,0,0,0c-24.6,29.5-87.9,89.4-120,81.3
		c-41.7-9.6,5.5-72.5-9.2-94.1c-6.8-9.6-16.4-8.2-27-0.3c-32.5,24.3-74.2,106.1-78.4,111.6c-0.1,0.2-0.3,0.3-0.4,0.5
		c0,0-0.1,0.1-0.1,0.1l-0.3,0.3l-0.1,0.1c-0.1,0.1-0.1,0.1-0.2,0.2c0,0-0.1,0.1-0.1,0.1l-0.2,0.2l-0.1,0.1l-0.2,0.1l-0.1,0l-0.2,0.1
		h-0.1h-0.2H434c-0.1,0-0.1,0-0.2,0c-0.6-0.1-1-0.7-1.2-1.6c-0.3-1.5-0.3-3-0.3-4.5c1.6-29.4,33.2-93.7,43.2-123.6
		c0.5-1.4,0.9-2.8,1.3-4c0.4-1.1,0.6-2.3,0.7-3.4c0.4-4.1-1.6-8.1-5-10.3c-1.5-1-3.2-1.7-5.1-2.1c-6.2-1.2-14.2,1.1-21,9
		c-13.1,15.6-25.7,52-31.4,85c-1.2,6.9-2.1,13.6-2.7,20c-0.8,7.8-0.8,15.6-0.1,23.3c0.3,4.2,1,8.3,1.9,12.4l0,0.1l0,0
		c0.3,1.2,0.6,2.4,1,3.6l0.1,0.2c0.2,0.7,0.5,1.4,0.7,2c0,0,0,0,0,0c0.2,0.4,0.3,0.9,0.5,1.3c0,0.1,0,0.1,0.1,0.2
		c0.2,0.5,0.4,0.9,0.6,1.4l0.1,0.2c0.5,0.9,1,1.8,1.5,2.7c0,0,0.1,0.1,0.1,0.1l0.2,0.3c0.3,0.4,0.5,0.8,0.8,1.1l0.1,0.2
		c0.3,0.4,0.7,0.8,1,1.2l0.2,0.2c0.3,0.3,0.6,0.6,0.9,0.8l0.3,0.2c0.4,0.3,0.8,0.6,1.2,0.9h0.1c0.4,0.3,0.8,0.5,1.2,0.7l0.4,0.2
		c0.3,0.2,0.7,0.3,1.1,0.5l0.3,0.1c0.5,0.2,0.9,0.3,1.4,0.5l0.4,0.1c0.4,0.1,0.8,0.2,1.2,0.2l0.5,0.1c0.6,0.1,1.1,0.1,1.7,0.1
		c5.8,0,11-4.5,16.1-11c9.6-18.1,61.2-102.3,63.7-97.5c1,1,0,4.1-1,6.8c-11,33.2-3.4,73.2,34.2,77c39.7,4.3,83.9-30.4,115.8-62.9
		c0,0,0,0,0,0c0,0,0,0,0,0c-0.7,4.4-1,8.9-0.8,13.3c1,22.2,15.7,32.5,34.6,37c49.8,10.7,116.5-26.4,153.7-60.5c0,0,0,0,0,0
		c0,0,0,0,0,0c-7,43.2-10,79.3-10,98.2c0,21.9,14,16.8,14,9.6c1.4-5.5,3.1-10.6,4.8-15.7c9.2-25.7,33.2-78.7,55.8-98.5
		c9.2-8.5,7.2-2.7,5.5,2.7c-11,33.2-3.4,73.2,34.2,77c39.2,4.3,82.8-29.6,114.6-61.7c-0.1,0.6-0.2,1.3-0.3,1.8
		c-1.7,14,1,29.1,12,34.6c36.9,19.2,81.4-60.2,96.2-72.2c-19.2,37.3-5.1,72.9,35.9,76.6c40.9,4.5,86.5-18.7,118.5-46.8c0,0,0,0,0,0
		c0.1,0,0.1,0,0.1,0c-5.2,22.2-8,44.7-6.3,60.5c1,12.3,4.8,31.8,19.5,31.8c5.8,0,11-4.5,16.1-11c9.6-18.1,61.2-102.3,63.7-97.5
		c1,1,0,4.1-1,6.8c-11,32.9-3.4,81.8,34.2,83.5c44.1,4.5,99.6-93.1,149.9-200.2c-27.4,103.3-46.5,215.9-43.8,286.8
		c1,37,8.2,65.4,22.9,80.1c20.5,18.8,40.4,0.7,23.6-9.6c-23.3-13.3-37-35.6-34.6-72.2c6.4-99.2,38.2-221.7,79.3-323.4
		c49.6-6.5,103.7-12.7,143-8.9c24.6,2.7,43.1,9.6,49.6,24.3C1854.5,260.4,1879.1,241.6,1867.1,231.7z M948,177.6
		c31.1-49.3,46.2-50,17.8,5.8c-19.8,39.7-49.6,85.9-75.3,122.8C906.6,260.1,926.1,212.9,948,177.6z"/>
</g>
<path class="st4" d="M1856.2,360.3c-7.9,10.6-97.2,85.5-139.3,67.8c-27.4-11-17.8-47.2-8.9-67.8c31.1,1,61.9-14.7,59.2-32.5
	c-1-7.9-7.2-14.7-19.5-17.5c-26-5.5-50.7,17.8-63.3,35.9c-24,33.9-35.6,85.5,14,97.5c57.2,12.3,136.5-38.3,168-75.3
	C1880.8,353.2,1866.5,347.3,1856.2,360.3z M1738.8,323.7c3.8,8.6-10.9,26.4-24.6,24.6C1728.9,321,1736.4,318.6,1738.8,323.7z"/>
<path class="st4" d="M1782.3,269.3c8.2-10.3,10.3-29.1,0-32.9C1737.1,272.1,1730.3,326.8,1782.3,269.3z"/>
</svg>
