<?xml version="1.0" encoding="utf-8"?>
<!-- Generator: Adobe Illustrator 24.0.0, SVG Export Plug-In . SVG Version: 6.00 Build 0)  -->
<svg version="1.1" id="Capa_3" xmlns="http://www.w3.org/2000/svg" xmlns:xlink="http://www.w3.org/1999/xlink" x="0px" y="0px"
	 viewBox="0 0 1920 675" style="enable-background:new 0 0 1920 675;" xml:space="preserve">
<style type="text/css">
	.st0{fill:none;}
	.st1{fill:#9E5401;}
	.st2{fill:#FFC47F;}
	.st3{fill:#EB7463;}
	.st4{fill:#EA7363;}
</style>
<title>logo1</title>
<path class="st0" d="M206.6,312.5L206.6,312.5C207.3,313.5,206.9,313,206.6,312.5z"/>
<path class="st0" d="M301.9,380.8l-0.1,0.1C301.2,381.2,301.3,381.4,301.9,380.8z"/>
<path class="st0" d="M264,372.1l-1-0.8l0,0L264,372.1z"/>
<path class="st0" d="M262.9,371.3L262.9,371.3z"/>
<path class="st0" d="M236.2,348.3c1.3,1.3,2.6,2.6,3.9,3.9l0.2,0.2l0.1,0.1l1.8,1.8c2.4,2.3,4.8,4.5,7.3,6.6
	c4.3,3.7,8.8,7,13.3,10.4h0c0.4,0.3,1,0.7,1.3,0.9l1.8,1.1c1.1,0.7,2.2,1.4,3.3,2c2.3,1.3,4.6,2.6,6.9,3.7c0.3,0.1,0.6,0.3,0.9,0.4
	c-0.8-0.5-1.6-1,0.6,0.3c1,0.4,2,0.8,3.1,1.2s2.1,0.7,3.1,1s4.5,0.7,1.2,0.4c2,0.2,3.8,0.7,5.8,0.8c0.7,0,1.4,0,2.1,0h0.9
	c1.2-0.1,2.4-0.2,3.6-0.5c0.2,0,0.8-0.1,1.2-0.2l0.2-0.1c0.2-0.1,0.5-0.2,0.7-0.3c0.7-0.3,1.3-0.8,2-1.2l0.2-0.1l0.1-0.2
	c0.2-0.3,0.4-0.6,0.6-0.9c0.1-0.3,0.2-0.7,0.3-1c0-0.4-0.1-0.8-0.1-1.1l0,0c-0.2-0.5-0.4-1.1-0.5-1.6c0,0,0,0,0-0.1l-0.1-0.1
	c-0.3-0.6-0.6-1.2-1-1.8s-0.6-1-0.9-1.5l-0.4-0.6c-1.2-1.6-2.6-3.1-3.9-4.6c-0.6-0.6-1.2-1.2-1.8-1.8l-0.8-0.8
	c-3.8-3.5-7.9-6.8-12-9.9c-1.3-1-2.6-1.9-3.9-2.8l-1.9-1.3l-0.2-0.1l-0.4-0.2c-2.8-1.8-5.6-3.6-8.4-5.4c-3.8-2.4-7.6-4.7-11.6-6.7
	c-0.6-0.3-1.2-0.6-1.8-0.8l0,0c-1.3-0.5-2.5-1-3.8-1.5c-2.6-0.9-5.3-1.7-8-2.4l-0.8-0.2c-1.2,0-1.5-0.2-1.2-0.2
	c-0.3-0.1-0.6-0.2-0.8-0.2c-1.4-0.3-2.7-0.5-4.1-0.7c-3-0.5-6-0.8-9.1-0.9c-1.5-0.1-2.9-0.1-4.4-0.2l0.5,0.7
	C226.1,337.5,231,343,236.2,348.3z"/>
<path class="st0" d="M277.5,379.6l0.3,0.2l-0.1-0.1L277.5,379.6L277.5,379.6z"/>
<path class="st0" d="M371.2,124.3c0-0.1,0-0.1,0-0.2l0.1,0.7C371.3,124.6,371.2,124.4,371.2,124.3z"/>
<path class="st0" d="M302.1,380.7c-0.1,0-0.2,0.1-0.2,0.1l0,0C301.9,380.7,302,380.7,302.1,380.7z"/>
<path class="st0" d="M371.3,124.7c0,0.1,0,0.2,0,0.2c0,0,0,0.1,0,0.2C371.3,125,371.3,124.9,371.3,124.7z"/>
<path class="st0" d="M240.5,333.3L240.5,333.3z"/>
<path class="st0" d="M239.8,333.2c-0.2,0-0.4-0.1-0.6-0.1c0.4,0.1,0.8,0.2,1.2,0.2L239.8,333.2z"/>
<path class="st0" d="M293.3,44.7h0.8C293.8,44.6,293.6,44.6,293.3,44.7z"/>
<path class="st0" d="M1739.8,323.7c-2.4-5.1-9.9-2.7-24.6,24.6C1728.9,350.1,1743.6,332.3,1739.8,323.7z"/>
<path class="st1" d="M301.9,380.8L301.9,380.8l-0.2,0.1L301.9,380.8z"/>
<path class="st1" d="M371.2,124.1c-0.1-0.5-0.3-0.8,0.2,0.9c0-0.1,0-0.2,0-0.2L371.2,124.1z"/>
<path class="st1" d="M312.1,46.5"/>
<path class="st1" d="M333.6,55.9C332.7,55.3,331.3,54.5,333.6,55.9z"/>
<path class="st1" d="M240.4,333.3L240.4,333.3c-0.4,0-0.8-0.1-1.2-0.2C238.9,333.1,239.2,333.4,240.4,333.3z"/>
<path class="st1" d="M262.9,371.3L262.9,371.3L262.9,371.3L262.9,371.3z"/>
<path class="st1" d="M415,465.4c-0.4-1.2-0.7-2.4-1-3.6l0,0c-1-4.1-1.6-8.3-1.9-12.4c-0.7-7.8-0.7-15.6,0.1-23.3
	c-7.2,17.9-14.7,35.7-22.9,53.1c-2.1,4.5-4.4,8.9-6.5,13.4c-23.4,47.8-95.4,112.8-130.4,121.5c-9.2,2.3-14.8,5.5-24,7.8
	c-8.6,2.2-17.4,3.9-26.2,5.1c-8.7,1.2-17.5,1.9-26.2,2.3c-2.1,0.1-4.2,0.1-6.3,0.2h-2h-3.7c-4.7,0-9.5,0-14.2-0.3
	c-5-0.2-18.1-2.4-18.6-2.4l-1.1-0.3l-1.5-0.4c-2.7-0.7-5.3-1.5-8-2.4c-2.3-0.8-4.5-1.6-6.7-2.5c-0.4-0.2-1.9-0.8-2.2-0.9
	c-1.1-0.5-2.3-1.1-3.4-1.6c-4.3-2.1-9.2-4.4-12.9-7.5c2.2,1.8-0.9-0.7-1.5-1.1c-1-0.7-2-1.5-3-2.2c-2-1.5-3.9-3.1-5.7-4.7
	c-0.9-0.8-1.8-1.7-2.7-2.5l-0.3-0.3c-0.3-0.3-0.7-0.7-1-1c-1.8-1.8-3.6-3.8-5.3-5.7c-1.4-1.7-5.3-6.7-6.4-8.2
	c-0.1-0.2-0.2-0.3-0.3-0.4c-0.5-0.7-1-1.4-1.4-2.2c-2.7-4.2-5.2-8.5-7.4-13c-0.2-0.5-0.4-0.9-0.6-1.4c-0.1-0.1-0.4-0.9-0.6-1.2
	c-0.4-1-0.8-1.9-1.2-2.9c-0.9-2.4-1.8-4.7-2.6-7.1c-0.8-2.4-1.5-4.8-2.1-7.3c-0.3-1.2-0.6-2.5-0.9-3.7l-0.3-1.5
	c0-0.1-0.2-1.1-0.3-1.4c-1.9-10.3-2.2-21-2-31.5c0.1-5,0.3-9.9,0.8-14.9c0.1-1.2,0.2-2.4,0.3-3.6c0-0.1,0-0.5,0.1-0.6
	c0.1-0.6,0.1-1.2,0.2-1.8c0.3-2.4,0.6-4.7,1-7c1.5-9.2,3.6-18.2,6.4-27.1c2.7-8.4,6-16.7,9.8-24.6c0.5-1,0.9-1.9,1.4-2.9
	c0.2-0.4,0.4-0.8,0.6-1.1c0,0.1,0.5-1,0.6-1.1c0.6-1.1,2-3.6,2.8-5.1c2.1-3.6,4.3-7.1,6.6-10.6c9.1-13.5,19.9-25.8,32.2-36.6
	c1.5-1.3,3-2.5,4.5-3.8l0.2-0.2l0.9-0.7l2.5-2c3.1-2.4,6.3-4.7,9.5-6.9c6.3-4.3,12.8-8.1,19.6-11.6c6.4-3.3,13.1-6.3,19.9-8.8
	c1.7-0.6,3.3-1.2,5-1.8l1-0.3l0.2-0.1h0.1l2.5-0.8c3.4-1,6.8-1.9,10.2-2.7c5.3-1.2,10.7-2.2,16.1-2.8c2.8,3.5,5.6,7,8.6,10.4
	c17.9,20.8,39.1,41.2,64.7,52c10.1,4.3,22.3,6.6,33,2.9c4.5-1.6,8.4-5,9.2-9.9c1.3-7.5-2.8-14.5-7-20.3c-5.6-7.8-13-14.3-20.6-20.1
	c-9.9-7.8-20.5-14.7-31.5-20.7c-11.6-6-24.2-9.7-37.3-10.8c-5-0.4-10.1-0.6-15.1-0.5l-1.2-1.6c-0.3-0.4-0.6-0.8-0.9-1.2
	c-0.5-0.7-1-1.4-1.5-2.1c-1.2-1.7-2.4-3.5-3.5-5.2c-2.3-3.4-4.5-6.9-6.6-10.4c-4.2-7-8.2-14-12-21.3c-1.9-3.6-3.7-7.3-5.4-11
	c-0.8-1.6-1.5-3.3-2.2-4.9l-0.9-2c-0.4-1-0.9-2.1-1.3-3.1c-6.3-14.9-11.1-30.3-14.4-46.1c-0.1-0.7-0.3-1.4-0.4-2.2
	c0,0.1-0.3-1.8-0.4-2.1c-0.3-2-0.6-4-0.9-6c-0.5-3.9-0.9-7.8-1.2-11.7c-0.5-7.4-0.5-14.9,0.1-22.3c0.1-0.9,0.1-1.8,0.2-2.7
	c0-0.4,0.1-0.7,0.1-1.1v-0.1c0-0.1,0-0.1,0-0.2c0.2-1.8,0.5-3.6,0.8-5.4c0.6-3.6,1.4-7.1,2.3-10.6c1.9-7.2,4.5-14.1,7.8-20.7
	c0.2-0.3,0.3-0.6,0.5-1l0.1-0.2c0,0,0-0.1,0.1-0.2c0.4-0.7,0.8-1.4,1.2-2.2c1-1.7,2-3.3,3-4.9c2-3.1,4.2-6.2,6.5-9.1
	c2.4-3,5-5.9,7.7-8.6c1.4-1.4,2.8-2.8,4.3-4.1c0.7-0.7,1.5-1.3,2.3-2l0.9-0.8l1.2-1c2.7-2.2,7.5-7.5,11.2-10c4-2.7,8.1-5.3,12.2-7.8
	c7.4-4.6,15.1-8.7,23-12.5c3.6-1.7,33.2-9.8,39.7-10.9c3-0.5,6-0.8,9-1c1.5-0.1,2.9-0.2,4.3-0.2h0.5h2.3c2.8,0.1,5.5,0.3,8.3,0.6
	c1.2,0.1,2.3,0.3,3.5,0.5l1.9,0.3c0.4,0.1,1.1,0.3,1.5,0.4l-1-0.3c2.4,0.8,4.9,1.2,7.2,2c1.2,0.4,2.3,0.8,3.5,1.3l1.5,0.6l0.1,0.1
	c2.1,1,4.3,2.1,6.3,3.3c1,0.6,1.9,1.2,2.9,1.8c0.5,0.3,1,0.7,1.5,1l-0.5-0.3l0.3,0.2c1.9,1.4,3.8,2.9,5.5,4.4
	c0.8,0.7,1.6,1.5,2.4,2.2l1.1,1.1c1.6,1.7,3.2,3.5,4.8,5.4c0.8,0.9,1.5,1.9,2.2,2.8c0.4,0.5,0.7,1,1.1,1.4l0,0
	c2.8,4.1,5.3,8.3,7.6,12.7c0.5,1,1.1,2.1,1.6,3.2c0.2,0.5,0.5,1,0.7,1.5c0.3,0.7,1.4,3.3,0.2,0.3c0.9,2.3,2,4.6,2.9,7
	c1.8,4.8,3.4,9.7,4.7,14.7c0.7,2.5,1.3,5.1,1.8,7.7c0.2,1.1,0.5,2.3,0.7,3.4c0,0,0,0,0,0.1c0,0.1,0,0.1,0,0.2c0,0.2,0.1,0.3,0.1,0.5
	s0,0.3,0.1,0.4c0,0,0-0.1,0-0.2l0.3,1.6c1.7,10.2,2.5,20.4,2.4,30.7c0,4.9-0.3,9.8-0.7,14.6l-0.2,1.8v0.2v0.1
	c-0.1,1.2-0.3,2.3-0.5,3.5c-0.3,2.3-0.7,4.7-1.2,7c-1.5,8.3-4.1,16.4-7.5,24.2c-0.4,0.8-0.8,1.6-1.2,2.5l0,0
	c-0.2,0.4-0.4,0.8-0.7,1.2c-0.9,1.6-1.9,3.1-2.9,4.6c-1.9,2.8-4.1,5.3-6.6,7.6c-0.2,0.2-0.5,0.4-0.7,0.6c-0.5,0.4-1,0.8-1.6,1.2
	c-1,0.7-2,1.3-3,1.8c-1,0.2-2.1,0.5-3.1,0.8c-10.9,3.6-17.4,14-14.3,23.1c3,9.1,14.3,13.7,25.2,10.1c2.4-0.8,4.7-2,6.8-3.5
	c9.7-5.2,16.6-15.1,21.2-25.2c7.9-17.4,10.4-37.4,10.3-56.3c-0.1-21.7-5.8-59.7-13.8-79.8c-8.6-21.5-22-40.7-41.3-53.8
	c-20-13.5-35.9-23.9-68.4-20.9c-15.3,1.4-34.9,6.5-48.6,13.2c-17.1,8.3-30.2,18.1-44.7,30.4c-12.4,10.6-21.1,25.6-27.9,40.5
	c-6.5,14.1-9.6,37.4-10.4,52.8c-1.8,32.9,7.3,66.1,20.4,96.1c9.3,21.2,20.7,41.5,34,60.5c-22.9,2.2-47.3,8.2-64.5,16.7
	c-29.6,14.6-55,36.5-73.8,63.7c-21.9,32.1-31.9,70.8-28.5,109.5c1.7,18.3,5.1,44.2,14.5,64.8c9.3,20.1,23.5,37.5,41.3,50.6
	c18.4,13.5,43.9,20.8,66.6,23.1c10,1,20.2,0.9,30.3,0.7c9.3-0.2,18.5-0.8,27.7-1.8c38-4.2,74.3-18.2,105.3-40.7
	c19-13.9,36.1-30.4,51.5-48.2c9.3-10.8,18-22.1,26.3-33.7c2.4-3.4,8.5-14.8,8.9-15.7c2.4-4.5,4.6-9.1,6.9-13.8
	c3.7-7.8,7.4-15.7,10.8-23.6c-0.2-0.7-0.5-1.4-0.7-2.1L415,465.4z M225.2,331.3c3,0.2,6.1,0.5,9.1,0.9c1.4,0.2,2.7,0.4,4.1,0.7
	c0.2,0,0.5,0.1,0.8,0.2c0.2,0,0.4,0,0.6,0.1l0.6,0.1l0,0l0.8,0.2c2.7,0.7,5.4,1.5,8,2.4c1.3,0.5,2.6,1,3.8,1.5l0,0
	c0.6,0.3,1.2,0.5,1.8,0.8c4,2,7.8,4.4,11.6,6.7c2.8,1.8,5.6,3.6,8.4,5.4l0.4,0.2l0.2,0.1l1.9,1.3c1.3,0.9,2.6,1.9,3.9,2.8
	c4.2,3.1,8.2,6.4,12,9.9l0.8,0.8c0.6,0.6,1.2,1.2,1.8,1.8c1.4,1.5,2.7,3,3.9,4.6l0.4,0.6c0.3,0.5,0.6,1,0.9,1.5s0.7,1.2,1,1.8
	l0.1,0.1c0,0,0,0,0,0.1c0.2,0.5,0.4,1.1,0.5,1.6l0,0c0,0.4,0,0.8,0.1,1.1c-0.1,0.3-0.2,0.7-0.3,1c-0.2,0.3-0.4,0.6-0.6,0.9l-0.1,0.2
	c0.1,0,0.1-0.1,0.2-0.1c-0.1,0-0.2,0.1-0.2,0.1c-0.5,0.6-0.7,0.4-0.1,0.1c-0.7,0.4-1.3,0.9-2,1.2c-0.2,0.1-0.5,0.2-0.7,0.3l-0.2,0.1
	c-0.5,0.1-1,0.1-1.2,0.2c-1.2,0.2-2.4,0.4-3.6,0.5h-0.9c-0.7,0-1.4,0-2.1,0c-2-0.1-3.9-0.6-5.8-0.8c3.4,0.4-0.1,0-1.2-0.4
	s-2.1-0.6-3.1-1s-2.1-0.8-3.1-1.2l0.1,0.1l-0.3-0.2h0h0.1c-2.2-1.3-1.4-0.7-0.6-0.3c-0.3-0.1-0.6-0.2-0.9-0.4
	c-2.4-1.1-4.7-2.4-6.9-3.7c-1.1-0.6-2.2-1.3-3.3-2l-1.8-1.1c-0.3-0.2-0.9-0.6-1.3-0.9l1,0.8l-1-0.8l0,0c-4.5-3.4-9-6.7-13.3-10.4
	c-2.5-2.1-4.9-4.4-7.3-6.6l-1.8-1.8l-0.1-0.1l-0.2-0.2c-1.3-1.3-2.6-2.6-3.9-3.9c-5.1-5.3-10.1-10.8-14.8-16.5l-0.5-0.7
	C222.3,331.1,223.8,331.2,225.2,331.3z M206.6,312.5L206.6,312.5C206.9,313,207.3,313.5,206.6,312.5z M294.1,44.6h-0.8
	C293.6,44.6,293.8,44.6,294.1,44.6z"/>
<path class="st1" d="M477.5,324.4c7.6-5.2,14.1-12,18.9-19.9c3.2-5.4,5.3-11.5,5.1-17.7c-0.2-6.5-5-14.5-9.3-19.3
	c-6.7-7.5-16.2-12.4-25.5-15.6c-4.2-1.4-8.8-2.9-13.3-2.9c-2,0-4.3,0.4-5.6,2.1c-2.7,3.8,0.8,10.3,2.6,13.7
	c1.6,3.2,6.3,10.1,11.2,11.6c0.5,0.1,3.8,1,3.5,0.5c-3.8-5.2-8.4-12-8.8-18.7c-0.3-4.4,2.9-6.1,7-5.8c1.2,0.1,2.4,0.4,3.6,0.7
	c0.4,0.1,0.8,0.3,1.1,0.4c1.1,0.6,2.1,1.1,3.2,1.7c3.6,2,6.9,4.4,9.8,7.2c4.5,4.3,7.9,9.7,8.9,16c0.7,5.6-0.2,11.3-2.6,16.4
	c-3.5,7.5-8.6,14-14.9,19.3C475.9,316.4,477.8,320.3,477.5,324.4z"/>
<path class="st2" d="M418.8,473.6c-0.6-0.9-1.1-1.9-1.6-2.9C417.7,471.7,418.2,472.7,418.8,473.6z"/>
<path class="st2" d="M417.1,470.5c-0.2-0.5-0.4-0.9-0.6-1.4C416.6,469.6,416.8,470,417.1,470.5z"/>
<path class="st2" d="M419.8,475c-0.3-0.4-0.5-0.7-0.8-1.1C419.3,474.3,419.5,474.7,419.8,475z"/>
<path class="st2" d="M423.5,478.6c-0.4-0.3-0.8-0.6-1.2-0.9C422.7,478,423.1,478.3,423.5,478.6z"/>
<path class="st2" d="M427.9,480.7c-0.5-0.1-1-0.3-1.4-0.5C427,480.4,427.4,480.5,427.9,480.7z"/>
<path class="st2" d="M429.5,481c-0.4-0.1-0.8-0.1-1.2-0.2C428.7,480.9,429.1,480.9,429.5,481z"/>
<path class="st2" d="M426.2,480.1c-0.4-0.1-0.7-0.3-1.1-0.5C425.5,479.8,425.8,480,426.2,480.1z"/>
<path class="st2" d="M424.8,479.4c-0.4-0.2-0.8-0.5-1.2-0.7C423.9,478.9,424.3,479.2,424.8,479.4z"/>
<path class="st2" d="M420.9,476.4c-0.4-0.4-0.7-0.8-1-1.2C420.3,475.6,420.6,476,420.9,476.4z"/>
<path class="st2" d="M422,477.5c-0.3-0.3-0.6-0.6-0.9-0.9C421.4,476.9,421.7,477.2,422,477.5z"/>
<path class="st2" d="M431.6,481.1c-0.5,0-1.1-0.1-1.6-0.1C430.5,481.1,431.1,481.1,431.6,481.1z"/>
<path class="st2" d="M415.8,467.6c0.2,0.4,0.4,0.9,0.5,1.3C416.2,468.5,416,468,415.8,467.6L415.8,467.6z"/>
<path class="st2" d="M415,465.4c-0.4-1.2-0.7-2.4-1-3.6C414.4,463,414.7,464.2,415,465.4z"/>
<path class="st2" d="M415.1,465.5c0.2,0.7,0.5,1.4,0.7,2.1l0,0C415.6,466.9,415.3,466.2,415.1,465.5z"/>
<path class="st0" d="M433.8,461.5L433.8,461.5c0.1,0,0.1,0,0.2,0h0h0.2h0.1l0.2-0.1l0.1,0l0.2-0.1l0.1-0.1l0.2-0.2
	c0,0,0.1-0.1,0.1-0.1c0.1-0.1,0.2-0.1,0.2-0.2l0.1-0.1l0.3-0.3c0,0,0.1-0.1,0.1-0.1c0.1-0.2,0.3-0.3,0.4-0.5l-3.8,0.4
	C432.8,460.8,433.2,461.5,433.8,461.5z"/>
<path class="st2" d="M434,461.5L434,461.5z"/>
<path class="st2" d="M435.2,460.8c0,0-0.1,0.1-0.1,0.1C435.2,460.9,435.2,460.9,435.2,460.8z"/>
<path class="st2" d="M434.6,461.3l-0.1,0L434.6,461.3z"/>
<path class="st2" d="M434.3,461.4L434.3,461.4L434.3,461.4z"/>
<path class="st2" d="M435.6,460.5l-0.1,0.1L435.6,460.5z"/>
<path class="st2" d="M436,460.1c0,0-0.1,0.1-0.1,0.1C435.9,460.2,436,460.1,436,460.1z"/>
<path class="st2" d="M433.8,461.5L433.8,461.5z"/>
<path class="st2" d="M434.9,461.1l-0.1,0.1L434.9,461.1z"/>
<path class="st2" d="M419,473.9l-0.2-0.3L419,473.9z"/>
<path class="st2" d="M417.2,470.7l-0.1-0.2L417.2,470.7z"/>
<path class="st2" d="M416.4,469.1c0-0.1-0.1-0.1-0.1-0.2C416.4,469,416.4,469,416.4,469.1z"/>
<path class="st2" d="M426.5,480.2l-0.3-0.1L426.5,480.2z"/>
<path class="st2" d="M428.3,480.8l-0.4-0.1L428.3,480.8z"/>
<path class="st2" d="M425.1,479.6l-0.4-0.2L425.1,479.6z"/>
<path class="st2" d="M430,481l-0.5-0.1L430,481z"/>
<path class="st2" d="M422.3,477.7l-0.3-0.2L422.3,477.7z"/>
<path class="st2" d="M423.5,478.7L423.5,478.7L423.5,478.7z"/>
<path class="st2" d="M421.2,476.6l-0.2-0.2L421.2,476.6z"/>
<path class="st2" d="M419.9,475.2l-0.1-0.2L419.9,475.2z"/>
<path class="st2" d="M435.1,460.9l-0.2,0.2L435.1,460.9z"/>
<path class="st2" d="M434.8,461.2l-0.2,0.1L434.8,461.2z"/>
<path class="st2" d="M434.5,461.4l-0.2,0.1L434.5,461.4z"/>
<path class="st2" d="M433.8,461.5c-0.6-0.1-1-0.7-1.1-1.6l0,0C432.8,460.8,433.2,461.5,433.8,461.5z"/>
<path class="st2" d="M434,461.5c-0.1,0-0.1,0-0.2,0C433.9,461.5,433.9,461.5,434,461.5z"/>
<path class="st2" d="M434.2,461.5H434H434.2z"/>
<path class="st2" d="M435.9,460.2l-0.3,0.3L435.9,460.2z"/>
<path class="st2" d="M436.4,459.6c-0.1,0.2-0.3,0.3-0.4,0.5C436.1,459.9,436.3,459.8,436.4,459.6z"/>
<path class="st2" d="M435.5,460.6c-0.1,0.1-0.1,0.1-0.2,0.2C435.3,460.8,435.4,460.7,435.5,460.6z"/>
<path class="st2" d="M415.1,465.5l-0.1-0.2L415.1,465.5z"/>
<polygon class="st2" points="414.1,461.8 414.1,461.8 414.1,461.8 "/>
<path class="st2" d="M414.1,461.8c0.3,1.2,0.6,2.4,1,3.6l0.1,0.2c0.2,0.7,0.5,1.4,0.7,2c0.9-2.1,1.8-4.2,2.7-6.2L414.1,461.8
	L414.1,461.8z"/>
<path class="st3" d="M671.9,360.4l-0.8,1c-5.3,10.1-8.9,21-10.7,32.3c8.5-8.6,16.1-17.1,22.5-24.7
	C696.8,353.9,681.1,347.3,671.9,360.4z"/>
<path class="st3" d="M862.1,368.6c14.4-15.4,0-21.2-10.3-8.2l-0.1,0.1c-1.4,7.8-2.8,15.4-4,22.8
	C852.8,378.7,857.6,373.7,862.1,368.6z"/>
<path class="st3" d="M1079.4,360.4l-0.5,0.6c-5.6,10.2-9.4,21.2-11.1,32.7c8.5-8.7,16.1-17.2,22.5-24.8
	C1104.4,353.9,1088.6,347.3,1079.4,360.4z"/>
<path class="st3" d="M1349.7,368.9c14-15-1.7-21.6-11-8.5c-0.3,0.3-0.6,0.7-0.8,1c-3,8.8-5.7,18.1-7.9,27.5
	C1337,382.7,1343.6,376,1349.7,368.9z"/>
<g>
	<path class="st3" d="M671.1,361.2c-24.6,29.5-87.9,89.4-120,81.3c-41.7-9.6,5.5-72.5-9.2-94.1c-6.8-9.6-16.4-8.2-27-0.3
		c-32.5,24.3-74.2,106.1-78.4,111.6c-0.1,0.2-0.3,0.3-0.4,0.5c0,0-0.1,0.1-0.1,0.1l-0.3,0.3l-0.1,0.1c-0.1,0.1-0.1,0.1-0.2,0.2
		c0,0-0.1,0.1-0.1,0.1l-0.2,0.2l-0.1,0.1l-0.2,0.1l-0.1,0l-0.2,0.1h-0.1h-0.2H434c-0.1,0-0.1,0-0.2,0c-0.6-0.1-1-0.7-1.2-1.6
		c-0.3-1.5-0.3-3-0.3-4.5c1.7-30.8,36.3-99.9,44.5-127.6c0.4-1.1,0.6-2.3,0.7-3.4c0.4-4.1-1.6-8.1-5-10.3
		c-6.3-4.2-17.3-3.4-26.1,6.9c-15.8,18.8-30.9,68.1-34.1,105c-0.8,7.8-0.8,15.6-0.1,23.3c0.3,4.2,1,8.3,1.9,12.4l4.5-0.4
		c-0.9,2.1-1.8,4.2-2.7,6.2c0.2,0.4,0.3,0.9,0.5,1.3c0,0.1,0,0.1,0.1,0.2c0.2,0.5,0.4,0.9,0.6,1.4l0.1,0.2c0.5,1,1,1.9,1.6,2.9
		l0.2,0.3c0.3,0.4,0.5,0.8,0.8,1.1l0.1,0.2c0.3,0.4,0.7,0.8,1,1.2l0.2,0.2c0.3,0.3,0.6,0.6,0.9,0.8l0.3,0.2c0.4,0.3,0.8,0.6,1.2,0.9
		h0.1c0.4,0.3,0.8,0.5,1.2,0.7l0.4,0.2c0.3,0.2,0.7,0.3,1.1,0.5l0.3,0.1c0.5,0.2,0.9,0.3,1.4,0.5l0.4,0.1c0.4,0.1,0.8,0.2,1.2,0.2
		l0.5,0.1c0.6,0.1,1.1,0.1,1.7,0.1c5.8,0,11-4.5,16.1-11c9.6-18.1,61.2-102.3,63.7-97.5c1,1,0,4.1-1,6.8c-11,33.2-3.4,73.2,34.2,77
		c39.7,4.3,83.9-30.4,115.8-62.9C662.2,382.2,665.8,371.3,671.1,361.2z"/>
	<path class="st3" d="M712.6,428.1c-11-4.5-16.8-14.4-18.1-25c-2.7-31.5,24-81.1,52.7-91.4c7.2-2.4,13.3,0,14.7,10.6
		c-1,17.5,18.1,20.5,18.1,4.5c-3.8-17.5-14-26.7-26.7-26.3c-35.7,1.1-66.4,29.6-82.2,60.8l0.8-1c9.2-13,25-6.5,11,8.5
		c-6.4,7.5-14,16-22.5,24.7c-0.7,4.4-1,8.9-0.8,13.3c1,22.2,15.7,32.5,34.6,37c49.8,10.7,116.6-26.4,153.7-60.6
		c1.2-7.4,2.5-15,4-22.8C843.4,371.4,754.5,445.8,712.6,428.1z"/>
</g>
<path class="st3" d="M958.6,442.5c-19.2-4.5-21.9-35.2-6.8-82.1c3.8-12-8.6-19.9-21.2-13.4c-30.5,13.7-62.3,67.1-77,93.4
	c2.7-13.7,10.3-48.6,23.3-91c39-48.6,116-156.7,127.3-216.6c8.2-44.8-25-45.5-47.9-23.6c-55.7,53.3-88,162.5-104.5,251.3l0.1-0.1
	c10.3-13,24.6-7.2,10.3,8.2c-4.5,5.2-9.3,10.1-14.3,14.7c-7,43.2-10,79.3-10,98.2c0,21.9,14,16.8,14,9.6c1.4-5.5,3.1-10.6,4.8-15.7
	c9.2-25.7,33.2-78.7,55.8-98.5c9.2-8.5,7.2-2.7,5.5,2.7c-11,33.2-3.4,73.2,34.2,77c39.7,4.3,83.9-30.4,115.7-62.9
	c1.7-11.5,5.5-22.6,11.1-32.7C1054.6,390.2,990.9,450.6,958.6,442.5z M948,177.6c31.1-49.3,46.2-50,17.8,5.8
	c-19.8,39.7-49.6,85.9-75.3,122.8C906.6,260.1,926.1,212.9,948,177.6z"/>
<path class="st3" d="M1218,421.6c-19.2-4.5-28.4-24.3-13-70.8c4.8-15.1-14-22.2-30.5-6.9c-6.8,6.9-64.3,70.5-69.8,62.3
	c-4.8-6.5,2-24.6,4.8-30.8c12.7-31.1,45.5-63.3,73.6-60.6c11,1,20.9,6.8,27.4,18.8c6.5,16.4,26,12.7,18.8-2.7
	c-7.9-16.4-24-24.3-41.4-26.7c-44.3-6.4-88.3,18.9-109,56.7l0.5-0.6c9.2-13,25-6.5,10.9,8.5c-6.4,7.6-14,16.1-22.5,24.8
	c-0.2,1-0.3,2-0.4,3c-1.7,14,1,29.1,12,34.6c36.9,19.2,81.4-60.2,96.2-72.2c-19.2,37.3-5.1,72.9,35.9,76.6
	c40.9,4.5,86.5-18.7,118.5-46.8c2.2-9.4,4.9-18.7,7.9-27.5C1312.7,390.6,1250.5,428.7,1218,421.6z"/>
<path class="st3" d="M1653.6,224.5c49.6-6.5,103.7-12.7,143-8.9c24.6,2.7,43.1,9.6,49.6,24.3c9.2,20.5,33.9,1.7,21.9-8.2
	c-16.1-12.7-40.4-19.2-69.1-22.9c-43.1-4.4-94.1-1-140,2.7c24.7-58.5,52.8-108.5,81.5-141.7c25-37.3-28.1-46.2-47.2-20.2
	c-11,14-22.2,34.9-33.5,59.5c-14.7,32.8-30.8,69.8-48.2,107.1c-1.7,0-3.1,0.3-4.8,0.3l-62.3,6.2c-46.2,5.1-92,8.6-137.6,6.2
	c-13.3-1-26.3-2.1-41.1-4.4c-13.7-23.6-30.1-1-13.3,7.2c13.3,3.8,33.9,5.8,59.5,6.8c44.1,2.4,86.2,1,128.3-1.7l59.9-5.5
	c1.4,0,3.1-0.3,4.8-0.3c-51.7,111.5-108.5,220.4-143.7,216.3c-41.4-11,6.8-77.3-7.9-98.9c-6.8-9.6-16.4-8.2-27-0.3
	c-32.5,24.3-74.3,106.1-78.4,111.6c-4.4,5.5-4.1-2-4.1-4.1c1.7-30.8,36.3-99.9,44.5-127.6c4.8-15.1-15.8-24-30.5-6.8
	c-7.2,8.5-14.2,23.3-20,40.3c0.3-0.3,0.6-0.7,0.8-1c9.2-13,25-6.5,11,8.5c-6.1,7.1-12.7,13.8-19.7,19.9c-5.2,22.2-8,44.7-6.3,60.5
	c1,12.3,4.8,31.8,19.5,31.8c5.8,0,11-4.5,16.1-11c9.6-18.1,61.2-102.3,63.7-97.5c1,1,0,4.1-1,6.8c-11,32.9-3.4,81.8,34.2,83.5
	c44.1,4.5,99.6-93.1,149.9-200.2c-27.4,103.3-46.5,215.9-43.8,286.8c1,37,8.2,65.4,22.9,80.1c20.5,18.8,40.4,0.7,23.6-9.6
	c-23.3-13.3-37-35.6-34.6-72.2C1580.7,448.6,1612.5,326.1,1653.6,224.5z"/>
<path class="st4" d="M1857.2,360.3c-7.9,10.6-97.2,85.5-139.3,67.8c-27.4-11-17.8-47.2-8.9-67.8c31.1,1,61.9-14.7,59.2-32.5
	c-1-7.9-7.2-14.7-19.5-17.5c-26-5.5-50.7,17.8-63.3,35.9c-24,33.9-35.6,85.5,14,97.5c57.2,12.3,136.5-38.3,168-75.3
	C1881.8,353.2,1867.5,347.3,1857.2,360.3z M1739.8,323.7c3.8,8.6-10.9,26.4-24.6,24.6C1729.9,321,1737.4,318.6,1739.8,323.7z"/>
<path class="st4" d="M1783.3,269.3c8.2-10.3,10.3-29.1,0-32.9C1738.1,272.1,1731.3,326.8,1783.3,269.3z"/>
</svg>
