<svg id="Capa_3" data-name="Capa 3" xmlns="http://www.w3.org/2000/svg" viewBox="0 0 675 675"><defs><style>.cls-1{fill:none;}.cls-2{fill:#9e5401;}.cls-3{fill:#ffc47f;}</style></defs><title>logo1</title><path class="cls-1" d="M353.48,386.34l.34.16-.15-.09-.14-.05Z"/><path class="cls-1" d="M377.79,387.48l-.14.07C377.1,387.89,377.27,388.1,377.79,387.48Z"/><path class="cls-1" d="M338.85,378l-.06,0C338.22,377.51,338.42,377.67,338.85,378Z"/><path class="cls-1" d="M339.91,378.76l-1-.77h0Z"/><path class="cls-1" d="M378,387.36l-.23.11h0C377.87,387.44,378,387.39,378,387.36Z"/><path class="cls-1" d="M315.72,339.87a1.33,1.33,0,0,0-.55-.06,4.63,4.63,0,0,0,1.17.2Z"/><path class="cls-1" d="M447.14,131c0-.07,0-.14,0-.21l.12.67C447.19,131.28,447.16,131.12,447.14,131Z"/><path class="cls-1" d="M447.22,131.43l0,.24a1.24,1.24,0,0,0,0,.16A2.83,2.83,0,0,1,447.22,131.43Z"/><path class="cls-1" d="M316.45,340h0Z"/><path class="cls-1" d="M282.52,319.18l.05.08C283.2,320.16,282.85,319.65,282.52,319.18Z"/><path class="cls-1" d="M312.11,355q1.92,2,3.87,3.91c.08.08.15.14.21.21l.11.1c.61.59,1.22,1.18,1.84,1.76q3.6,3.39,7.34,6.62c4.28,3.69,8.79,7,13.31,10.36l.08.05c.41.3,1,.74,1.32.94.58.38,1.16.76,1.75,1.13,1.09.68,2.18,1.35,3.29,2,2.26,1.32,4.57,2.56,6.94,3.69.29.14.6.26.9.39-.82-.44-1.56-1,.6.28,1,.42,2,.82,3.07,1.19s2.08.7,3.14,1,4.5.71,1.15.36c2,.2,3.84.69,5.81.8.69,0,1.38,0,2.07.06l.9-.05a31.11,31.11,0,0,0,3.62-.44c.22,0,.75-.1,1.23-.19l.23-.12c.24-.11.5-.19.74-.3.71-.31,1.34-.82,2-1.18l.15-.08.13-.16a10.13,10.13,0,0,1,.62-.86,8.48,8.48,0,0,1,.26-1c0-.37-.06-.76-.07-1.13a.08.08,0,0,1,0,0c-.18-.54-.36-1.08-.53-1.62l0-.05-.06-.13c-.34-.6-.65-1.21-1-1.8s-.62-1-.93-1.47c-.15-.19-.29-.39-.44-.57-1.23-1.6-2.55-3.12-3.93-4.59-.58-.62-1.2-1.21-1.78-1.82l-.83-.79a143,143,0,0,0-12.06-9.91q-1.93-1.43-3.9-2.82l-1.87-1.3-.17-.13a4.14,4.14,0,0,1-.35-.23c-2.78-1.84-5.57-3.65-8.41-5.4-3.8-2.35-7.63-4.72-11.64-6.7l-1.77-.84h0c-1.27-.51-2.53-1-3.82-1.48-2.62-.94-5.3-1.74-8-2.42l-.79-.19c-1.22.06-1.51-.18-1.21-.21-.29-.08-.58-.17-.83-.22-1.35-.25-2.71-.48-4.08-.68-3-.45-6-.75-9.08-.94-1.46-.08-2.92-.14-4.39-.17l.54.66Q304.41,347,312.11,355Z"/><path class="cls-1" d="M369.24,51.36l.77,0A3.2,3.2,0,0,0,369.24,51.36Z"/><path class="cls-2" d="M447.1,130.76c-.11-.46-.28-.79.16.91l0-.24Z"/><path class="cls-2" d="M388,53.23Z"/><path class="cls-2" d="M316.38,340h0a4.63,4.63,0,0,1-1.17-.2C314.87,339.84,315.16,340.08,316.38,340Z"/><path class="cls-2" d="M377.79,387.48h0l-.15.08Z"/><path class="cls-2" d="M409.52,62.58c-.91-.59-2.31-1.38,0,0Z"/><path class="cls-2" d="M353.07,386.13l.41.21,0,0,.14.05C351.51,385.09,352.25,385.69,353.07,386.13Z"/><path class="cls-2" d="M338.85,378h0l-.08-.05Z"/><path class="cls-2" d="M568.19,274.14c-6.68-7.47-16.2-12.41-25.55-15.56-4.23-1.42-8.76-2.88-13.26-2.94-2,0-4.35.36-5.57,2.1-2.66,3.82.82,10.27,2.61,13.73,1.66,3.19,6.31,10.14,11.25,11.63.5.15,3.83,1,3.49.5-3.81-5.24-8.38-12.05-8.84-18.67-.31-4.44,2.88-6.12,7-5.74a19.2,19.2,0,0,1,3.61.7c.39.11.78.26,1.16.38,1.05.57,2.14,1.09,3.18,1.68a49.72,49.72,0,0,1,9.82,7.16c4.51,4.31,7.91,9.74,8.85,16a29.72,29.72,0,0,1-2.6,16.37,53.68,53.68,0,0,1-11.63,16.32c3.07,2.94,4.41,7.4,2.76,12.59h0a64.94,64.94,0,0,0,17.9-19.2c3.15-5.35,5.31-11.45,5.15-17.73C577.3,286.94,572.48,278.94,568.19,274.14Z"/><path class="cls-2" d="M491.28,465.17a84.88,84.88,0,0,1-1.94-12.53,126.31,126.31,0,0,1,.08-23.08c-7.54,18.95-15.44,37.78-24.16,56.22-2.12,4.48-4.35,8.9-6.53,13.35-23.36,47.79-95.36,112.8-130.36,121.45-9.23,2.28-14.83,5.51-24,7.85a227.17,227.17,0,0,1-26.24,5.09c-8.71,1.19-17.47,1.9-26.25,2.26-2.1.09-4.19.15-6.29.19l-2,0c-1.24,0-2.47,0-3.71,0-4.73,0-9.48,0-14.21-.26-5-.24-18.06-2.38-18.56-2.4l-1.08-.25-1.48-.38q-4-1-8-2.37-3.39-1.14-6.72-2.5c-.43-.17-1.95-.84-2.2-.94-1.14-.53-2.28-1-3.41-1.62-4.29-2.13-9.19-4.41-12.9-7.48,2.16,1.78-.9-.65-1.48-1.07-1-.72-2-1.47-3-2.23q-2.94-2.26-5.72-4.73c-.93-.82-1.85-1.65-2.75-2.5l-.33-.29c-.34-.3-.66-.66-1-1q-2.75-2.78-5.29-5.73c-1.43-1.65-5.32-6.65-6.46-8.17-.12-.16-.23-.33-.31-.44-.48-.72-1-1.44-1.45-2.17a117.58,117.58,0,0,1-7.36-13c-.22-.45-.44-.9-.65-1.36-.06-.12-.41-.9-.56-1.23-.43-1-.84-2-1.24-3-.93-2.35-1.8-4.73-2.58-7.13s-1.51-4.87-2.14-7.34c-.32-1.24-.61-2.49-.89-3.74-.11-.5-.22-1-.32-1.51,0-.13-.22-1.09-.28-1.37-1.89-10.33-2.2-21-2-31.47q.12-7.44.76-14.86c.11-1.21.23-2.42.35-3.63,0-.07.05-.46.07-.64.07-.61.14-1.22.22-1.83q.45-3.54,1-7.05a192.07,192.07,0,0,1,6.43-27.08,185.9,185.9,0,0,1,9.78-24.63c.47-1,.94-1.91,1.42-2.87.19-.38.38-.76.58-1.13,0,.07.54-1,.58-1.13.59-1.09,2-3.57,2.84-5.1q3.12-5.42,6.6-10.61a188.24,188.24,0,0,1,32.15-36.57c1.47-1.29,3-2.54,4.46-3.79l.24-.2.88-.71c.83-.66,1.67-1.32,2.51-2q4.67-3.6,9.55-6.91a190.62,190.62,0,0,1,19.56-11.61,182.19,182.19,0,0,1,19.86-8.8q2.48-.93,5-1.78l1-.33.16-.06.08,0,2.49-.78c3.37-1,6.77-1.93,10.19-2.72a151.52,151.52,0,0,1,16.1-2.85Q284.58,344,289,349.1c17.91,20.79,39.12,41.21,64.73,52,10.16,4.29,22.33,6.59,33,2.89,4.51-1.56,8.37-5,9.21-9.85,1.28-7.46-2.8-14.5-7-20.32-5.61-7.75-13-14.27-20.57-20.11A226.38,226.38,0,0,0,336.77,333a98,98,0,0,0-37.25-10.77,144.52,144.52,0,0,0-15.13-.51l-1.18-1.61c-.28-.39-.55-.81-.85-1.2l-1.48-2.13c-1.19-1.73-2.36-3.46-3.51-5.21q-3.42-5.14-6.65-10.43-6.37-10.43-12-21.28c-1.87-3.64-3.68-7.3-5.41-11-.77-1.63-1.51-3.27-2.25-4.92-.18-.43-.72-1.65-.86-2-.44-1-.88-2.06-1.31-3.09a248.61,248.61,0,0,1-14.36-46.06c-.15-.72-.29-1.45-.42-2.17,0,.15-.33-1.82-.39-2.14-.34-2-.64-4-.92-6q-.8-5.81-1.2-11.66a151,151,0,0,1,0-22.31c.07-.92.15-1.83.24-2.74l.12-1.09v-.13c0-.06,0-.13,0-.22.26-1.79.49-3.6.79-5.39q.9-5.34,2.27-10.58a108.29,108.29,0,0,1,7.72-20.7l.49-1,.1-.21.09-.16,1.18-2.15c.95-1.67,1.94-3.32,3-4.93a103.92,103.92,0,0,1,6.52-9.06,107.81,107.81,0,0,1,7.68-8.58c1.39-1.41,2.82-2.77,4.28-4.1.75-.67,1.5-1.34,2.26-2l.92-.78c.18-.15,1.74-1.44,1.21-1,2.74-2.21,7.51-7.54,11.17-10q6-4,12.2-7.82a250.33,250.33,0,0,1,23-12.46c3.64-1.71,33.18-9.84,39.74-10.87q4.47-.7,9-1c1.44-.1,2.88-.15,4.33-.22h.52c.77,0,1.53,0,2.3,0,2.77.07,5.54.27,8.29.6,1.17.14,2.34.31,3.51.5.63.11,1.27.22,1.9.35.37.07,1.06.27,1.48.4l-1-.34c2.37.77,4.85,1.23,7.23,2,1.16.39,2.31.8,3.45,1.25l1.53.61.13.06c2.15,1,4.27,2.08,6.33,3.28,1,.56,1.94,1.15,2.89,1.76.49.32,1,.68,1.48,1l-.47-.28.32.22c1.92,1.39,3.77,2.87,5.55,4.42.83.72,1.63,1.46,2.43,2.21l1.09,1.1c1.65,1.72,3.24,3.51,4.75,5.36.76.93,1.51,1.87,2.23,2.83.37.48.73,1,1.08,1.45l0,0a127.66,127.66,0,0,1,7.59,12.66c.54,1.05,1.06,2.11,1.58,3.17.24.51.48,1,.71,1.53.32.68,1.36,3.34.18.34.92,2.34,1.95,4.63,2.84,7,1.81,4.83,3.36,9.76,4.68,14.74q1,3.81,1.82,7.67c.25,1.13.47,2.27.69,3.4,0,0,0,.05,0,.07s0,.14,0,.21.05.31.08.46a2.83,2.83,0,0,0,.08.4,1.24,1.24,0,0,1,0-.16l.27,1.57a179.11,179.11,0,0,1,2.38,30.68c0,4.88-.28,9.76-.74,14.61l-.18,1.78v.16l0,.13c-.15,1.16-.29,2.32-.46,3.49-.34,2.32-.73,4.65-1.18,6.95a104.84,104.84,0,0,1-7.55,24.17c-.39.83-.81,1.64-1.21,2.47v0l-.68,1.21c-.91,1.59-1.88,3.14-2.93,4.64a44.93,44.93,0,0,1-6.6,7.57l-.69.6c-.53.38-1,.78-1.59,1.15a29,29,0,0,1-3.9,2.25c-.63.3-1.28.58-1.93.83l-.61.22-.47.12c-1.34.35-6.25,6.2-6.61,9.83-.8,7.94,6.47,15.93,10.82,19.95a7.94,7.94,0,0,0,7.43,1.82c13.48-3.56,22.52-15.64,28.15-28,7.93-17.38,10.37-37.36,10.33-56.29,0-21.67-5.77-59.66-13.84-79.82-8.59-21.48-22-40.69-41.3-53.76-20.06-13.54-35.91-23.86-68.4-20.93-15.3,1.38-34.86,6.52-48.65,13.21C280,50.64,266.85,60.4,252.36,72.76c-12.44,10.62-21.08,25.7-27.88,40.56-6.46,14.1-9.57,37.36-10.42,52.79-1.8,32.94,7.27,66.16,20.37,96.1a348,348,0,0,0,34,60.46c-22.86,2.2-47.26,8.19-64.54,16.71a194.62,194.62,0,0,0-73.82,63.67A167.88,167.88,0,0,0,101.6,512.59c1.71,18.29,5.09,44.23,14.46,64.85a130.71,130.71,0,0,0,41.35,50.63c18.41,13.45,43.89,20.76,66.63,23.14,10,1,20.23.87,30.29.66,9.26-.2,18.52-.76,27.73-1.81a220.68,220.68,0,0,0,105.3-40.69c19.05-13.9,36.12-30.37,51.48-48.23,9.31-10.8,18-22.11,26.28-33.74,2.44-3.44,8.49-14.83,8.94-15.7,2.36-4.55,4.63-9.14,6.85-13.77q6.61-13.83,12.72-27.92a9.32,9.32,0,0,1-2.25-4.85ZM301.18,338c3,.19,6.07.49,9.08.94,1.37.2,2.73.43,4.08.68.25.05.54.14.83.22a1.33,1.33,0,0,1,.55.06l.62.14h0l.79.19c2.7.68,5.38,1.48,8,2.42,1.29.46,2.55,1,3.82,1.48h0l1.77.84c4,2,7.84,4.35,11.64,6.7,2.84,1.75,5.63,3.56,8.41,5.4a4.14,4.14,0,0,0,.35.23l.17.13,1.87,1.3q2,1.39,3.9,2.82a143,143,0,0,1,12.06,9.91l.83.79c.58.61,1.2,1.2,1.78,1.82,1.38,1.47,2.7,3,3.93,4.59.15.18.29.38.44.57.31.49.64,1,.93,1.47s.67,1.2,1,1.8l.06.13,0,.05c.17.54.35,1.08.53,1.62a.08.08,0,0,0,0,0c0,.37,0,.76.07,1.13a8.48,8.48,0,0,0-.26,1,10.13,10.13,0,0,0-.62.86l-.13.16.23-.11c-.08,0-.16.08-.24.12-.52.62-.69.41-.14.07-.68.36-1.31.87-2,1.18-.24.11-.5.19-.74.3l-.23.12c-.48.09-1,.14-1.23.19a31.11,31.11,0,0,1-3.62.44l-.9.05c-.69,0-1.38,0-2.07-.06-2-.11-3.86-.6-5.81-.8,3.35.35-.07-.05-1.15-.36s-2.1-.65-3.14-1-2.06-.77-3.07-1.19l.15.09-.34-.16-.41-.21c-.3-.13-.61-.25-.9-.39-2.37-1.13-4.68-2.37-6.94-3.69-1.11-.64-2.2-1.31-3.29-2-.59-.37-1.17-.75-1.75-1.13-.31-.2-.91-.64-1.32-.94l1,.77-1.06-.78c-.43-.31-.63-.47-.06,0-4.52-3.36-9-6.67-13.31-10.36q-3.75-3.22-7.34-6.62c-.62-.58-1.23-1.17-1.84-1.76l-.11-.1c-.06-.07-.13-.13-.21-.21q-2-1.93-3.87-3.91-7.71-8-14.78-16.52l-.54-.66C298.26,337.83,299.72,337.89,301.18,338Zm-18.61-18.71-.05-.08C282.85,319.65,283.2,320.16,282.57,319.26Zm-.29-.42a1.13,1.13,0,0,0-.1-.13A1.13,1.13,0,0,1,282.28,318.84ZM370,51.33l-.77,0A3.2,3.2,0,0,1,370,51.33Z"/><path class="cls-3" d="M551.68,317.78c-5.89-5.63-18.16-5.62-27.9,5.7-16,19-31.25,68.88-34.36,106.08a126.31,126.31,0,0,0-.08,23.08,84.88,84.88,0,0,0,1.94,12.53h.1a9.45,9.45,0,0,0,9.3,8.06,9.4,9.4,0,0,0,9-12.18c0-.88,0-1.7,0-2.2,1.73-31,36.5-100.55,44.77-128.46h0C556.09,325.18,554.75,320.72,551.68,317.78Z"/></svg>