<?xml version="1.0" standalone="no"?>
<!DOCTYPE svg PUBLIC "-//W3C//DTD SVG 20010904//EN"
 "http://www.w3.org/TR/2001/REC-SVG-20010904/DTD/svg10.dtd">
<svg version="1.0" xmlns="http://www.w3.org/2000/svg"
 width="387.000000pt" height="383.000000pt" viewBox="0 0 387.000000 383.000000"
 preserveAspectRatio="xMidYMid meet">

<g transform="translate(0.000000,383.000000) scale(0.100000,-0.100000)"
fill="#000000" stroke="none">
<path d="M920 2560 l0 -1160 970 0 970 0 0 1160 0 1160 -970 0 -970 0 0 -1160z
m1203 829 c31 -7 57 -16 57 -20 0 -5 7 -9 15 -9 8 0 15 -4 15 -9 0 -5 11 -12
25 -15 14 -4 25 -11 25 -16 0 -6 12 -10 28 -10 42 0 72 -11 72 -26 0 -8 7 -14
15 -14 8 0 27 -13 43 -28 16 -16 43 -34 60 -41 18 -8 32 -17 32 -22 0 -4 18
-26 40 -48 22 -22 40 -44 40 -50 0 -6 5 -11 11 -11 5 0 15 -13 20 -30 6 -16
17 -30 23 -30 15 0 36 -42 36 -70 0 -11 9 -24 20 -30 13 -7 22 -25 26 -51 4
-22 12 -46 19 -52 53 -54 54 -516 1 -585 -5 -8 -11 -22 -13 -32 -5 -32 -22
-70 -33 -70 -5 0 -10 -8 -10 -18 0 -28 -29 -82 -44 -82 -7 0 -18 -18 -25 -40
-6 -22 -17 -40 -23 -40 -11 0 -88 -78 -88 -89 0 -3 -9 -12 -19 -18 -18 -11
-19 -8 -20 70 -1 106 -12 217 -21 217 -4 0 -10 23 -14 50 -4 28 -11 50 -16 50
-6 0 -10 15 -10 33 0 17 -7 41 -15 51 -8 11 -15 28 -15 38 0 10 -4 18 -10 18
-5 0 -10 22 -10 49 0 27 -4 51 -10 53 -6 2 -13 89 -16 211 -4 114 -11 207 -16
207 -4 0 -8 20 -8 45 0 25 -4 45 -9 45 -5 0 -12 16 -15 35 -4 19 -11 35 -16
35 -6 0 -10 14 -10 30 0 17 -4 30 -10 30 -5 0 -10 7 -10 15 0 9 -6 18 -14 21
-8 3 -18 18 -21 34 -3 16 -17 39 -29 52 -13 13 -26 32 -30 43 -7 23 -48 45
-83 45 -13 0 -23 6 -23 13 0 7 -3 8 -8 2 -9 -13 -35 -19 -28 -6 3 5 -1 11 -9
15 -8 3 -15 15 -15 26 0 11 -4 20 -10 20 -5 0 -10 5 -10 10 0 13 93 13 163 -1z
m-393 -24 c0 -14 -6 -25 -13 -25 -8 0 -27 -11 -43 -25 -16 -14 -32 -25 -36
-25 -5 0 -8 -5 -8 -11 0 -7 -11 -22 -25 -35 -14 -13 -25 -27 -25 -32 0 -6 -7
-12 -15 -16 -8 -3 -15 -12 -15 -21 0 -8 -4 -15 -8 -15 -4 0 -16 -22 -27 -50
-11 -27 -22 -50 -26 -50 -7 0 -39 -95 -39 -117 0 -8 -4 -12 -8 -9 -8 5 -42
-193 -42 -241 0 -13 -4 -23 -10 -23 -6 0 -10 -53 -10 -140 0 -87 4 -140 10
-140 6 0 10 -20 10 -45 0 -40 5 -49 47 -91 26 -26 49 -42 51 -36 2 6 9 9 15 7
7 -2 24 -6 40 -9 24 -6 27 -11 27 -45 0 -25 5 -41 15 -45 8 -3 15 -16 15 -30
0 -14 5 -28 10 -31 6 -3 10 -26 10 -51 0 -24 -4 -44 -10 -44 -5 0 -10 7 -10
15 0 8 -11 25 -25 39 -13 13 -27 37 -31 53 -7 27 -20 43 -36 43 -16 0 -7 -26
12 -40 11 -8 20 -23 20 -33 0 -9 7 -20 15 -23 8 -4 15 -17 15 -30 0 -13 4 -24
9 -24 5 0 12 -16 15 -35 4 -19 11 -35 16 -35 6 0 10 -16 10 -35 0 -33 2 -35
25 -29 15 4 25 2 25 -5 0 -6 7 -11 15 -11 8 0 15 5 15 11 0 5 5 7 10 4 6 -4
10 15 10 50 0 49 -4 60 -25 77 -14 11 -25 30 -25 44 0 13 -4 24 -9 24 -4 0
-11 33 -15 73 -4 39 -11 74 -16 75 -6 2 -10 12 -10 22 0 10 -7 20 -15 24 -8 3
-15 12 -15 21 0 8 -4 15 -10 15 -5 0 -10 14 -10 30 0 17 -4 30 -9 30 -5 0 -13
15 -16 33 -4 17 -12 35 -17 38 -5 3 -10 84 -11 180 -2 96 -1 164 1 152 2 -13
8 -23 13 -23 5 0 9 -7 9 -15 0 -8 7 -15 15 -15 11 0 15 16 17 68 l3 67 106 0
106 0 -8 29 c-11 38 -11 38 -66 43 -96 9 -93 7 -93 72 0 33 3 61 8 63 9 4 42
66 42 79 0 14 33 48 42 43 4 -3 8 2 8 10 0 9 6 16 13 16 8 0 24 9 37 20 12 11
45 23 71 26 27 4 49 10 49 15 0 5 6 9 13 9 8 0 24 9 37 20 13 11 28 20 34 20
17 0 65 -58 72 -86 3 -13 10 -24 14 -24 5 0 12 -10 16 -22 3 -13 17 -34 30
-48 12 -14 39 -42 58 -63 20 -21 36 -47 36 -58 0 -10 5 -19 10 -19 6 0 10 -28
10 -65 0 -45 -4 -65 -12 -65 -9 0 -12 -16 -10 -55 4 -57 22 -78 22 -25 0 20 5
30 15 30 13 0 15 -23 15 -151 0 -83 -4 -148 -9 -145 -5 3 -12 -21 -15 -54 -4
-33 -10 -60 -14 -60 -6 0 -42 -72 -42 -84 0 -3 -13 -19 -30 -37 -16 -18 -27
-36 -25 -40 3 -4 -1 -9 -9 -12 -8 -3 -16 -16 -18 -29 -2 -13 -13 -27 -26 -33
-12 -5 -28 -22 -35 -37 -6 -16 -15 -28 -19 -28 -5 0 -8 -9 -8 -21 0 -32 -33
-149 -42 -149 -4 0 -8 -13 -8 -30 0 -16 5 -30 10 -30 6 0 10 -38 10 -94 0 -76
-3 -95 -16 -100 -49 -19 -334 1 -334 24 0 4 -18 10 -40 14 -23 3 -38 10 -35
15 3 5 -5 11 -17 13 -28 4 -36 28 -9 28 22 0 29 24 11 35 -5 3 -10 2 -10 -3 0
-5 -11 -14 -23 -21 -19 -10 -32 -10 -66 0 -41 12 -42 13 -36 47 6 33 6 34 -11
17 -16 -16 -19 -16 -29 -1 -7 9 -19 16 -27 16 -14 0 -88 77 -88 92 0 4 -7 8
-15 8 -9 0 -20 11 -25 25 -5 14 -14 25 -20 25 -5 0 -12 11 -16 25 -3 14 -14
31 -24 38 -9 6 -20 22 -24 35 -4 12 -12 22 -17 22 -5 0 -9 9 -9 19 0 11 -4 22
-9 25 -5 3 -12 22 -15 41 -4 19 -11 35 -16 35 -6 0 -10 18 -10 39 0 22 -5 41
-11 43 -6 2 -13 32 -16 66 -3 34 -10 62 -14 62 -12 0 -12 177 0 184 5 3 12 35
16 71 3 36 11 63 16 60 5 -4 9 12 9 34 0 23 4 41 9 41 5 0 12 16 15 35 4 19
11 35 16 35 6 0 10 9 10 20 0 11 4 20 9 20 5 0 12 14 16 31 4 16 21 45 38 62
18 18 38 45 45 60 7 16 21 31 32 34 11 3 20 12 20 19 0 17 64 84 80 84 11 0
23 9 68 50 32 29 75 50 102 50 11 0 20 4 20 9 0 5 14 12 30 16 17 4 28 10 26
14 -3 4 5 8 16 8 12 1 24 6 27 11 7 11 35 19 74 21 22 1 27 -3 27 -24z m-86
-1421 c3 -8 2 -12 -4 -9 -6 3 -10 10 -10 16 0 14 7 11 14 -7z m456 -85 c0 -33
-3 -37 -25 -35 -17 1 -23 6 -20 14 3 8 5 20 5 28 0 9 5 12 10 9 6 -4 10 6 10
22 0 22 2 25 10 13 5 -8 10 -31 10 -51z m-54 -155 c-4 -16 -14 -24 -27 -24
-17 0 -19 4 -13 23 3 12 13 26 20 30 8 4 15 20 16 35 1 22 2 21 5 -7 3 -19 2
-44 -1 -57z"/>
<path d="M2026 2865 c-9 -9 -16 -23 -16 -31 0 -8 -11 -19 -25 -24 -14 -5 -25
-14 -25 -20 0 -6 -24 -10 -55 -10 -30 0 -55 4 -55 9 0 5 -9 11 -20 14 -25 6
-25 -8 -3 -59 l16 -39 9 33 c7 25 14 32 33 32 14 0 25 -4 25 -10 0 -5 7 -10
15 -10 7 0 19 -8 24 -17 9 -15 10 -14 11 10 0 18 5 27 16 27 9 0 18 9 21 20 5
18 14 20 87 21 61 1 71 3 41 8 l-40 6 33 12 c48 18 36 37 -25 41 -36 2 -55 -2
-67 -13z"/>
<path d="M2030 2760 c0 -5 -7 -10 -15 -10 -8 0 -15 -9 -15 -20 0 -18 7 -20 75
-20 81 0 103 14 72 45 -18 17 -117 21 -117 5z"/>
<path d="M1643 2743 c-24 -9 -13 -30 18 -37 17 -3 56 -6 86 -6 46 0 54 3 49
16 -3 9 -6 20 -6 25 0 9 -125 11 -147 2z"/>
<path d="M2028 2350 c-4 -24 -1 -30 9 -25 8 3 17 5 19 5 2 0 4 11 4 25 0 36
-27 32 -32 -5z"/>
<path d="M1710 2345 c0 -8 5 -15 10 -15 6 0 19 -9 30 -20 12 -12 20 -15 21 -7
0 6 4 3 9 -8 8 -18 9 -18 9 -2 1 11 -8 21 -19 24 -11 3 -20 14 -20 24 0 12 -7
19 -20 19 -11 0 -20 -7 -20 -15z"/>
<path d="M1806 2275 c4 -8 12 -15 19 -15 7 0 15 7 19 15 4 11 -1 15 -19 15
-18 0 -23 -4 -19 -15z"/>
<path d="M1888 2283 c6 -2 18 -2 25 0 6 3 1 5 -13 5 -14 0 -19 -2 -12 -5z"/>
<path d="M1460 2050 c-9 -16 -8 -20 5 -20 8 0 15 9 15 20 0 11 -2 20 -5 20 -2
0 -9 -9 -15 -20z"/>
<path d="M1511 2004 c0 -11 3 -14 6 -6 3 7 2 16 -1 19 -3 4 -6 -2 -5 -13z"/>
<path d="M1272 1953 c5 -25 28 -28 28 -4 0 12 -6 21 -16 21 -9 0 -14 -7 -12
-17z"/>
<path d="M1550 1895 c0 -16 6 -25 15 -25 9 0 15 9 15 25 0 16 -6 25 -15 25 -9
0 -15 -9 -15 -25z"/>
<path d="M1430 1881 c0 -15 6 -21 21 -21 25 0 22 33 -4 38 -12 2 -17 -3 -17
-17z"/>
<path d="M1742 1870 c0 -14 2 -19 5 -12 2 6 2 18 0 25 -3 6 -5 1 -5 -13z"/>
<path d="M218 1133 c-27 -7 -22 -42 7 -55 27 -12 33 -33 13 -41 -7 -2 -21 0
-31 5 -10 5 -21 7 -24 4 -3 -3 6 -10 19 -17 19 -8 31 -8 47 1 29 15 23 41 -12
58 -35 17 -24 36 17 28 29 -5 30 -5 12 9 -11 8 -22 14 -25 14 -3 -1 -14 -3
-23 -6z"/>
<path d="M545 1131 c-24 -5 -30 -12 -37 -45 -9 -44 -3 -74 7 -38 5 15 15 22
31 22 13 0 24 5 24 10 0 6 -9 10 -20 10 -34 0 -23 28 13 32 17 2 28 6 22 9 -5
3 -23 3 -40 0z"/>
<path d="M2326 1125 c-3 -8 -14 -15 -24 -15 -10 0 -23 -5 -30 -12 -18 -18 -15
-65 6 -73 14 -5 15 -4 5 6 -18 18 -16 44 3 60 21 17 37 -7 22 -34 -5 -10 -7
-21 -4 -25 12 -11 24 13 30 61 7 46 4 61 -8 32z"/>
<path d="M136 1121 c-4 -7 -5 -15 -2 -18 9 -9 19 4 14 18 -4 11 -6 11 -12 0z"/>
<path d="M160 1115 c0 -8 2 -15 4 -15 2 0 6 7 10 15 3 8 1 15 -4 15 -6 0 -10
-7 -10 -15z"/>
<path d="M1126 1108 c-3 -13 -5 -36 -5 -53 l1 -30 12 35 13 35 7 -32 c7 -29
26 -47 26 -25 0 4 9 18 20 32 l20 25 -6 -35 c-5 -23 -3 -32 3 -25 6 6 13 29
17 53 8 55 -13 57 -39 5 l-19 -38 -10 38 c-11 41 -31 49 -40 15z"/>
<path d="M1356 1120 c-11 -35 -14 -90 -5 -95 5 -4 9 6 9 20 0 15 4 34 9 44 6
10 6 23 1 31 -8 12 -10 12 -14 0z"/>
<path d="M2486 1118 c-12 -35 -16 -88 -8 -88 5 0 12 9 15 20 3 13 14 20 29 20
33 0 51 14 46 36 -4 23 -76 34 -82 12z m67 -5 c11 -10 -13 -33 -34 -33 -12 0
-19 7 -19 20 0 14 7 20 23 20 13 0 27 -3 30 -7z"/>
<path d="M2866 1099 c-7 -38 -8 -74 -1 -67 9 9 23 98 15 98 -4 0 -10 -14 -14
-31z"/>
<path d="M2677 1113 c-10 -10 -8 -81 2 -87 5 -3 8 4 8 17 -1 12 2 34 6 50 7
25 -1 35 -16 20z"/>
<path d="M306 1095 c-22 -23 -20 -52 5 -65 28 -16 61 13 57 49 -4 31 -38 40
-62 16z m47 -10 c3 -7 -2 -24 -11 -36 -15 -17 -20 -19 -29 -8 -14 18 1 59 21
59 7 0 16 -7 19 -15z"/>
<path d="M612 1098 c-7 -7 -12 -26 -11 -42 l1 -31 8 28 c5 16 14 35 21 43 14
17 -2 19 -19 2z"/>
<path d="M662 1098 c-17 -17 -15 -65 3 -72 18 -7 19 -2 3 24 -10 16 -10 23 5
37 25 25 45 3 29 -32 -9 -20 -9 -25 2 -25 8 0 15 14 18 34 3 28 0 36 -17 40
-28 8 -29 8 -43 -6z"/>
<path d="M790 1095 c7 -8 10 -26 8 -40 -3 -14 -2 -25 2 -25 10 0 22 59 14 71
-3 5 -12 9 -21 9 -13 0 -13 -3 -3 -15z"/>
<path d="M846 1095 c-36 -37 0 -91 40 -59 18 13 17 14 -8 8 -25 -5 -28 -3 -28
19 0 32 16 43 37 25 14 -11 15 -11 11 2 -7 21 -33 24 -52 5z"/>
<path d="M1011 1096 c-10 -11 -7 -17 10 -29 11 -9 18 -20 14 -27 -5 -8 -11 -7
-23 2 -13 11 -14 11 -11 -1 7 -21 22 -23 44 -6 20 15 20 16 -2 31 -28 20 -30
38 -3 31 11 -3 20 -1 20 4 0 14 -36 11 -49 -5z"/>
<path d="M1262 1098 c-17 -17 -15 -65 3 -72 18 -6 20 5 4 21 -8 8 -8 17 1 33
16 30 36 19 33 -18 -2 -17 2 -34 7 -37 6 -4 11 7 12 24 0 17 1 36 2 43 1 16
-47 21 -62 6z"/>
<path d="M1400 1095 c-15 -18 -9 -67 10 -73 12 -4 13 -2 3 9 -18 18 -16 44 3
60 21 17 36 -5 24 -37 -7 -16 -5 -24 6 -28 11 -4 14 4 14 37 0 38 -3 43 -24
45 -13 1 -29 -5 -36 -13z"/>
<path d="M1566 1099 c-10 -30 -13 -69 -6 -69 9 0 23 70 16 77 -3 3 -8 0 -10
-8z"/>
<path d="M1638 1103 c6 -2 12 -21 13 -41 1 -37 1 -37 11 -9 12 34 4 57 -19 56
-11 0 -13 -3 -5 -6z"/>
<path d="M1702 1102 c-7 -5 -14 -22 -15 -38 -2 -23 2 -30 21 -32 12 -2 22 -8
22 -14 0 -6 -11 -8 -25 -6 -14 3 -25 1 -25 -3 0 -18 59 -9 64 9 14 49 17 82 7
82 -5 0 -11 -12 -13 -27 -4 -37 -38 -45 -38 -9 0 14 8 30 18 35 9 6 13 10 7
11 -5 0 -16 -4 -23 -8z"/>
<path d="M1786 1094 c-22 -21 -20 -51 3 -64 21 -11 51 -4 51 11 0 6 -8 5 -19
-1 -23 -12 -29 -5 -26 30 1 15 9 26 20 29 14 2 17 -2 12 -18 -3 -12 -1 -21 3
-21 14 0 21 17 14 34 -8 20 -38 21 -58 0z"/>
<path d="M1919 1068 c4 -42 4 -43 12 -13 9 31 5 55 -8 55 -5 0 -7 -19 -4 -42z"/>
<path d="M2006 1095 c-9 -9 -16 -25 -16 -35 0 -21 28 -40 48 -33 20 8 14 22
-8 16 -11 -3 -20 0 -20 6 0 6 12 11 26 11 21 0 25 4 22 22 -4 28 -30 34 -52
13z m39 -5 c3 -6 -1 -13 -10 -16 -19 -8 -30 0 -20 15 8 14 22 14 30 1z"/>
<path d="M2098 1099 c-12 -6 -18 -21 -17 -42 l1 -32 8 28 c5 16 14 35 21 43
13 16 11 17 -13 3z"/>
<path d="M2148 1099 c-22 -12 -23 -52 -3 -69 12 -10 20 -9 40 4 27 18 32 45
13 64 -14 14 -27 15 -50 1z m40 -26 c4 -28 -21 -48 -37 -29 -9 11 -10 20 -1
36 13 25 34 22 38 -7z"/>
<path d="M2362 1098 c-18 -18 -15 -65 6 -70 22 -6 42 1 42 15 0 8 -3 8 -11 0
-12 -12 -39 -7 -39 7 0 5 12 10 28 12 19 2 27 9 27 23 0 23 -34 32 -53 13z
m43 -8 c3 -6 -1 -13 -10 -16 -19 -8 -30 0 -20 15 8 14 22 14 30 1z"/>
<path d="M2585 1087 c-15 -24 -12 -57 7 -57 5 0 7 4 4 9 -8 13 11 61 24 61 14
0 12 -27 -2 -34 -7 -3 -4 -5 7 -3 28 3 27 41 -2 45 -14 2 -27 -5 -38 -21z"/>
<path d="M2727 1103 c-3 -5 -8 -23 -12 -42 -5 -23 -4 -31 4 -27 6 4 11 14 11
23 0 9 7 25 17 35 14 16 15 18 0 18 -9 0 -18 -3 -20 -7z"/>
<path d="M2775 1086 c-13 -19 -14 -29 -5 -45 21 -41 74 -14 68 34 -4 40 -40
46 -63 11z m53 -8 c4 -19 -26 -51 -39 -43 -13 9 -11 39 3 53 15 15 32 10 36
-10z"/>
<path d="M2898 1086 c-20 -45 18 -85 50 -52 10 9 12 16 5 16 -7 0 -15 -5 -18
-10 -11 -18 -24 -1 -21 28 2 15 10 28 20 30 19 4 22 -24 4 -31 -8 -3 -7 -6 4
-6 23 -1 32 17 18 34 -19 23 -49 18 -62 -9z"/>
<path d="M2991 1091 c-16 -30 -13 -49 10 -61 28 -16 61 13 57 49 -4 34 -51 42
-67 12z m49 -15 c0 -30 -23 -51 -38 -34 -13 17 3 58 23 58 9 0 15 -9 15 -24z"/>
<path d="M3194 1085 c-13 -20 -15 -31 -8 -43 15 -23 27 -24 49 -7 19 15 19 15
-7 9 -23 -5 -28 -3 -28 14 0 11 7 25 16 33 13 10 17 10 26 -2 8 -12 9 -12 5 1
-7 25 -35 23 -53 -5z"/>
<path d="M3282 1098 c-17 -17 -15 -65 4 -72 21 -8 51 9 59 34 12 39 -35 66
-63 38z m46 -25 c4 -25 -19 -45 -38 -33 -11 7 -12 13 -2 35 14 30 35 29 40 -2z"/>
<path d="M3410 1095 c7 -8 10 -25 6 -40 -4 -14 -2 -25 3 -25 10 0 23 58 15 71
-3 5 -12 9 -21 9 -13 0 -13 -3 -3 -15z"/>
<path d="M3508 1102 c-10 -2 -18 -12 -18 -22 0 -10 -3 -25 -6 -34 -3 -9 -2
-16 3 -16 5 0 13 15 18 33 13 42 29 41 33 -3 l4 -35 11 34 c17 49 37 52 38 4
l1 -38 9 30 c5 17 7 35 5 41 -4 11 -62 15 -98 6z"/>
<path d="M3636 1094 c-9 -8 -16 -24 -16 -33 0 -21 27 -47 37 -37 4 4 2 11 -6
15 -19 12 -10 55 13 59 17 4 18 0 13 -32 -4 -24 -2 -36 6 -36 7 0 13 14 14 32
3 46 -30 64 -61 32z"/>
<path d="M3733 1103 c-20 -7 -15 -31 7 -38 16 -5 19 -12 14 -28 -6 -21 -6 -21
12 -4 19 18 18 19 -3 34 -29 20 -30 36 -2 28 15 -5 19 -4 15 4 -7 11 -22 13
-43 4z"/>
<path d="M393 1051 c1 -27 5 -47 10 -44 11 7 49 84 44 90 -3 2 -8 -5 -12 -16
-7 -24 -25 -28 -25 -7 0 8 -4 17 -9 21 -6 3 -9 -16 -8 -44z"/>
<path d="M746 1078 c-3 -13 -6 -30 -6 -38 1 -13 2 -13 9 0 16 27 22 60 13 60
-5 0 -12 -10 -16 -22z"/>
<path d="M926 1073 c3 -16 7 -34 9 -40 2 -7 -4 -17 -13 -22 -15 -9 -15 -10 -1
-11 9 0 28 22 43 50 15 28 23 50 17 50 -5 0 -13 -9 -16 -20 -3 -11 -11 -20
-16 -20 -5 0 -9 9 -9 20 0 11 -5 20 -10 20 -6 0 -8 -12 -4 -27z"/>
<path d="M1596 1068 c-6 -28 -2 -48 8 -37 8 10 15 69 7 69 -5 0 -11 -14 -15
-32z"/>
<path d="M1866 1078 c-3 -13 -6 -30 -6 -37 0 -23 16 0 24 32 8 32 -9 37 -18 5z"/>
<path d="M1960 1088 c0 -7 -3 -24 -7 -37 -4 -16 -2 -22 4 -18 13 8 23 67 11
67 -4 0 -8 -6 -8 -12z"/>
<path d="M3366 1084 c-3 -9 -6 -25 -6 -37 1 -17 2 -19 9 -7 16 27 22 60 13 60
-6 0 -13 -7 -16 -16z"/>
<path d="M2620 1040 c-8 -5 -12 -12 -9 -15 4 -3 12 1 19 10 14 17 11 19 -10 5z"/>
<path d="M3710 1040 c0 -6 7 -10 15 -10 8 0 15 2 15 4 0 2 -7 6 -15 10 -8 3
-15 1 -15 -4z"/>
<path d="M2778 933 c-2 -11 -12 -18 -28 -18 -30 0 -54 -40 -39 -67 5 -10 15
-18 21 -18 7 0 6 5 -2 15 -10 12 -10 21 -2 40 7 14 16 25 21 25 15 0 22 -30
11 -51 -8 -15 -7 -19 3 -19 10 0 17 17 21 51 7 48 2 82 -6 42z"/>
<path d="M186 925 c-3 -8 -12 -12 -19 -9 -32 12 -61 -48 -35 -74 19 -19 29
-14 16 8 -9 14 -10 25 -3 36 15 24 30 14 29 -18 -3 -39 13 -35 21 5 4 17 9 40
11 50 6 21 -12 23 -20 2z"/>
<path d="M351 918 c-11 -29 -6 -37 18 -31 26 7 37 -15 18 -35 -13 -13 -19 -13
-31 -2 -10 7 -16 8 -16 2 0 -17 39 -25 55 -12 24 20 18 49 -12 61 -28 10 -23
23 12 32 15 3 13 5 -8 6 -20 1 -30 -5 -36 -21z"/>
<path d="M920 930 c0 -5 -9 -10 -20 -10 -27 0 -57 -47 -44 -68 6 -9 16 -18 23
-20 10 -3 10 1 -1 17 -9 15 -10 26 -3 37 15 24 30 14 29 -18 -3 -39 13 -35 21
5 4 17 9 40 11 50 3 9 1 17 -5 17 -6 0 -11 -4 -11 -10z"/>
<path d="M2417 923 c-8 -17 -7 -93 2 -93 5 0 9 10 8 23 0 12 3 34 7 50 5 17 4
27 -2 27 -6 0 -13 -3 -15 -7z"/>
<path d="M3416 888 c-4 -24 -3 -45 4 -52 7 -7 10 1 10 26 0 20 5 40 10 43 6 4
8 11 5 16 -12 19 -23 8 -29 -33z"/>
<path d="M226 898 c-20 -28 -20 -42 -1 -58 16 -13 55 -5 55 12 0 7 -5 6 -15
-2 -8 -6 -19 -9 -25 -5 -20 12 -10 25 20 25 31 0 39 17 18 38 -18 18 -35 15
-52 -10z m44 -3 c0 -8 -7 -15 -15 -15 -16 0 -20 12 -8 23 11 12 23 8 23 -8z"/>
<path d="M476 905 c-9 -9 -16 -25 -16 -34 0 -19 27 -48 35 -39 3 3 -1 10 -9
17 -16 14 -10 47 10 55 18 7 27 -10 20 -39 -3 -13 -2 -26 3 -29 7 -5 25 64 18
70 -15 12 -48 12 -61 -1z"/>
<path d="M604 904 c3 -9 6 -28 7 -42 l1 -27 10 28 c11 30 5 57 -13 57 -6 0 -8
-7 -5 -16z"/>
<path d="M656 898 c-20 -28 -20 -42 -1 -58 12 -10 21 -10 40 -2 43 20 31 82
-15 82 -5 0 -16 -10 -24 -22z m52 -10 c4 -19 -26 -51 -39 -43 -13 9 -11 39 3
53 15 15 32 10 36 -10z"/>
<path d="M750 906 c-9 -12 -7 -17 9 -28 32 -19 27 -42 -6 -34 -23 5 -25 4 -10
-4 21 -14 57 -4 57 15 0 8 -9 19 -20 25 -27 14 -26 33 1 25 15 -5 19 -4 15 4
-10 15 -31 14 -46 -3z"/>
<path d="M963 908 c-31 -40 -14 -86 25 -74 12 4 22 12 22 18 0 7 -5 6 -15 -2
-8 -6 -19 -9 -25 -5 -18 11 -11 25 14 25 30 0 42 16 26 35 -15 18 -34 19 -47
3z m37 -13 c0 -8 -7 -15 -15 -15 -16 0 -20 12 -8 23 11 12 23 8 23 -8z"/>
<path d="M1081 906 c-7 -8 -11 -27 -9 -43 2 -22 8 -28 27 -28 13 0 27 7 29 15
4 13 3 13 -11 2 -9 -8 -21 -11 -27 -7 -20 12 -10 25 21 25 26 0 30 3 27 23 -4
26 -39 35 -57 13z m44 -6 c3 -6 -1 -13 -10 -16 -19 -8 -30 0 -20 15 8 14 22
14 30 1z"/>
<path d="M1292 900 c14 -22 3 -50 -22 -58 -10 -4 -12 4 -7 32 6 40 -10 50 -18
11 -3 -14 -7 -36 -10 -50 -3 -14 -1 -25 5 -25 5 0 10 6 10 14 0 9 7 12 19 9
28 -7 56 38 41 66 -6 12 -15 21 -20 21 -6 0 -5 -9 2 -20z"/>
<path d="M1340 899 c-18 -33 -9 -64 19 -64 13 0 26 7 29 15 4 12 2 13 -9 3
-21 -20 -29 -15 -29 16 0 16 6 31 15 34 16 7 29 -8 20 -23 -7 -11 8 -14 18 -4
11 12 -13 44 -33 44 -11 0 -24 -9 -30 -21z"/>
<path d="M1437 909 c-11 -7 -17 -21 -16 -42 l1 -32 10 30 c6 17 16 33 22 37
17 11 2 17 -17 7z"/>
<path d="M1521 906 c-7 -8 -11 -27 -9 -43 2 -22 8 -28 27 -28 13 0 27 7 29 15
4 13 3 13 -11 2 -9 -8 -21 -11 -27 -7 -16 10 -12 25 8 25 14 0 15 2 2 10 -11
7 -12 12 -3 21 15 15 34 3 26 -16 -3 -8 0 -15 7 -15 6 0 10 10 8 23 -4 26 -39
35 -57 13z"/>
<path d="M1649 873 l4 -48 10 32 c10 32 5 63 -10 63 -5 0 -6 -21 -4 -47z"/>
<path d="M1701 906 c-7 -8 -11 -27 -9 -43 2 -22 8 -28 27 -28 13 0 27 7 29 15
4 13 3 13 -11 2 -9 -8 -21 -11 -27 -7 -15 9 -12 41 6 56 13 10 17 10 24 -1 5
-8 12 -11 17 -7 8 9 -14 27 -33 27 -6 0 -17 -6 -23 -14z"/>
<path d="M1813 894 c-17 -27 -11 -53 16 -62 10 -3 10 1 -1 17 -9 15 -10 26 -3
37 15 24 30 14 29 -18 -1 -15 4 -29 11 -31 16 -7 19 64 2 75 -21 14 -36 9 -54
-18z"/>
<path d="M1946 901 c-21 -23 -18 -49 6 -65 13 -8 21 -7 30 3 11 10 10 12 -6 9
-10 -1 -21 3 -23 10 -3 7 5 12 22 12 22 0 26 4 23 22 -4 30 -30 34 -52 9z m44
-12 c0 -5 -9 -9 -20 -9 -22 0 -27 16 -7 23 15 5 27 -1 27 -14z"/>
<path d="M2048 913 c-9 -2 -20 -18 -23 -34 -8 -34 1 -53 10 -23 17 53 40 60
40 12 0 -16 3 -28 8 -28 12 0 4 73 -8 76 -5 1 -18 0 -27 -3z"/>
<path d="M2156 901 c-23 -25 -17 -55 12 -59 31 -5 27 -22 -5 -22 -24 -1 -25
-2 -11 -11 29 -16 55 5 63 52 8 45 8 44 -21 53 -14 4 -26 0 -38 -13z m42 -27
c-5 -26 -38 -31 -38 -7 0 24 21 46 33 34 5 -5 7 -17 5 -27z"/>
<path d="M2246 898 c-20 -28 -20 -42 -1 -58 16 -13 55 -5 55 12 0 7 -5 6 -15
-2 -8 -6 -19 -9 -25 -5 -18 11 -11 25 14 25 30 0 42 16 26 35 -18 21 -36 18
-54 -7z m44 -3 c0 -8 -7 -15 -15 -15 -8 0 -15 7 -15 15 0 8 7 15 15 15 8 0 15
-7 15 -15z"/>
<path d="M2341 911 c-18 -11 -7 -41 15 -41 8 0 14 -6 11 -12 -2 -7 -14 -12
-26 -11 -13 2 -20 -1 -16 -7 9 -15 41 -12 55 5 14 16 6 35 -16 35 -8 0 -14 7
-14 16 0 11 6 14 21 9 15 -5 19 -4 15 4 -9 13 -26 14 -45 2z"/>
<path d="M2505 904 c-21 -21 -16 -68 8 -72 22 -4 57 25 57 48 0 19 -19 40 -36
40 -7 0 -20 -7 -29 -16z m43 -21 c4 -26 -24 -51 -40 -35 -9 9 -8 18 0 38 14
29 35 28 40 -3z"/>
<path d="M2628 909 c6 -7 12 -27 12 -43 1 -26 2 -28 11 -13 15 26 7 61 -16 65
-16 3 -18 1 -7 -9z"/>
<path d="M2811 906 c-7 -8 -11 -27 -9 -43 2 -22 8 -28 27 -28 13 0 27 7 29 15
4 13 3 13 -11 2 -9 -8 -21 -11 -27 -7 -20 12 -10 25 21 25 26 0 30 3 27 23 -4
26 -39 35 -57 13z m44 -6 c3 -6 -1 -13 -10 -16 -19 -8 -30 0 -20 15 8 14 22
14 30 1z"/>
<path d="M2972 900 c10 -15 10 -25 2 -38 -15 -23 -29 -13 -28 21 1 15 -2 27
-7 27 -5 0 -9 -3 -9 -7 -1 -5 -5 -27 -9 -50 -8 -41 1 -60 13 -28 3 8 12 12 19
9 20 -7 47 22 47 51 0 12 -7 26 -16 29 -24 9 -25 8 -12 -14z"/>
<path d="M3032 912 c-7 -5 -15 -26 -18 -48 -4 -29 -3 -35 5 -24 6 8 11 21 11
29 0 8 7 23 17 33 17 18 8 24 -15 10z"/>
<path d="M3077 902 c-35 -39 -7 -84 39 -63 21 9 25 17 22 44 -4 38 -35 48 -61
19z m53 -23 c0 -13 -31 -39 -41 -34 -13 8 -11 39 3 53 12 12 38 -1 38 -19z"/>
<path d="M3253 908 c-18 -24 -22 -46 -9 -63 14 -20 47 -17 54 5 4 13 3 13 -11
2 -9 -8 -21 -11 -27 -7 -20 12 -10 25 20 25 23 0 30 5 30 19 0 28 -40 41 -57
19z m42 -8 c3 -6 -1 -13 -10 -16 -19 -8 -30 0 -20 15 8 14 22 14 30 1z"/>
<path d="M3334 895 c-27 -42 10 -86 44 -51 9 9 11 16 5 16 -6 0 -13 -5 -15
-12 -6 -17 -28 0 -28 21 0 23 26 46 35 31 3 -5 11 -10 17 -10 7 0 6 6 -2 15
-18 22 -37 18 -56 -10z"/>
<path d="M3471 901 c-24 -24 -26 -42 -9 -59 31 -31 84 9 69 52 -11 29 -36 31
-60 7z m47 -18 c3 -22 -22 -48 -38 -38 -14 8 -13 38 2 53 16 16 32 10 36 -15z"/>
<path d="M3560 906 c-9 -12 -7 -17 9 -28 29 -18 28 -41 -1 -33 -18 6 -20 5
-12 -5 15 -15 54 -4 54 15 0 8 -9 19 -20 25 -26 14 -17 30 13 23 18 -4 19 -3
7 6 -21 15 -35 14 -50 -3z"/>
<path d="M560 891 c0 -11 -3 -26 -6 -35 -3 -9 -1 -16 5 -16 6 0 11 10 11 23 0
13 5 28 12 35 9 9 8 12 -5 12 -10 0 -17 -8 -17 -19z"/>
<path d="M1174 896 c4 -12 0 -26 -10 -37 -10 -11 -12 -19 -6 -19 6 0 14 5 17
10 5 8 12 7 22 -2 14 -11 15 -10 9 10 -5 14 -3 29 6 40 11 15 11 15 -3 5 -12
-10 -18 -10 -29 0 -10 10 -12 8 -6 -7z"/>
<path d="M1478 890 c-11 -38 -10 -56 3 -43 6 6 9 23 7 39 l-3 29 -7 -25z"/>
<path d="M1598 875 c-2 -19 -1 -35 2 -35 3 0 10 16 16 35 9 27 8 35 -1 35 -7
0 -15 -16 -17 -35z"/>
<path d="M1777 897 c-4 -10 -7 -28 -7 -40 1 -20 2 -20 11 -4 6 10 9 28 7 40
-3 20 -4 20 -11 4z"/>
<path d="M2457 878 c-4 -31 -2 -47 7 -37 8 10 15 69 7 69 -5 0 -11 -15 -14
-32z"/>
<path d="M2586 878 c-6 -28 -2 -48 8 -37 8 10 15 69 7 69 -5 0 -11 -14 -15
-32z"/>
<path d="M3164 861 c1 -28 4 -51 8 -51 4 0 19 23 33 50 14 28 21 50 17 50 -5
0 -15 -12 -22 -27 -12 -25 -14 -26 -18 -8 -9 42 -19 34 -18 -14z"/>
<path d="M533 700 c-6 -27 -7 -50 -2 -50 9 0 24 88 17 96 -3 2 -10 -18 -15
-46z"/>
<path d="M1767 737 c-4 -10 -11 -16 -17 -12 -5 3 -19 1 -30 -5 -16 -9 -20 -19
-18 -43 3 -28 7 -32 33 -32 26 0 30 4 37 40 10 47 7 81 -5 52z m-10 -42 c2 -6
-3 -20 -11 -30 -19 -26 -41 -7 -31 25 7 21 35 25 42 5z"/>
<path d="M1890 738 c0 -7 -3 -31 -6 -53 -4 -27 -2 -35 4 -25 15 24 24 90 12
90 -5 0 -10 -6 -10 -12z"/>
<path d="M2385 704 c-8 -53 0 -71 10 -22 3 18 9 41 11 51 3 9 1 17 -4 17 -5 0
-13 -21 -17 -46z"/>
<path d="M2690 734 c0 -11 -6 -13 -19 -9 -14 4 -25 -1 -36 -19 -19 -28 -12
-66 11 -66 11 0 12 4 3 19 -15 23 -5 51 17 51 12 0 15 -7 12 -30 -5 -36 9 -41
17 -5 3 14 7 36 10 50 3 14 1 25 -5 25 -5 0 -10 -7 -10 -16z"/>
<path d="M3272 730 c0 -14 2 -19 5 -12 2 6 2 18 0 25 -3 6 -5 1 -5 -13z"/>
<path d="M3297 735 c-4 -8 -2 -17 3 -20 6 -4 10 3 10 14 0 25 -6 27 -13 6z"/>
<path d="M137 734 c-12 -12 -8 -94 4 -94 6 0 9 7 5 15 -3 8 -1 27 5 42 9 25 0
51 -14 37z"/>
<path d="M1535 694 c-3 -25 -4 -48 -1 -52 9 -9 13 0 19 51 8 61 -8 62 -18 1z"/>
<path d="M2107 733 c-9 -14 -12 -81 -4 -89 4 -4 7 3 7 15 0 12 5 32 11 43 11
20 -3 50 -14 31z"/>
<path d="M3057 733 c-12 -20 -17 -82 -7 -88 6 -4 10 5 10 20 0 15 5 35 10 45
10 18 -3 40 -13 23z"/>
<path d="M187 712 c-19 -21 -22 -57 -6 -67 15 -10 59 3 59 17 0 9 -3 9 -12 0
-17 -17 -38 -15 -38 3 0 9 9 15 24 15 33 0 44 20 21 37 -24 17 -29 17 -48 -5z
m43 -13 c0 -5 -9 -9 -20 -9 -22 0 -27 16 -7 23 15 5 27 -1 27 -14z"/>
<path d="M276 711 c-25 -28 -17 -66 13 -66 13 0 27 7 29 15 5 13 3 13 -12 1
-22 -18 -41 -1 -31 29 5 17 13 21 31 17 27 -5 33 7 8 17 -21 8 -18 9 -38 -13z"/>
<path d="M373 723 c-14 -3 -23 -12 -23 -23 0 -10 -3 -25 -6 -34 -3 -9 -2 -16
4 -16 5 0 12 14 16 30 8 42 36 40 36 -2 1 -28 2 -30 11 -15 12 21 8 60 -6 62
-5 1 -20 0 -32 -2z"/>
<path d="M449 709 c-23 -23 -22 -47 4 -63 25 -16 51 4 55 41 4 39 -30 51 -59
22z m51 -13 c0 -21 -26 -49 -38 -42 -15 9 -15 39 -1 53 13 13 39 6 39 -11z"/>
<path d="M579 709 c-23 -23 -22 -47 4 -63 36 -23 75 35 47 70 -17 19 -26 18
-51 -7z m41 -38 c-6 -12 -17 -20 -23 -18 -17 5 -21 36 -6 53 11 13 14 13 27 1
11 -12 12 -19 2 -36z"/>
<path d="M669 709 c-10 -10 -19 -25 -19 -32 0 -20 21 -36 38 -30 10 4 13 1 10
-8 -3 -8 -16 -13 -29 -12 -21 2 -22 1 -7 -8 35 -20 68 22 68 86 0 22 -40 25
-61 4z m39 -25 c-5 -26 -38 -31 -38 -7 0 24 21 46 33 34 5 -5 7 -17 5 -27z"/>
<path d="M796 711 c-10 -11 -16 -30 -14 -43 3 -26 34 -36 52 -17 8 9 7 11 -6
6 -9 -3 -21 0 -27 7 -15 18 11 51 33 43 9 -4 16 -2 16 2 0 7 -23 21 -34 21 -2
0 -11 -9 -20 -19z"/>
<path d="M887 718 c-40 -30 -11 -98 31 -72 21 14 28 64 10 75 -17 11 -21 11
-41 -3z m37 -46 c-6 -9 -17 -17 -25 -17 -18 0 -24 32 -8 51 11 13 14 13 28 -1
12 -12 13 -19 5 -33z"/>
<path d="M976 717 c-20 -15 -14 -37 10 -37 8 0 14 -7 14 -16 0 -11 -6 -15 -20
-11 -11 3 -20 1 -20 -4 0 -5 11 -9 25 -9 35 0 44 28 16 49 -12 9 -19 20 -15
24 4 4 14 1 22 -6 12 -10 14 -9 11 2 -7 21 -22 23 -43 8z"/>
<path d="M1136 716 c-15 -11 -19 -27 -17 -58 1 -13 9 -17 36 -16 33 1 35 3 35
38 0 29 -5 39 -20 43 -10 3 -26 0 -34 -7z m39 -16 c7 -12 -12 -50 -26 -50 -13
0 -22 27 -15 45 6 17 32 20 41 5z"/>
<path d="M1250 718 c0 -4 5 -8 10 -8 7 0 9 -15 5 -37 -5 -37 4 -27 19 20 3 9
12 17 21 17 13 0 15 -7 9 -37 -5 -29 -4 -35 6 -27 6 6 10 26 8 45 -3 31 -6 33
-40 35 -21 0 -38 -3 -38 -8z"/>
<path d="M1365 716 c-11 -8 -16 -23 -13 -41 3 -26 7 -30 36 -32 31 -1 32 0 32
37 0 29 -4 39 -20 43 -10 3 -26 0 -35 -7z m37 -31 c-2 -11 -8 -24 -13 -29 -14
-16 -32 9 -24 34 9 27 41 23 37 -5z"/>
<path d="M1488 717 c9 -11 11 -27 7 -49 -5 -25 -4 -30 5 -22 16 16 9 76 -10
82 -13 5 -13 3 -2 -11z"/>
<path d="M1593 718 c-18 -24 -22 -46 -9 -63 14 -20 47 -17 54 5 4 13 3 13 -11
2 -9 -8 -21 -11 -27 -7 -20 12 -10 25 20 25 35 0 41 23 11 40 -25 13 -27 13
-38 -2z m37 -19 c0 -5 -7 -9 -15 -9 -15 0 -20 12 -9 23 8 8 24 -1 24 -14z"/>
<path d="M1805 714 c-21 -22 -16 -68 9 -72 10 -2 23 1 29 7 7 7 3 8 -12 4 -15
-4 -21 -1 -21 11 0 9 6 16 13 16 8 0 7 4 -3 10 -13 9 -13 11 0 19 18 12 33 3
26 -15 -3 -8 -1 -14 4 -14 16 0 11 37 -6 44 -21 8 -20 8 -39 -10z"/>
<path d="M1965 716 c-11 -8 -16 -23 -13 -41 3 -26 7 -30 36 -32 31 -1 32 0 32
37 0 29 -4 39 -20 43 -10 3 -26 0 -35 -7z m40 -16 c7 -12 -12 -50 -26 -50 -13
0 -22 27 -15 45 6 17 32 20 41 5z"/>
<path d="M2156 711 c-33 -36 3 -96 37 -62 7 7 3 8 -12 4 -15 -4 -21 -1 -21 11
0 10 9 16 24 16 33 0 44 20 21 37 -24 17 -29 17 -49 -6z m44 -12 c0 -5 -9 -9
-20 -9 -22 0 -27 16 -7 23 15 5 27 -1 27 -14z"/>
<path d="M2437 718 c-40 -30 -11 -98 31 -72 21 14 28 64 10 75 -17 11 -21 11
-41 -3z m43 -27 c0 -22 -25 -45 -40 -36 -11 7 -14 38 -3 48 14 15 43 7 43 -12z"/>
<path d="M2525 717 c-19 -15 -13 -37 11 -37 8 0 14 -7 14 -16 0 -11 -6 -15
-20 -11 -11 3 -20 1 -20 -4 0 -5 11 -9 25 -9 35 0 44 28 16 49 -24 18 -19 34
7 24 10 -4 13 -2 8 5 -9 15 -18 15 -41 -1z"/>
<path d="M2726 708 c-20 -28 -20 -42 -1 -58 12 -10 21 -10 38 -1 22 11 22 11
0 6 -12 -3 -24 -2 -27 3 -9 15 6 52 20 52 17 0 18 -17 2 -23 -7 -3 -3 -6 10
-6 27 -1 29 24 3 39 -26 14 -28 13 -45 -12z"/>
<path d="M2850 722 c0 -5 5 -13 11 -19 12 -12 -4 -53 -22 -53 -16 0 -21 27 -9
49 8 17 8 21 -4 21 -14 0 -33 -86 -22 -98 3 -3 6 0 6 6 0 7 10 12 23 12 13 0
28 5 35 12 17 17 15 65 -3 72 -8 3 -15 2 -15 -2z"/>
<path d="M2917 718 c-40 -30 -11 -98 31 -72 21 14 28 64 10 75 -17 11 -21 11
-41 -3z m43 -28 c0 -21 -25 -44 -40 -35 -13 8 -13 38 1 52 15 15 39 5 39 -17z"/>
<path d="M3106 717 c-12 -9 -17 -23 -14 -42 2 -24 8 -30 27 -30 13 0 27 7 29
15 4 13 3 13 -11 2 -9 -8 -21 -11 -27 -7 -20 12 -10 25 20 25 23 0 30 5 30 19
0 10 -7 22 -16 25 -20 8 -17 8 -38 -7z m34 -12 c0 -8 -7 -15 -15 -15 -16 0
-20 12 -8 23 11 12 23 8 23 -8z"/>
<path d="M3191 716 c-14 -17 -7 -36 15 -36 8 0 14 -7 14 -16 0 -12 -6 -15 -26
-10 -17 5 -23 3 -19 -4 10 -16 55 -12 62 6 4 11 -2 23 -16 33 -12 9 -19 20
-15 24 4 4 14 1 22 -6 13 -10 14 -9 10 3 -7 21 -32 24 -47 6z"/>
<path d="M756 709 c-11 -35 -13 -59 -6 -59 4 0 10 15 13 33 5 33 1 50 -7 26z"/>
<path d="M1216 704 c-3 -9 -6 -28 -5 -42 0 -26 1 -25 14 8 7 19 14 38 14 43 2
14 -17 7 -23 -9z"/>
<path d="M1447 713 c-4 -3 -7 -22 -7 -42 l1 -36 14 40 c8 22 15 41 15 43 0 5
-17 2 -23 -5z"/>
<path d="M2044 695 c-10 -41 0 -48 17 -11 13 29 14 36 3 36 -8 0 -16 -11 -20
-25z"/>
<path d="M2276 682 c4 -27 1 -48 -6 -58 -10 -12 -10 -13 1 -9 16 6 59 78 59
97 -1 7 -8 0 -17 -16 l-16 -30 -13 30 c-14 29 -14 29 -8 -14z"/>
<path d="M2997 713 c-4 -3 -7 -22 -6 -42 l1 -36 10 35 c5 19 15 38 21 42 8 5
7 8 -4 8 -9 0 -19 -3 -22 -7z"/>
<path d="M1280 210 l0 -160 550 0 550 0 0 160 0 160 -550 0 -550 0 0 -160z
m125 30 c30 -59 32 -80 7 -57 -10 10 -27 17 -37 17 -10 0 -27 -7 -37 -17 -23
-21 -23 -7 2 49 18 41 29 58 36 58 2 0 15 -22 29 -50z m343 -15 c-3 -44 -6
-49 -28 -50 -36 -3 -60 12 -60 38 0 29 18 47 47 47 15 0 23 6 23 17 0 12 3 14
11 6 5 -5 9 -32 7 -58z m307 45 c4 -6 -7 -10 -24 -10 -24 0 -31 -4 -31 -20 0
-15 7 -20 28 -21 l27 -2 -27 -4 c-20 -3 -28 -10 -28 -24 0 -10 -4 -19 -10 -19
-15 0 -13 97 3 103 21 9 56 7 62 -3z m-527 -22 c28 -28 -2 -84 -39 -73 -13 4
-19 2 -19 -9 0 -8 -4 -18 -10 -21 -6 -4 -10 17 -10 54 l0 61 33 0 c18 0 38 -5
45 -12z m100 0 c39 -39 -17 -100 -58 -63 -24 22 -25 38 -4 59 18 19 45 21 62
4z m216 -4 c9 -8 16 -22 16 -29 0 -16 -27 -45 -41 -45 -24 0 -49 22 -49 43 0
44 43 62 74 31z m46 6 c0 -5 -5 -10 -11 -10 -5 0 -7 5 -4 10 3 6 8 10 11 10 2
0 4 -4 4 -10z m223 -17 c-7 -3 -13 -18 -13 -34 0 -16 -4 -29 -10 -29 -5 0 -10
15 -10 34 0 25 5 36 18 38 20 5 32 -3 15 -9z m87 -2 c18 -35 12 -58 -17 -64
-16 -3 -33 -1 -40 5 -16 13 -5 38 17 38 11 0 22 5 25 10 4 6 -5 10 -20 10 -15
0 -24 4 -20 10 10 17 44 11 55 -9z m102 8 c19 -10 26 -69 8 -69 -5 0 -10 14
-10 31 0 26 -3 30 -22 27 -16 -2 -25 -12 -29 -33 -6 -28 -7 -27 -8 10 -1 35 2
41 21 42 11 1 29 -2 40 -8z m-412 -49 c0 -5 -5 -10 -11 -10 -5 0 -7 5 -4 10 3
6 8 10 11 10 2 0 4 -4 4 -10z"/>
<path d="M1366 245 c-9 -23 -8 -25 9 -25 17 0 19 9 6 28 -7 11 -10 10 -15 -3z"/>
<path d="M1682 218 c5 -34 38 -37 38 -4 0 20 -5 26 -21 26 -15 0 -20 -5 -17
-22z"/>
<path d="M1474 225 c-4 -9 -2 -21 4 -27 15 -15 44 -1 40 19 -4 23 -36 29 -44
8z"/>
<path d="M1576 231 c-10 -16 5 -42 23 -39 21 4 21 42 -1 46 -9 2 -19 -1 -22
-7z"/>
<path d="M1794 225 c-7 -18 3 -35 21 -35 15 0 28 27 19 41 -8 14 -34 11 -40
-6z"/>
<path d="M2150 190 c0 -5 9 -10 20 -10 11 0 20 5 20 10 0 6 -9 10 -20 10 -11
0 -20 -4 -20 -10z"/>
</g>
</svg>
